SplineFontDB: 3.2
FontName: EasyIcons
FullName: EasyIcons
FamilyName: EasyIcons
Weight: Book
Copyright: Copyright (C) 2020 by original authors @ fluttericon.com, fontello.com
Version: 1.0
ItalicAngle: 0
UnderlinePosition: 10
UnderlineWidth: 0
Ascent: 850
Descent: 150
InvalidEm: 0
sfntRevision: 0x00010000
LayerCount: 2
Layer: 0 1 "Back" 1
Layer: 1 1 "Fore" 0
XUID: [1021 526 -899484633 15765391]
StyleMap: 0x0040
FSType: 0
OS2Version: 1
OS2_WeightWidthSlopeOnly: 0
OS2_UseTypoMetrics: 0
CreationTime: 1600431937
ModificationTime: 1603265084
PfmFamily: 17
TTFWeight: 400
TTFWidth: 5
LineGap: 0
VLineGap: 0
Panose: 2 0 5 3 0 0 0 0 0 0
OS2TypoAscent: 850
OS2TypoAOffset: 0
OS2TypoDescent: -150
OS2TypoDOffset: 0
OS2TypoLinegap: 90
OS2WinAscent: 852
OS2WinAOffset: 0
OS2WinDescent: 155
OS2WinDOffset: 0
HheadAscent: 850
HheadAOffset: 0
HheadDescent: -150
HheadDOffset: 0
OS2SubXSize: 634
OS2SubYSize: 700
OS2SubXOff: 0
OS2SubYOff: 140
OS2SupXSize: 634
OS2SupYSize: 700
OS2SupXOff: 0
OS2SupYOff: 480
OS2StrikeYSize: 49
OS2StrikeYPos: 258
OS2Vendor: 'PfEd'
OS2CodePages: 00000001.00000000
OS2UnicodeRanges: 00000000.00000000.00000000.00000000
Lookup: 4 0 1 "'liga' Standard Ligatures in Latin lookup 0" { "'liga' Standard Ligatures in Latin lookup 0 subtable"  } [' RQD' ('DFLT' <'dflt' > 'latn' <'dflt' > ) 'liga' ('DFLT' <'dflt' > 'latn' <'dflt' > ) ]
DEI: 91125
ShortTable: maxp 16
  1
  0
  254
  512
  128
  0
  0
  2
  0
  10
  10
  0
  255
  0
  0
  0
EndShort
LangName: 1033 "" "" "Regular" "EasyIcons" "" "Version 1.0" "" "" "" "" "Generated by svg2ttf from Fontello project." "http://fontello.com"
Encoding: UnicodeFull
UnicodeInterp: none
NameList: AGL For New Fonts
DisplaySize: -48
AntiAlias: 1
FitToEm: 0
WinInfo: 59592 26 12
BeginChars: 1114113 116

StartChar: aggiungi
Encoding: 59649 59649 1
Width: 1000
Flags: W
LayerCount: 2
Fore
SplineSet
572 -124 m 1,0,1
 546 -150 546 -150 510.5 -150 c 128,-1,2
 475 -150 475 -150 449.5 -124.5 c 128,-1,3
 424 -99 424 -99 424 -63 c 2,4,-1
 424 263 l 1,5,-1
 87 263 l 2,6,7
 51 263 51 263 25.5 288.5 c 128,-1,8
 0 314 0 314 0 350 c 128,-1,9
 0 386 0 386 25.5 411.5 c 128,-1,10
 51 437 51 437 87 437 c 2,11,-1
 424 437 l 1,12,-1
 424 763 l 2,13,14
 424 799 424 799 449.5 824.5 c 128,-1,15
 475 850 475 850 511 850 c 128,-1,16
 547 850 547 850 572.5 824.5 c 128,-1,17
 598 799 598 799 598 763 c 2,18,-1
 598 437 l 1,19,-1
 913 437 l 2,20,21
 949 437 949 437 974.5 411.5 c 128,-1,22
 1000 386 1000 386 1000 350 c 1,23,-1
 1000 350 l 1,24,-1
 1000 350 l 1,25,26
 1000 314 1000 314 974.5 288.5 c 128,-1,27
 949 263 949 263 913 263 c 2,28,-1
 597 263 l 1,29,-1
 597 -63 l 2,30,31
 597 -101 597 -101 572 -124 c 1,32,-1
 572 -124 l 1,0,1
48 389 m 1,33,34
 32 373 32 373 32 350.5 c 128,-1,35
 32 328 32 328 48.5 311.5 c 128,-1,36
 65 295 65 295 87 295 c 1,37,38
 87 295 87 295 87 295 c 1,39,-1
 456 295 l 1,40,-1
 456 -63 l 2,41,42
 456 -86 456 -86 472 -102 c 128,-1,43
 488 -118 488 -118 511 -118 c 128,-1,44
 534 -118 534 -118 550 -102 c 128,-1,45
 566 -86 566 -86 566 -63 c 2,46,-1
 566 295 l 1,47,-1
 913 295 l 2,48,49
 936 295 936 295 952 311 c 128,-1,50
 968 327 968 327 968 350 c 128,-1,51
 968 373 968 373 952 389 c 128,-1,52
 936 405 936 405 913 405 c 2,53,-1
 566 405 l 1,54,-1
 566 763 l 2,55,56
 565 786 565 786 549.5 802 c 128,-1,57
 534 818 534 818 511 818 c 1,58,-1
 511 818 l 1,59,60
 488 818 488 818 472 802 c 128,-1,61
 456 786 456 786 456 763 c 2,62,-1
 456 405 l 1,63,-1
 87 405 l 1,64,65
 87 405 87 405 87 405 c 1,66,67
 64 405 64 405 48 389 c 1,68,-1
 48 389 l 1,33,34
EndSplineSet
EndChar

StartChar: allega_hover
Encoding: 59651 59651 2
AltUni2: 00e902.ffffffff.0
Width: 820
Flags: W
LayerCount: 2
Fore
SplineSet
815 692 m 1,0,1
 804 737 804 737 775.5 773 c 128,-1,2
 747 809 747 809 705.5 829.5 c 128,-1,3
 664 850 664 850 616 850 c 0,4,5
 563 850 563 850 517 824.5 c 128,-1,6
 471 799 471 799 444 755 c 1,7,-1
 443 754 l 1,8,-1
 23 82 l 2,9,10
 0 44 0 44 0 2.5 c 128,-1,11
 0 -39 0 -39 20.5 -74 c 128,-1,12
 41 -109 41 -109 76 -129.5 c 128,-1,13
 111 -150 111 -150 151.5 -150 c 128,-1,14
 192 -150 192 -150 225.5 -131 c 128,-1,15
 259 -112 259 -112 280 -79 c 2,16,-1
 700 593 l 1,17,18
 700 593 700 593 700 593 c 1,19,20
 714 616 714 616 714 645 c 0,21,22
 714 656 714 656 711 668 c 1,23,-1
 712 667 l 1,24,25
 708 686 708 686 696.5 702 c 128,-1,26
 685 718 685 718 668 728 c 1,27,-1
 668 728 l 1,28,29
 646 743 646 743 616 743 c 0,30,31
 590 743 590 743 568 731 c 128,-1,32
 546 719 546 719 533 698 c 2,33,-1
 186 143 l 2,34,35
 183 139 183 139 183 132 c 2,36,-1
 183 127 l 2,37,38
 186 118 186 118 193 114 c 1,39,-1
 193 114 l 1,40,41
 196 112 196 112 204 110 c 2,42,-1
 205 110 l 2,43,44
 216 110 216 110 223 121 c 2,45,-1
 569 675 l 2,46,47
 577 687 577 687 589.5 694 c 128,-1,48
 602 701 602 701 616 701 c 0,49,50
 636 701 636 701 651 689 c 128,-1,51
 666 677 666 677 671 659 c 1,52,-1
 671 658 l 2,53,54
 672 654 672 654 672 646 c 0,55,56
 672 630 672 630 663 616 c 2,57,-1
 664 617 l 1,58,-1
 657 605 l 1,59,-1
 243 -57 l 1,60,-1
 243 -58 l 1,61,62
 229 -82 229 -82 204.5 -95.5 c 128,-1,63
 180 -109 180 -109 151 -109 c 128,-1,64
 122 -109 122 -109 97 -94.5 c 128,-1,65
 72 -80 72 -80 57.5 -55 c 128,-1,66
 43 -30 43 -30 43 0 c 0,67,68
 43 33 43 33 60 59 c 1,69,-1
 60 58 l 1,70,-1
 479 731 l 2,71,72
 501 766 501 766 537.5 786.5 c 128,-1,73
 574 807 574 807 616 807 c 0,74,75
 664 807 664 807 703 782 c 1,76,-1
 702 783 l 1,77,78
 737 761 737 761 757 724.5 c 128,-1,79
 777 688 777 688 777 646 c 0,80,81
 777 600 777 600 753 560 c 2,82,-1
 478 121 l 2,83,84
 474 115 474 115 474 109 c 0,85,86
 474 100 474 100 480.5 94 c 128,-1,87
 487 88 487 88 495 88 c 2,88,-1
 501 88 l 2,89,90
 511 90 511 90 514 98 c 2,91,-1
 789 538 l 2,92,93
 820 585 820 585 820 645 c 0,94,95
 820 668 820 668 815 693 c 1,96,-1
 815 692 l 1,0,1
207 -49 m 256,97,98
 207 -51 207 -51 205.5 -52.5 c 128,-1,99
 204 -54 204 -54 202 -54 c 128,-1,100
 200 -54 200 -54 198.5 -52.5 c 128,-1,101
 197 -51 197 -51 197 -49 c 128,-1,102
 197 -47 197 -47 198.5 -45 c 128,-1,103
 200 -43 200 -43 202 -43 c 128,-1,104
 204 -43 204 -43 205.5 -45 c 128,-1,105
 207 -47 207 -47 207 -49 c 256,97,98
EndSplineSet
EndChar

StartChar: glyph
Encoding: 59652 59652 3
Width: 594
Flags: W
LayerCount: 2
Fore
SplineSet
247 438 m 1,0,1
 247 438 247 438 247 438 c 1,2,3
 238 438 238 438 229 445 c 2,4,-1
 122 553 l 2,5,6
 112 563 112 563 112 578 c 128,-1,7
 112 593 112 593 122.5 603.5 c 128,-1,8
 133 614 133 614 147 614 c 2,9,-1
 148 614 l 2,10,11
 162 614 162 614 173 603 c 2,12,-1
 247 529 l 1,13,-1
 422 704 l 2,14,15
 433 715 433 715 447 715 c 2,16,-1
 448 715 l 1,17,18
 448 715 448 715 448 715 c 1,19,20
 462 715 462 715 472.5 704.5 c 128,-1,21
 483 694 483 694 483 679 c 1,22,23
 483 679 483 679 483 679 c 1,24,-1
 483 679 l 1,25,26
 483 679 483 679 483 679 c 1,27,28
 483 664 483 664 473 654 c 2,29,-1
 265 445 l 2,30,31
 258 438 258 438 248 438 c 2,32,-1
 247 438 l 1,0,1
EndSplineSet
EndChar

StartChar: glyph-62
Encoding: 59846 59846 4
AltUni2: 00e97a.ffffffff.0 00e905.ffffffff.0
Width: 594
Flags: W
LayerCount: 2
Fore
SplineSet
369 463 m 5,0,-1
 226 463 l 5,1,2
 226 463 226 463 226 463 c 5,3,4
 222 463 222 463 218 467 c 5,5,-1
 218 467 l 5,6,7
 214 471 214 471 214 475 c 5,8,-1
 214 475 l 5,9,10
 216 511 216 511 243 541 c 4,11,12
 261 561 261 561 285 574 c 5,13,14
 217 620 217 620 214 676 c 6,15,-1
 214 677 l 6,16,17
 214 682 214 682 217 685 c 5,18,-1
 217 685 l 5,19,20
 220 688 220 688 225 688 c 5,21,22
 225 688 225 688 225 688 c 5,23,-1
 368 688 l 5,24,25
 368 688 368 688 368 688 c 5,26,27
 373 688 373 688 376 685 c 5,28,-1
 376 685 l 5,29,30
 379 682 379 682 379 677 c 6,31,-1
 379 676 l 6,32,33
 378 640 378 640 350 610 c 4,34,35
 333 590 333 590 308 577 c 5,36,37
 333 561 333 561 351 540 c 4,38,39
 378 509 378 509 379 475 c 5,40,41
 379 475 379 475 379 475 c 5,42,43
 379 470 379 470 376 467 c 5,44,-1
 376 467 l 5,45,46
 372 463 372 463 369 463 c 5,47,-1
 369 463 l 5,0,-1
213 37 m 6,48,-1
 382 37 l 6,49,50
 387 37 387 37 391 33 c 132,-1,51
 395 29 395 29 395 24 c 132,-1,52
 395 19 395 19 391 15.5 c 132,-1,53
 387 12 387 12 382 12 c 6,54,-1
 213 12 l 6,55,56
 208 12 208 12 204 15.5 c 132,-1,57
 200 19 200 19 200 24 c 132,-1,58
 200 29 200 29 204 33 c 132,-1,59
 208 37 208 37 213 37 c 6,48,-1
150 103 m 6,60,-1
 445 103 l 6,61,62
 450 103 450 103 454 99 c 132,-1,63
 458 95 458 95 458 90 c 132,-1,64
 458 85 458 85 454 81 c 132,-1,65
 450 77 450 77 445 77 c 6,66,-1
 150 77 l 6,67,68
 145 77 145 77 141 81 c 132,-1,69
 137 85 137 85 137 90 c 132,-1,70
 137 95 137 95 141 99 c 132,-1,71
 145 103 145 103 150 103 c 6,60,-1
150 168 m 6,72,-1
 445 168 l 6,73,74
 450 168 450 168 454 164 c 132,-1,75
 458 160 458 160 458 155 c 132,-1,76
 458 150 458 150 454 146.5 c 132,-1,77
 450 143 450 143 445 143 c 6,78,-1
 150 143 l 6,79,80
 145 143 145 143 141 146.5 c 132,-1,81
 137 150 137 150 137 155 c 132,-1,82
 137 160 137 160 141 164 c 132,-1,83
 145 168 145 168 150 168 c 6,72,-1
150 234 m 6,84,-1
 445 234 l 6,85,86
 450 234 450 234 454 230 c 132,-1,87
 458 226 458 226 458 221 c 132,-1,88
 458 216 458 216 454 212 c 132,-1,89
 450 208 450 208 445 208 c 6,90,-1
 150 208 l 6,91,92
 145 208 145 208 141 212 c 132,-1,93
 137 216 137 216 137 221 c 132,-1,94
 137 226 137 226 141 230 c 132,-1,95
 145 234 145 234 150 234 c 6,84,-1
150 299 m 6,96,-1
 445 299 l 6,97,98
 450 299 450 299 454 295.5 c 132,-1,99
 458 292 458 292 458 287 c 132,-1,100
 458 282 458 282 454 278 c 132,-1,101
 450 274 450 274 445 274 c 6,102,-1
 150 274 l 6,103,104
 145 274 145 274 141 278 c 132,-1,105
 137 282 137 282 137 287 c 132,-1,106
 137 292 137 292 141 295.5 c 132,-1,107
 145 299 145 299 150 299 c 6,96,-1
559 850 m 5,108,-1
 35 850 l 6,109,110
 21 850 21 850 10.5 839.5 c 132,-1,111
 0 829 0 829 0 814 c 5,112,113
 0 814 0 814 0 814 c 5,114,-1
 0 -114 l 5,115,116
 0 -114 0 -114 0 -114 c 5,117,118
 0 -129 0 -129 10.5 -139.5 c 132,-1,119
 21 -150 21 -150 35 -150 c 6,120,-1
 559 -150 l 6,121,122
 574 -150 574 -150 584.5 -139.5 c 132,-1,123
 595 -129 595 -129 595 -114 c 5,124,125
 595 -114 595 -114 595 -114 c 5,126,-1
 595 814 l 5,127,128
 595 814 595 814 595 814 c 5,129,130
 595 829 595 829 584.5 839.5 c 132,-1,131
 574 850 574 850 559 850 c 5,132,-1
 559 850 l 5,108,-1
38 -113 m 5,133,-1
 38 813 l 5,134,-1
 559 813 l 5,135,-1
 559 -113 l 5,136,-1
 38 -113 l 5,133,-1
EndSplineSet
EndChar

StartChar: apri_hover
Encoding: 59659 59659 5
Width: 1000
Flags: W
LayerCount: 2
Fore
SplineSet
0 811 m 1,0,-1
 0 357 l 2,1,2
 0 341 0 341 11.5 329.5 c 128,-1,3
 23 318 23 318 39.5 318 c 128,-1,4
 56 318 56 318 67 329 c 2,5,-1
 243 505 l 1,6,-1
 876 -129 l 2,7,8
 886 -139 886 -139 899.5 -145 c 128,-1,9
 913 -151 913 -151 928 -151 c 0,10,11
 957 -151 957 -151 979 -129 c 1,12,-1
 979 -129 l 1,13,14
 1000 -108 1000 -108 1000 -78 c 128,-1,15
 1000 -48 1000 -48 979 -27 c 2,16,-1
 346 607 l 1,17,-1
 521 783 l 2,18,19
 532 794 532 794 532 810.5 c 128,-1,20
 532 827 532 827 520.5 838.5 c 128,-1,21
 509 850 509 850 493 850 c 2,22,-1
 39 850 l 2,23,24
 23 850 23 850 11.5 838.5 c 128,-1,25
 0 827 0 827 0 811 c 1,26,-1
 0 811 l 1,0,-1
EndSplineSet
EndChar

StartChar: apri
Encoding: 59660 59660 6
Width: 1000
Flags: W
LayerCount: 2
Fore
SplineSet
973 8 m 1,0,-1
 385 595 l 1,1,-1
 537 746 l 2,2,3
 555 764 555 764 555 789 c 128,-1,4
 555 814 555 814 537.5 832 c 128,-1,5
 520 850 520 850 495 850 c 2,6,-1
 61 850 l 2,7,8
 36 850 36 850 18 832.5 c 128,-1,9
 0 815 0 815 0 789 c 2,10,-1
 0 356 l 1,11,12
 0 356 0 356 0 356 c 1,13,14
 0 331 0 331 18 313 c 128,-1,15
 36 295 36 295 61 295 c 128,-1,16
 86 295 86 295 104 313 c 2,17,-1
 255 465 l 1,18,-1
 842 -123 l 2,19,20
 869 -150 869 -150 907.5 -150 c 128,-1,21
 946 -150 946 -150 973 -123 c 128,-1,22
 1000 -96 1000 -96 1000 -57.5 c 128,-1,23
 1000 -19 1000 -19 973 8 c 1,24,-1
 973 8 l 1,0,-1
940 -90 m 1,25,26
 928 -104 928 -104 908 -104 c 0,27,28
 899 -104 899 -104 890 -100.5 c 128,-1,29
 881 -97 881 -97 875 -90 c 2,30,-1
 255 530 l 1,31,-1
 71 346 l 2,32,33
 65 342 65 342 60 342 c 128,-1,34
 55 342 55 342 51 346 c 128,-1,35
 47 350 47 350 47 356 c 2,36,-1
 47 789 l 2,37,38
 47 795 47 795 51 799.5 c 128,-1,39
 55 804 55 804 61 804 c 2,40,-1
 494 804 l 1,41,42
 494 804 494 804 494 804 c 1,43,44
 503 804 503 804 507 795 c 1,45,-1
 507 795 l 1,46,47
 508 793 508 793 508 789 c 128,-1,48
 508 785 508 785 504 779 c 2,49,-1
 320 595 l 1,50,-1
 940 -25 l 2,51,52
 954 -37 954 -37 954 -57.5 c 128,-1,53
 954 -78 954 -78 940 -90 c 1,54,-1
 940 -90 l 1,25,26
EndSplineSet
EndChar

StartChar: glyph-1
Encoding: 59661 59661 7
Width: 1000
Flags: W
LayerCount: 2
Fore
SplineSet
917 557 m 256,0,1
 973 444 973 444 964 319 c 0,2,3
 956 197 956 197 889 95 c 0,4,5
 820 -10 820 -10 707 -67 c 128,-1,6
 594 -124 594 -124 468 -115 c 0,7,8
 347 -106 347 -106 244 -39 c 0,9,10
 139 30 139 30 83 143.5 c 128,-1,11
 27 257 27 257 36 382 c 0,12,13
 44 504 44 504 111 606 c 0,14,15
 180 711 180 711 293 767 c 128,-1,16
 406 823 406 823 532 814 c 0,17,18
 654 806 654 806 756 739 c 0,19,20
 861 670 861 670 917 557 c 256,0,1
EndSplineSet
EndChar

StartChar: glyph-2
Encoding: 59662 59662 8
Width: 1000
Flags: W
LayerCount: 2
Fore
SplineSet
557 42 m 5,0,1
 531 21 531 21 497.5 21 c 132,-1,2
 464 21 464 21 437 43 c 5,3,-1
 438 43 l 5,4,5
 414 64 414 64 414 96 c 4,6,7
 414 112 414 112 420.5 126.5 c 132,-1,8
 427 141 427 141 439 151 c 5,9,-1
 439 151 l 5,10,11
 463 172 463 172 495 172 c 6,12,-1
 499 172 l 5,13,-1
 498 172 l 5,14,-1
 501 172 l 6,15,16
 534 172 534 172 558 151 c 5,17,-1
 558 151 l 5,18,19
 569 141 569 141 575 127 c 132,-1,20
 581 113 581 113 581 97 c 132,-1,21
 581 81 581 81 574.5 67 c 132,-1,22
 568 53 568 53 557 43 c 5,23,-1
 557 43 l 5,24,-1
 557 42 l 5,0,1
583 679 m 5,25,-1
 560 234 l 5,26,-1
 438 235 l 5,27,-1
 423 680 l 5,28,-1
 583 679 l 5,25,-1
500 -150 m 1,29,-1
 495 -150 l 2,30,31
 360 -149 360 -149 245 -80 c 0,32,33
 133 -13 133 -13 67 99 c 0,34,35
 0 215 0 215 0 350 c 0,36,37
 0 453 0 453 40 547 c 0,38,39
 79 637 79 637 150 707 c 1,40,-1
 150 707 l 1,41,42
 218 774 218 774 306 812 c 0,43,44
 398 850 398 850 497 850 c 2,45,-1
 505 850 l 2,46,47
 640 850 640 850 756 781 c 0,48,49
 868 715 868 715 934 602 c 0,50,51
 1002 485 1002 485 1002 349.5 c 128,-1,52
 1002 214 1002 214 934 98 c 0,53,54
 868 -15 868 -15 755 -82 c 0,55,56
 638 -150 638 -150 502 -150 c 2,57,-1
 500 -150 l 1,29,-1
500 780 m 2,58,59
 499 780 499 780 498 780 c 0,60,61
 381 780 381 780 281 721 c 0,62,63
 183 665 183 665 127 567 c 0,64,65
 68 467 68 467 68 350 c 128,-1,66
 68 233 68 233 126 133 c 0,67,68
 183 36 183 36 280 -21 c 0,69,70
 379 -80 379 -80 496 -80 c 1,71,-1
 496 -80 l 1,72,73
 496 -80 496 -80 496 -80 c 1,74,75
 584 -80 584 -80 663 -48 c 128,-1,76
 742 -16 742 -16 802 43 c 1,77,-1
 802 43 l 1,78,79
 863 103 863 103 896 181 c 0,80,81
 931 262 931 262 931 350 c 0,82,83
 931 466 931 466 873 566 c 0,84,85
 816 663 816 663 720 720 c 0,86,87
 620 779 620 779 504 780 c 1,88,-1
 504 780 l 1,89,-1
 500 780 l 2,58,59
EndSplineSet
EndChar

StartChar: glyph-70
Encoding: 59665 59665 9
Width: 857
Flags: W
LayerCount: 2
Fore
SplineSet
804 850 m 5,0,-1
 339 850 l 6,1,2
 317 850 317 850 301.5 834.5 c 132,-1,3
 286 819 286 819 286 797 c 6,4,-1
 286 683 l 5,5,-1
 54 683 l 6,6,7
 32 683 32 683 16 667.5 c 132,-1,8
 0 652 0 652 0 630 c 6,9,-1
 0 -150 l 5,10,-1
 857 -150 l 5,11,-1
 857 797 l 6,12,13
 857 819 857 819 841.5 834.5 c 132,-1,14
 826 850 826 850 804 850 c 5,15,-1
 804 850 l 5,0,-1
366 -114 m 5,16,-1
 205 -114 l 5,17,-1
 205 106 l 6,18,19
 205 112 205 112 209.5 116.5 c 132,-1,20
 214 121 214 121 220 121 c 6,21,-1
 351 121 l 6,22,23
 357 121 357 121 361.5 116.5 c 132,-1,24
 366 112 366 112 366 106 c 5,25,-1
 366 106 l 5,26,-1
 366 -114 l 5,16,-1
536 -114 m 5,27,-1
 384 -114 l 5,28,-1
 384 106 l 6,29,30
 384 120 384 120 374.5 129.5 c 132,-1,31
 365 139 365 139 351 139 c 6,32,-1
 220 139 l 6,33,34
 207 139 207 139 197.5 129.5 c 132,-1,35
 188 120 188 120 188 106 c 6,36,-1
 188 -114 l 5,37,-1
 36 -114 l 5,38,-1
 36 630 l 6,39,40
 36 638 36 638 41.5 643 c 132,-1,41
 47 648 47 648 54 648 c 6,42,-1
 518 648 l 6,43,44
 526 648 526 648 531 643 c 132,-1,45
 536 638 536 638 536 630 c 5,46,47
 536 630 536 630 536 630 c 5,48,-1
 536 630 l 5,49,-1
 536 -114 l 5,27,-1
822 -114 m 5,50,-1
 572 -114 l 5,51,-1
 572 630 l 6,52,53
 571 652 571 652 555.5 667.5 c 132,-1,54
 540 683 540 683 518 683 c 6,55,-1
 322 683 l 5,56,-1
 322 797 l 5,57,58
 322 797 322 797 322 797 c 5,59,60
 322 804 322 804 327 809 c 132,-1,61
 332 814 332 814 339 814 c 6,62,-1
 804 814 l 6,63,64
 811 814 811 814 816 809 c 132,-1,65
 821 804 821 804 822 797 c 5,66,-1
 822 797 l 5,67,-1
 822 -114 l 5,50,-1
732 17 m 1,68,-1
 613 17 l 1,69,70
 613 17 613 17 613 17 c 1,71,72
 606 17 606 17 600.5 22 c 128,-1,73
 595 27 595 27 595 34 c 2,74,-1
 595 94 l 1,75,76
 595 94 595 94 595 94 c 1,77,78
 595 102 595 102 600.5 107 c 128,-1,79
 606 112 606 112 613 112 c 1,80,81
 613 112 613 112 613 112 c 1,82,-1
 732 112 l 2,83,84
 740 112 740 112 745 107 c 128,-1,85
 750 102 750 102 750 94 c 2,86,-1
 750 35 l 2,87,88
 750 28 750 28 745 22.5 c 128,-1,89
 740 17 740 17 732 17 c 1,90,-1
 732 17 l 1,68,-1
613 100 m 2,91,92
 611 100 611 100 609 98 c 128,-1,93
 607 96 607 96 607 94 c 2,94,-1
 607 35 l 2,95,96
 607 29 607 29 613 29 c 2,97,-1
 732 29 l 2,98,99
 738 29 738 29 738 35 c 2,100,-1
 738 94 l 2,101,102
 738 96 738 96 736 98 c 128,-1,103
 734 100 734 100 732 100 c 1,104,-1
 732 100 l 1,105,-1
 613 100 l 2,91,92
732 600 m 1,106,-1
 613 600 l 1,107,108
 613 600 613 600 613 600 c 1,109,110
 606 600 606 600 600.5 605.5 c 128,-1,111
 595 611 595 611 595 618 c 1,112,113
 595 618 595 618 595 618 c 1,114,-1
 595 678 l 2,115,116
 595 685 595 685 600.5 690 c 128,-1,117
 606 695 606 695 613 695 c 1,118,119
 613 695 613 695 613 695 c 1,120,-1
 732 695 l 2,121,122
 740 695 740 695 745 690 c 128,-1,123
 750 685 750 685 750 677 c 2,124,-1
 750 618 l 2,125,126
 750 611 750 611 745 605.5 c 128,-1,127
 740 600 740 600 732 600 c 1,128,-1
 732 600 l 1,106,-1
613 683 m 2,129,130
 607 683 607 683 607 677 c 2,131,-1
 607 618 l 2,132,133
 607 616 607 616 609 614 c 128,-1,134
 611 612 611 612 613 612 c 2,135,-1
 732 612 l 2,136,137
 734 612 734 612 736 614 c 128,-1,138
 738 616 738 616 738 618 c 2,139,-1
 738 677 l 2,140,141
 738 683 738 683 732 683 c 1,142,-1
 732 683 l 1,143,-1
 613 683 l 2,129,130
470 243 m 1,144,-1
 351 243 l 1,145,146
 351 243 351 243 351 243 c 1,147,148
 344 243 344 243 338.5 248.5 c 128,-1,149
 333 254 333 254 333 261 c 1,150,151
 333 261 333 261 333 261 c 1,152,-1
 333 320 l 2,153,154
 333 328 333 328 338.5 333 c 128,-1,155
 344 338 344 338 351 338 c 2,156,-1
 470 338 l 2,157,158
 478 338 478 338 483 333 c 128,-1,159
 488 328 488 328 488 320 c 2,160,-1
 488 261 l 2,161,162
 488 254 488 254 483 248.5 c 128,-1,163
 478 243 478 243 470 243 c 1,164,165
 470 243 470 243 470 243 c 1,166,-1
 470 243 l 1,144,-1
351 326 m 2,167,168
 345 326 345 326 345 320 c 2,169,-1
 345 261 l 2,170,171
 345 255 345 255 351 255 c 1,172,173
 351 255 351 255 351 255 c 1,174,-1
 470 255 l 1,175,176
 470 255 470 255 470 255 c 1,177,178
 476 255 476 255 476 261 c 2,179,-1
 476 320 l 2,180,181
 476 326 476 326 470 326 c 1,182,-1
 470 326 l 1,183,-1
 351 326 l 2,167,168
220 243 m 1,184,-1
 101 243 l 1,185,186
 101 243 101 243 101 243 c 1,187,188
 94 243 94 243 88.5 248.5 c 128,-1,189
 83 254 83 254 83 261 c 1,190,191
 83 261 83 261 83 261 c 1,192,-1
 83 320 l 2,193,194
 83 328 83 328 88.5 333 c 128,-1,195
 94 338 94 338 101 338 c 2,196,-1
 220 338 l 2,197,198
 228 338 228 338 233 333 c 128,-1,199
 238 328 238 328 238 320 c 2,200,-1
 238 261 l 2,201,202
 238 254 238 254 233 248.5 c 128,-1,203
 228 243 228 243 220 243 c 1,204,205
 220 243 220 243 220 243 c 1,206,-1
 220 243 l 1,184,-1
101 326 m 2,207,208
 95 326 95 326 95 320 c 2,209,-1
 95 261 l 2,210,211
 95 255 95 255 101 255 c 1,212,213
 101 255 101 255 101 255 c 1,214,-1
 220 255 l 1,215,216
 220 255 220 255 220 255 c 1,217,218
 226 255 226 255 226 261 c 2,219,-1
 226 320 l 2,220,221
 226 326 226 326 220 326 c 1,222,-1
 220 326 l 1,223,-1
 101 326 l 2,207,208
220 445 m 1,224,-1
 101 445 l 2,225,226
 94 445 94 445 88.5 450.5 c 128,-1,227
 83 456 83 456 83 463 c 2,228,-1
 83 523 l 1,229,230
 83 523 83 523 83 523 c 1,231,232
 83 530 83 530 88 535 c 128,-1,233
 93 540 93 540 101 540 c 1,234,235
 101 540 101 540 101 540 c 1,236,-1
 220 540 l 1,237,238
 220 540 220 540 220 540 c 1,239,240
 228 540 228 540 233 535 c 128,-1,241
 238 530 238 530 238 523 c 2,242,-1
 238 463 l 2,243,244
 238 456 238 456 233 450.5 c 128,-1,245
 228 445 228 445 220 445 c 1,246,-1
 220 445 l 1,224,-1
101 529 m 1,247,248
 101 529 101 529 101 529 c 1,249,250
 99 529 99 529 97 527 c 128,-1,251
 95 525 95 525 95 523 c 2,252,-1
 95 463 l 2,253,254
 95 461 95 461 97 459 c 128,-1,255
 99 457 99 457 101 457 c 2,256,-1
 220 457 l 2,257,258
 226 457 226 457 226 463 c 2,259,-1
 226 523 l 2,260,261
 226 529 226 529 220 529 c 1,262,263
 220 529 220 529 220 529 c 1,264,-1
 220 529 l 1,265,-1
 101 529 l 1,247,248
732 398 m 1,266,-1
 613 398 l 1,267,268
 613 398 613 398 613 398 c 1,269,270
 606 398 606 398 600.5 403 c 128,-1,271
 595 408 595 408 595 415 c 1,272,273
 595 415 595 415 595 415 c 1,274,-1
 595 475 l 2,275,276
 595 483 595 483 600.5 488 c 128,-1,277
 606 493 606 493 613 493 c 2,278,-1
 732 493 l 2,279,280
 740 493 740 493 745 488 c 128,-1,281
 750 483 750 483 750 475 c 2,282,-1
 750 415 l 2,283,284
 750 408 750 408 744.5 403 c 128,-1,285
 739 398 739 398 732 398 c 1,286,287
 732 398 732 398 732 398 c 1,288,-1
 732 398 l 1,266,-1
613 481 m 2,289,290
 611 481 611 481 609 479 c 128,-1,291
 607 477 607 477 607 475 c 2,292,-1
 607 415 l 2,293,294
 607 413 607 413 609 411.5 c 128,-1,295
 611 410 611 410 613 410 c 1,296,297
 613 410 613 410 613 410 c 1,298,-1
 732 410 l 1,299,300
 732 410 732 410 732 410 c 1,301,302
 734 410 734 410 736 411.5 c 128,-1,303
 738 413 738 413 738 415 c 2,304,-1
 738 475 l 2,305,306
 738 477 738 477 736 479 c 128,-1,307
 734 481 734 481 732 481 c 1,308,-1
 732 481 l 1,309,-1
 613 481 l 2,289,290
EndSplineSet
EndChar

StartChar: attivo
Encoding: 59674 59674 10
Width: 1000
Flags: W
LayerCount: 2
Fore
SplineSet
500 850 m 1,0,1
 364 850 364 850 248 782 c 0,2,3
 135 715 135 715 68 602 c 0,4,5
 0 486 0 486 0 350 c 128,-1,6
 0 214 0 214 68 98 c 0,7,8
 135 -15 135 -15 248 -82 c 0,9,10
 364 -150 364 -150 500 -150 c 128,-1,11
 636 -150 636 -150 752 -82 c 0,12,13
 865 -15 865 -15 932 98 c 0,14,15
 1000 214 1000 214 1000 350 c 1,16,-1
 1000 350 l 1,17,18
 1000 486 1000 486 932 602 c 0,19,20
 865 715 865 715 752 782 c 0,21,22
 636 850 636 850 500 850 c 1,23,-1
 500 850 l 1,0,1
758 459 m 1,24,-1
 461 161 l 2,25,26
 453 153 453 153 443 153 c 1,27,-1
 443 153 l 1,28,29
 430 155 430 155 424 161 c 2,30,-1
 271 315 l 2,31,32
 264 326 264 326 264 337 c 0,33,34
 264 354 264 354 276.5 366.5 c 128,-1,35
 289 379 289 379 306 379 c 0,36,37
 317 379 317 379 329 372 c 1,38,-1
 328 372 l 1,39,-1
 443 258 l 1,40,-1
 701 517 l 2,41,42
 712 528 712 528 729 528 c 128,-1,43
 746 528 746 528 758 516 c 128,-1,44
 770 504 770 504 771 487 c 1,45,-1
 771 487 l 1,46,47
 771 470 771 470 758 459 c 1,48,-1
 758 459 l 1,24,-1
EndSplineSet
EndChar

StartChar: azienda_hover
Encoding: 59675 59675 11
Width: 1322
Flags: W
LayerCount: 2
Fore
SplineSet
1295 -61 m 1,0,-1
 1212 -61 l 1,1,-1
 1212 597 l 2,2,3
 1212 604 1212 604 1207 609.5 c 128,-1,4
 1202 615 1202 615 1195 615 c 1,5,-1
 1195 615 l 1,6,7
 1189 615 1189 615 1182 610 c 2,8,-1
 923 365 l 1,9,-1
 923 597 l 2,10,11
 923 604 923 604 918 609.5 c 128,-1,12
 913 615 913 615 906 615 c 2,13,-1
 905 615 l 2,14,15
 898 615 898 615 893 610 c 2,16,-1
 634 365 l 1,17,-1
 634 595 l 2,18,19
 634 606 634 606 622 611 c 1,20,-1
 622 611 l 1,21,22
 620 612 620 612 616 612 c 0,23,24
 608 612 608 612 603 606 c 2,25,-1
 387 364 l 1,26,-1
 387 834 l 2,27,28
 387 841 387 841 382 846 c 128,-1,29
 377 851 377 851 370 851 c 1,30,31
 370 851 370 851 370 851 c 1,32,-1
 128 851 l 1,33,34
 128 851 128 851 128 851 c 1,35,36
 121 851 121 851 115.5 846 c 128,-1,37
 110 841 110 841 110 834 c 2,38,-1
 110 -61 l 1,39,-1
 28 -61 l 2,40,41
 16 -61 16 -61 8 -69 c 128,-1,42
 0 -77 0 -77 0 -89 c 2,43,-1
 0 -123 l 2,44,45
 0 -134 0 -134 8 -142 c 128,-1,46
 16 -150 16 -150 28 -150 c 2,47,-1
 1295 -150 l 2,48,49
 1306 -150 1306 -150 1314 -142 c 128,-1,50
 1322 -134 1322 -134 1322 -123 c 2,51,-1
 1322 -86 l 2,52,53
 1321 -76 1321 -76 1313.5 -68.5 c 128,-1,54
 1306 -61 1306 -61 1295 -61 c 1,55,56
 1295 -61 1295 -61 1295 -61 c 1,57,-1
 1295 -61 l 1,0,-1
1107 236 m 1,58,-1
 1107 130 l 1,59,-1
 1001 130 l 1,60,-1
 1001 236 l 1,61,-1
 1107 236 l 1,58,-1
843 236 m 1,62,-1
 843 130 l 1,63,-1
 737 130 l 1,64,-1
 737 236 l 1,65,-1
 843 236 l 1,62,-1
565 236 m 1,66,-1
 565 130 l 1,67,-1
 459 130 l 1,68,-1
 459 236 l 1,69,-1
 565 236 l 1,66,-1
EndSplineSet
EndChar

StartChar: glyph-4
Encoding: 59676 59676 12
Width: 1000
Flags: W
LayerCount: 2
Fore
SplineSet
748 263 m 5,0,-1
 834 263 l 5,1,-1
 834 177 l 5,2,-1
 748 177 l 5,3,-1
 748 263 l 5,0,-1
552 263 m 1,4,-1
 639 263 l 1,5,-1
 639 177 l 1,6,-1
 552 177 l 1,7,-1
 552 263 l 1,4,-1
346 263 m 1,8,-1
 433 263 l 1,9,-1
 433 177 l 1,10,-1
 346 177 l 1,11,-1
 346 263 l 1,8,-1
970 -34 m 1,12,-1
 30 -34 l 1,13,14
 30 -34 30 -34 30 -34 c 1,15,16
 17 -34 17 -34 8.5 -25.5 c 128,-1,17
 0 -17 0 -17 0 -5 c 2,18,-1
 0 20 l 2,19,20
 0 33 0 33 8.5 41.5 c 128,-1,21
 17 50 17 50 30 50 c 2,22,-1
 82 50 l 1,23,-1
 82 702 l 1,24,25
 82 702 82 702 82 702 c 1,26,27
 82 712 82 712 88.5 718.5 c 128,-1,28
 95 725 95 725 104 725 c 2,29,-1
 284 725 l 1,30,31
 284 725 284 725 284 725 c 1,32,33
 293 725 293 725 300 718.5 c 128,-1,34
 307 712 307 712 307 702 c 2,35,-1
 307 381 l 1,36,-1
 449 540 l 2,37,38
 455 548 455 548 465.5 548 c 128,-1,39
 476 548 476 548 482.5 541.5 c 128,-1,40
 489 535 489 535 489 525 c 2,41,-1
 489 378 l 1,42,-1
 664 543 l 2,43,44
 670 550 670 550 680 550 c 128,-1,45
 690 550 690 550 697 543.5 c 128,-1,46
 704 537 704 537 704 527 c 1,47,48
 704 527 704 527 704 527 c 1,49,-1
 704 378 l 1,50,-1
 879 543 l 2,51,52
 886 550 886 550 895 550 c 128,-1,53
 904 550 904 550 911 543.5 c 128,-1,54
 918 537 918 537 918 527 c 2,55,-1
 918 50 l 1,56,-1
 970 50 l 1,57,58
 970 50 970 50 970 50 c 1,59,60
 983 50 983 50 991.5 41.5 c 128,-1,61
 1000 33 1000 33 1000 20 c 2,62,-1
 1000 -5 l 2,63,64
 1000 -17 1000 -17 991.5 -25.5 c 128,-1,65
 983 -34 983 -34 970 -34 c 1,66,67
 970 -34 970 -34 970 -34 c 1,68,-1
 970 -34 l 1,12,-1
30 22 m 2,69,70
 28 22 28 22 28 20 c 2,71,-1
 28 -5 l 2,72,73
 28 -7 28 -7 29 -7 c 128,-1,74
 30 -7 30 -7 30 -7 c 1,75,-1
 970 -7 l 1,76,77
 970 -7 970 -7 971 -7 c 128,-1,78
 972 -7 972 -7 972 -5 c 2,79,-1
 972 22 l 1,80,-1
 891 22 l 1,81,-1
 891 516 l 1,82,-1
 706 342 l 2,83,84
 701 337 701 337 694 337 c 128,-1,85
 687 337 687 337 682 342 c 128,-1,86
 677 347 677 347 677 355 c 1,87,88
 677 355 677 355 677 355 c 1,89,-1
 677 516 l 1,90,-1
 492 342 l 2,91,92
 487 337 487 337 480 337 c 128,-1,93
 473 337 473 337 467.5 342.5 c 128,-1,94
 462 348 462 348 462 355 c 1,95,96
 462 355 462 355 462 355 c 1,97,-1
 462 512 l 1,98,-1
 310 342 l 2,99,100
 306 336 306 336 298 336 c 128,-1,101
 290 336 290 336 285 341 c 128,-1,102
 280 346 280 346 280 354 c 1,103,104
 280 354 280 354 280 354 c 1,105,-1
 280 697 l 1,106,-1
 109 697 l 1,107,-1
 109 22 l 1,108,-1
 30 22 l 2,69,70
EndSplineSet
EndChar

StartChar: calendario_hover
Encoding: 59680 59680 13
Width: 892
Flags: W
LayerCount: 2
Fore
SplineSet
833 743 m 5,0,-1
 60 743 l 6,1,2
 35 743 35 743 17.5 725.5 c 132,-1,3
 0 708 0 708 0 683 c 6,4,-1
 0 429 l 6,5,6
 0 412 0 412 12.5 399.5 c 132,-1,7
 25 387 25 387 42 387 c 6,8,-1
 851 387 l 6,9,10
 868 387 868 387 880 399.5 c 132,-1,11
 892 412 892 412 892 429 c 6,12,-1
 892 683 l 6,13,14
 892 708 892 708 874.5 725.5 c 132,-1,15
 857 743 857 743 833 743 c 5,16,-1
 833 743 l 5,0,-1
48 683 m 6,17,18
 48 688 48 688 51.5 691.5 c 132,-1,19
 55 695 55 695 60 695 c 6,20,-1
 833 695 l 6,21,22
 838 695 838 695 841 691.5 c 132,-1,23
 844 688 844 688 844 683 c 6,24,-1
 844 435 l 5,25,-1
 48 435 l 5,26,-1
 48 683 l 6,17,18
833 743 m 1,27,-1
 60 743 l 2,28,29
 35 743 35 743 17.5 725.5 c 128,-1,30
 0 708 0 708 0 683 c 2,31,-1
 0 -90 l 1,32,33
 0 -90 0 -90 0 -90 c 1,34,35
 0 -115 0 -115 17.5 -132.5 c 128,-1,36
 35 -150 35 -150 60 -150 c 2,37,-1
 833 -150 l 2,38,39
 858 -150 858 -150 875 -132.5 c 128,-1,40
 892 -115 892 -115 893 -90 c 2,41,-1
 893 683 l 2,42,43
 892 708 892 708 875 725.5 c 128,-1,44
 858 743 858 743 833 743 c 1,45,-1
 833 743 l 1,27,-1
48 683 m 2,46,47
 48 688 48 688 51.5 691.5 c 128,-1,48
 55 695 55 695 60 695 c 2,49,-1
 833 695 l 2,50,51
 838 695 838 695 841 691.5 c 128,-1,52
 844 688 844 688 844 683 c 2,53,-1
 844 -90 l 2,54,55
 844 -94 844 -94 841 -97.5 c 128,-1,56
 838 -101 838 -101 833 -101 c 2,57,-1
 60 -101 l 2,58,59
 55 -101 55 -101 51.5 -98 c 128,-1,60
 48 -95 48 -95 48 -90 c 1,61,-1
 48 -90 l 1,62,-1
 48 683 l 2,46,47
535 850 m 1,63,-1
 535 703 l 1,64,-1
 584 703 l 1,65,-1
 584 802 l 1,66,-1
 594 802 l 1,67,-1
 594 703 l 1,68,-1
 642 703 l 1,69,-1
 642 850 l 1,70,-1
 535 850 l 1,63,-1
228 703 m 1,71,-1
 276 703 l 1,72,-1
 276 795 l 1,73,-1
 286 795 l 1,74,-1
 286 703 l 1,75,-1
 334 703 l 1,76,-1
 334 843 l 1,77,-1
 228 843 l 1,78,-1
 228 703 l 1,71,-1
183 739 m 1,79,-1
 243 739 l 1,80,-1
 243 721 l 1,81,-1
 183 721 l 1,82,-1
 183 739 l 1,79,-1
833 743 m 1,83,-1
 653 743 l 1,84,-1
 653 850 l 1,85,-1
 547 850 l 1,86,-1
 547 743 l 1,87,-1
 346 743 l 1,88,-1
 346 843 l 1,89,-1
 239 843 l 1,90,-1
 239 743 l 1,91,-1
 60 743 l 2,92,93
 35 743 35 743 17.5 725.5 c 128,-1,94
 0 708 0 708 0 683 c 2,95,-1
 0 -90 l 1,96,97
 0 -90 0 -90 0 -90 c 1,98,99
 0 -115 0 -115 17.5 -132.5 c 128,-1,100
 35 -150 35 -150 60 -150 c 2,101,-1
 833 -150 l 2,102,103
 858 -150 858 -150 875 -132.5 c 128,-1,104
 892 -115 892 -115 893 -90 c 2,105,-1
 893 683 l 2,106,107
 892 708 892 708 875 725.5 c 128,-1,108
 858 743 858 743 833 743 c 1,109,-1
 833 743 l 1,83,-1
595 802 m 1,110,-1
 605 802 l 1,111,-1
 605 743 l 1,112,-1
 595 743 l 1,113,-1
 595 802 l 1,110,-1
288 795 m 1,114,-1
 297 795 l 1,115,-1
 297 743 l 1,116,-1
 288 743 l 1,117,-1
 288 795 l 1,114,-1
833 -101 m 1,118,-1
 60 -101 l 2,119,120
 55 -101 55 -101 51.5 -98 c 128,-1,121
 48 -95 48 -95 48 -90 c 2,122,-1
 48 387 l 1,123,-1
 844 387 l 1,124,-1
 844 -90 l 2,125,126
 844 -95 844 -95 841 -98.5 c 128,-1,127
 838 -102 838 -102 833 -102 c 1,128,-1
 833 -102 l 1,129,-1
 833 -101 l 1,118,-1
EndSplineSet
EndChar

StartChar: cancella_hover
Encoding: 59686 59686 14
Width: 1000
Flags: W
LayerCount: 2
Fore
SplineSet
0 -72 m 1,0,1
 0 -72 0 -72 0 -72 c 1,2,3
 0 -104 0 -104 23 -127 c 128,-1,4
 46 -150 46 -150 77.5 -150 c 128,-1,5
 109 -150 109 -150 134 -127 c 2,6,-1
 505 245 l 1,7,-1
 866 -116 l 2,8,9
 889 -137 889 -137 920.5 -137 c 128,-1,10
 952 -137 952 -137 975 -114 c 128,-1,11
 998 -91 998 -91 998 -60 c 128,-1,12
 998 -29 998 -29 977 -6 c 2,13,-1
 616 355 l 1,14,-1
 966 706 l 2,15,16
 987 729 987 729 987 760 c 128,-1,17
 987 791 987 791 964 814 c 128,-1,18
 941 837 941 837 910 837 c 128,-1,19
 879 837 879 837 856 816 c 2,20,-1
 505 466 l 1,21,-1
 144 827 l 2,22,23
 121 848 121 848 90 848 c 128,-1,24
 59 848 59 848 36 825 c 128,-1,25
 13 802 13 802 13 770.5 c 128,-1,26
 13 739 13 739 34 716 c 1,27,-1
 34 717 l 1,28,-1
 395 355 l 1,29,-1
 23 -16 l 2,30,31
 0 -41 0 -41 0 -72 c 1,32,33
 0 -72 0 -72 0 -72 c 1,34,-1
 0 -72 l 1,0,1
EndSplineSet
EndChar

StartChar: cancella
Encoding: 59687 59687 15
Width: 1000
Flags: W
LayerCount: 2
Fore
SplineSet
123 -150 m 1,0,1
 123 -150 123 -150 123 -150 c 1,2,3
 93 -150 93 -150 67 -134.5 c 128,-1,4
 41 -119 41 -119 25.5 -93 c 128,-1,5
 10 -67 10 -67 10 -37 c 0,6,7
 10 11 10 11 43 44 c 2,8,-1
 345 345 l 1,9,-1
 33 657 l 2,10,11
 18 672 18 672 9 693 c 128,-1,12
 0 714 0 714 0 737 c 0,13,14
 0 767 0 767 15.5 793 c 128,-1,15
 31 819 31 819 57 834.5 c 128,-1,16
 83 850 83 850 113 850 c 0,17,18
 159 850 159 850 194 817 c 2,19,-1
 505 505 l 1,20,-1
 807 807 l 2,21,22
 840 838 840 838 885 838 c 0,23,24
 916 838 916 838 941.5 823 c 128,-1,25
 967 808 967 808 982.5 782 c 128,-1,26
 998 756 998 756 998 725 c 0,27,28
 998 703 998 703 990 682.5 c 128,-1,29
 982 662 982 662 967 647 c 2,30,-1
 665 345 l 1,31,-1
 957 53 l 2,32,33
 973 38 973 38 981.5 17 c 128,-1,34
 990 -4 990 -4 990 -27 c 128,-1,35
 990 -50 990 -50 981.5 -71 c 128,-1,36
 973 -92 973 -92 957 -107 c 1,37,-1
 957 -107 l 1,38,39
 942 -123 942 -123 921 -131.5 c 128,-1,40
 900 -140 900 -140 877 -140 c 128,-1,41
 854 -140 854 -140 833 -131.5 c 128,-1,42
 812 -123 812 -123 797 -107 c 2,43,-1
 505 185 l 1,44,-1
 203 -117 l 2,45,46
 188 -132 188 -132 167 -141 c 128,-1,47
 146 -150 146 -150 123 -150 c 1,48,49
 123 -150 123 -150 123 -150 c 1,50,-1
 123 -150 l 1,0,1
113 808 m 1,51,52
 113 808 113 808 113 808 c 1,53,54
 84 808 84 808 63 787 c 128,-1,55
 42 766 42 766 42 736.5 c 128,-1,56
 42 707 42 707 63 686 c 2,57,-1
 403 345 l 1,58,-1
 72 14 l 2,59,60
 51 -7 51 -7 51 -36.5 c 128,-1,61
 51 -66 51 -66 72 -87 c 128,-1,62
 93 -108 93 -108 123 -108 c 128,-1,63
 153 -108 153 -108 174 -87 c 2,64,-1
 505 244 l 1,65,-1
 826 -78 l 2,66,67
 847 -99 847 -99 876.5 -99 c 128,-1,68
 906 -99 906 -99 927.5 -78 c 128,-1,69
 949 -57 949 -57 949 -27 c 128,-1,70
 949 3 949 3 928 24 c 2,71,-1
 606 345 l 1,72,-1
 937 676 l 2,73,74
 958 697 958 697 958 727 c 128,-1,75
 958 757 958 757 937 778 c 128,-1,76
 916 799 916 799 886.5 799 c 128,-1,77
 857 799 857 799 836 778 c 2,78,-1
 505 447 l 1,79,-1
 164 787 l 2,80,81
 143 808 143 808 114 808 c 2,82,-1
 113 808 l 1,51,52
EndSplineSet
EndChar

StartChar: cerca_hover
Encoding: 59688 59688 16
Width: 1000
Flags: W
LayerCount: 2
Fore
SplineSet
982 -42 m 1,0,-1
 714 225 l 2,1,2
 705 234 705 234 693 234 c 1,3,-1
 693 234 l 1,4,5
 683 234 683 234 675 228 c 1,6,-1
 630 272 l 1,7,8
 668 319 668 319 689 376 c 0,9,10
 711 435 711 435 711 497 c 0,11,12
 711 593 711 593 663 676 c 0,13,14
 616 756 616 756 535 804 c 0,15,16
 453 852 453 852 357 852 c 0,17,18
 284 852 284 852 217 823 c 0,19,20
 153 796 153 796 104 746 c 1,21,-1
 104 746 l 1,22,23
 57 697 57 697 32 635 c 0,24,25
 5 570 5 570 5 500 c 0,26,27
 5 404 5 404 53 321 c 0,28,29
 100 241 100 241 180 194 c 0,30,31
 263 146 263 146 359 146 c 0,32,33
 419 146 419 146 475 165.5 c 128,-1,34
 531 185 531 185 578 221 c 1,35,-1
 577 221 l 1,36,-1
 622 176 l 1,37,38
 616 169 616 169 616 158 c 0,39,40
 616 144 616 144 625 136 c 2,41,-1
 892 -132 l 2,42,43
 910 -150 910 -150 935 -150 c 128,-1,44
 960 -150 960 -150 978 -132 c 2,45,-1
 982 -128 l 2,46,47
 1000 -110 1000 -110 1000 -85 c 128,-1,48
 1000 -60 1000 -60 982 -42 c 1,49,-1
 982 -42 l 1,0,-1
563 288 m 1,50,51
 522 247 522 247 468 224 c 128,-1,52
 414 201 414 201 354 201 c 0,53,54
 274 201 274 201 206 241 c 0,55,56
 139 280 139 280 100 347 c 0,57,58
 60 416 60 416 60 496 c 128,-1,59
 60 576 60 576 100 645 c 0,60,61
 139 711 139 711 206 750 c 0,62,63
 274 790 274 790 354 790 c 0,64,65
 415 790 415 790 468.5 767.5 c 128,-1,66
 522 745 522 745 563 704 c 1,67,-1
 563 704 l 1,68,69
 604 664 604 664 627 610 c 128,-1,70
 650 556 650 556 650 496 c 128,-1,71
 650 436 650 436 627 382 c 128,-1,72
 604 328 604 328 563 288 c 1,73,-1
 563 288 l 1,50,51
EndSplineSet
EndChar

StartChar: glyph-8
Encoding: 59689 59689 17
Width: 1000
Flags: W
LayerCount: 2
Fore
SplineSet
578 711 m 5,0,1
 535 754 535 754 479 777.5 c 132,-1,2
 423 801 423 801 360 801 c 4,3,4
 276 801 276 801 204 759 c 4,5,6
 133 718 133 718 92 648 c 4,7,8
 50 576 50 576 50 492 c 132,-1,9
 50 408 50 408 92 336 c 4,10,11
 133 266 133 266 204 225 c 4,12,13
 276 183 276 183 360 183 c 4,14,15
 423 183 423 183 479 206.5 c 132,-1,16
 535 230 535 230 578 273 c 5,17,-1
 578 273 l 5,18,19
 621 316 621 316 644.5 372.5 c 132,-1,20
 668 429 668 429 668 492 c 132,-1,21
 668 555 668 555 644.5 611.5 c 132,-1,22
 621 668 621 668 578 711 c 5,23,-1
 578 711 l 5,0,1
165 299 m 5,24,25
 127 337 127 337 107 386 c 4,26,27
 85 437 85 437 85 492 c 4,28,29
 85 566 85 566 122 630 c 4,30,31
 159 692 159 692 221.5 728.5 c 132,-1,32
 284 765 284 765 358 765 c 132,-1,33
 432 765 432 765 494.5 728.5 c 132,-1,34
 557 692 557 692 594 630 c 4,35,36
 631 566 631 566 631 492 c 4,37,38
 631 437 631 437 610 387 c 132,-1,39
 589 337 589 337 551 299 c 5,40,-1
 551 299 l 5,41,42
 513 261 513 261 465 241 c 4,43,44
 414 219 414 219 358.5 219 c 132,-1,45
 303 219 303 219 253 240 c 132,-1,46
 203 261 203 261 165 299 c 5,47,-1
 165 299 l 5,24,25
611 745 m 1,48,49
 562 795 562 795 496.5 822.5 c 128,-1,50
 431 850 431 850 358 850 c 0,51,52
 261 850 261 850 177 801 c 0,53,54
 96 754 96 754 49 673 c 0,55,56
 0 589 0 589 0 492 c 128,-1,57
 0 395 0 395 49 311 c 0,58,59
 96 230 96 230 177 183 c 0,60,61
 261 134 261 134 358 134 c 0,62,63
 431 134 431 134 496.5 161.5 c 128,-1,64
 562 189 562 189 611 239 c 1,65,-1
 611 239 l 1,66,67
 661 289 661 289 688 353 c 0,68,69
 716 419 716 419 716 492 c 128,-1,70
 716 565 716 565 688 631 c 0,71,72
 661 695 661 695 611 745 c 1,73,-1
 611 745 l 1,48,49
358 171 m 2,74,75
 271 171 271 171 196 215 c 0,76,77
 124 257 124 257 82 330 c 0,78,79
 38 404 38 404 38 491 c 128,-1,80
 38 578 38 578 82 653 c 0,81,82
 124 726 124 726 196 768 c 0,83,84
 271 812 271 812 358 812 c 128,-1,85
 445 812 445 812 520 768 c 0,86,87
 593 726 593 726 635 653 c 0,88,89
 679 578 679 578 679 491 c 0,90,91
 679 426 679 426 654 367 c 0,92,93
 629 309 629 309 585 265 c 1,94,-1
 585 265 l 1,95,96
 541 221 541 221 483 196 c 0,97,98
 424 171 424 171 359 171 c 2,99,-1
 358 171 l 2,74,75
979 -21 m 1,100,-1
 718 239 l 2,101,102
 705 252 705 252 687 252 c 0,103,104
 683 252 683 252 675 250 c 2,105,-1
 672 249 l 1,106,-1
 620 301 l 1,107,-1
 550 230 l 1,108,-1
 601 178 l 1,109,110
 599 170 599 170 599 163 c 0,111,112
 599 144 599 144 611 132 c 2,113,-1
 871 -129 l 2,114,115
 881 -139 881 -139 894.5 -144.5 c 128,-1,116
 908 -150 908 -150 923 -150 c 0,117,118
 953 -150 953 -150 974 -129 c 2,119,-1
 978 -125 l 2,120,121
 1000 -105 1000 -105 1000 -73 c 0,122,123
 1000 -58 1000 -58 994.5 -44.5 c 128,-1,124
 989 -31 989 -31 979 -21 c 1,125,-1
 979 -21 l 1,100,-1
952 -98 m 1,126,-1
 949 -102 l 2,127,128
 937 -112 937 -112 923.5 -112 c 128,-1,129
 910 -112 910 -112 898 -102 c 2,130,-1
 638 159 l 2,131,132
 636 161 636 161 636 163 c 128,-1,133
 636 165 636 165 638 167 c 2,134,-1
 652 181 l 1,135,-1
 603 230 l 1,136,-1
 621 248 l 1,137,-1
 670 199 l 1,138,-1
 684 213 l 2,139,140
 685 214 685 214 688 214 c 128,-1,141
 691 214 691 214 692 213 c 2,142,-1
 952 -48 l 2,143,144
 963 -59 963 -59 963 -73.5 c 128,-1,145
 963 -88 963 -88 952 -99 c 1,146,-1
 952 -99 l 1,147,-1
 952 -98 l 1,126,-1
EndSplineSet
EndChar

StartChar: cestino_hover
Encoding: 59692 59692 18
Width: 691
Flags: W
LayerCount: 2
Fore
SplineSet
674 748 m 1,0,-1
 517 748 l 1,1,-1
 517 818 l 2,2,3
 517 832 517 832 508 841 c 128,-1,4
 499 850 499 850 485 850 c 2,5,-1
 206 850 l 2,6,7
 193 850 193 850 184 840.5 c 128,-1,8
 175 831 175 831 175 818 c 2,9,-1
 175 748 l 1,10,-1
 17 748 l 2,11,12
 10 748 10 748 5 743 c 128,-1,13
 0 738 0 738 0 731 c 2,14,-1
 0 645 l 2,15,16
 0 638 0 638 5 633 c 128,-1,17
 10 628 10 628 17 628 c 2,18,-1
 674 628 l 2,19,20
 682 628 682 628 686.5 633 c 128,-1,21
 691 638 691 638 691 645 c 2,22,-1
 691 731 l 2,23,24
 691 739 691 739 686.5 743.5 c 128,-1,25
 682 748 682 748 674 748 c 1,26,-1
 674 748 l 1,0,-1
489 749 m 1,27,-1
 202 749 l 1,28,-1
 202 823 l 1,29,-1
 489 823 l 1,30,-1
 489 749 l 1,27,-1
687 587 m 1,31,32
 683 593 683 593 674 593 c 2,33,-1
 17 593 l 1,34,35
 17 593 17 593 17 593 c 1,36,37
 10 593 10 593 5 588 c 128,-1,38
 0 583 0 583 0 576 c 2,39,-1
 69 -134 l 2,40,41
 70 -141 70 -141 75 -145.5 c 128,-1,42
 80 -150 80 -150 86 -150 c 2,43,-1
 605 -150 l 1,44,45
 605 -150 605 -150 605 -150 c 1,46,47
 612 -150 612 -150 616.5 -145.5 c 128,-1,48
 621 -141 621 -141 622 -134 c 2,49,-1
 691 576 l 2,50,51
 691 581 691 581 687 587 c 1,52,-1
 687 587 l 1,31,32
212 -82 m 1,53,-1
 211 -82 l 1,54,55
 211 -82 211 -82 211 -82 c 1,56,57
 206 -82 206 -82 202 -78.5 c 128,-1,58
 198 -75 198 -75 198 -71 c 2,59,-1
 143 484 l 2,60,61
 143 489 143 489 146.5 492.5 c 128,-1,62
 150 496 150 496 154 497 c 2,63,-1
 155 497 l 2,64,65
 160 497 160 497 164 493.5 c 128,-1,66
 168 490 168 490 169 485 c 2,67,-1
 224 -69 l 2,68,69
 224 -74 224 -74 220.5 -77.5 c 128,-1,70
 217 -81 217 -81 212 -82 c 1,71,-1
 212 -82 l 1,53,-1
358 -69 m 2,72,73
 358 -74 358 -74 354 -78 c 128,-1,74
 350 -82 350 -82 345 -82 c 128,-1,75
 340 -82 340 -82 336 -78 c 128,-1,76
 332 -74 332 -74 332 -69 c 2,77,-1
 332 484 l 2,78,79
 332 489 332 489 336 493 c 128,-1,80
 340 497 340 497 345 497 c 128,-1,81
 350 497 350 497 354 493 c 128,-1,82
 358 489 358 489 358 484 c 1,83,-1
 358 484 l 1,84,-1
 358 -69 l 2,72,73
520 -70 m 2,85,86
 520 -75 520 -75 516 -78.5 c 128,-1,87
 512 -82 512 -82 507 -82 c 1,88,89
 507 -82 507 -82 507 -82 c 1,90,-1
 506 -82 l 2,91,92
 501 -81 501 -81 497.5 -77.5 c 128,-1,93
 494 -74 494 -74 494 -69 c 2,94,-1
 549 485 l 2,95,96
 553 496 553 496 563 496 c 2,97,-1
 564 496 l 2,98,99
 569 495 569 495 572.5 491.5 c 128,-1,100
 576 488 576 488 576 483 c 2,101,-1
 576 481 l 1,102,-1
 576 482 l 1,103,-1
 520 -70 l 2,85,86
EndSplineSet
EndChar

StartChar: cestino
Encoding: 59693 59693 19
Width: 691
Flags: W
LayerCount: 2
Fore
SplineSet
674 748 m 1,0,-1
 517 748 l 1,1,-1
 517 818 l 2,2,3
 517 832 517 832 508 841 c 128,-1,4
 499 850 499 850 485 850 c 2,5,-1
 206 850 l 2,6,7
 193 850 193 850 184 840.5 c 128,-1,8
 175 831 175 831 175 818 c 2,9,-1
 175 748 l 1,10,-1
 17 748 l 2,11,12
 10 748 10 748 5 743 c 128,-1,13
 0 738 0 738 0 731 c 2,14,-1
 0 645 l 2,15,16
 0 638 0 638 5 633 c 128,-1,17
 10 628 10 628 17 628 c 2,18,-1
 674 628 l 2,19,20
 682 628 682 628 686.5 633 c 128,-1,21
 691 638 691 638 691 645 c 2,22,-1
 691 731 l 2,23,24
 691 739 691 739 686.5 743.5 c 128,-1,25
 682 748 682 748 674 748 c 1,26,-1
 674 748 l 1,0,-1
210 758 m 1,27,-1
 210 814 l 1,28,-1
 481 814 l 1,29,-1
 481 758 l 1,30,-1
 210 758 l 1,27,-1
657 714 m 1,31,-1
 657 663 l 1,32,-1
 35 663 l 1,33,-1
 35 714 l 1,34,-1
 657 714 l 1,31,-1
674 593 m 1,35,-1
 17 593 l 1,36,37
 17 593 17 593 17 593 c 1,38,39
 10 593 10 593 5 588 c 128,-1,40
 0 583 0 583 0 576 c 2,41,-1
 69 -134 l 2,42,43
 70 -141 70 -141 75 -145.5 c 128,-1,44
 80 -150 80 -150 86 -150 c 2,45,-1
 605 -150 l 1,46,47
 605 -150 605 -150 605 -150 c 1,48,49
 612 -150 612 -150 616.5 -145.5 c 128,-1,50
 621 -141 621 -141 622 -134 c 2,51,-1
 691 576 l 2,52,53
 691 583 691 583 686 588 c 128,-1,54
 681 593 681 593 674 593 c 1,55,56
 674 593 674 593 674 593 c 1,57,-1
 674 593 l 1,35,-1
655 558 m 1,58,-1
 589 -115 l 1,59,-1
 102 -115 l 1,60,-1
 37 558 l 1,61,-1
 655 558 l 1,58,-1
211 -88 m 1,62,-1
 212 -88 l 2,63,64
 220 -86 220 -86 224 -81 c 1,65,-1
 224 -81 l 1,66,67
 228 -75 228 -75 228 -71 c 2,68,-1
 173 485 l 2,69,70
 172 493 172 493 167 497 c 1,71,-1
 167 497 l 1,72,73
 163 501 163 501 156 501 c 2,74,-1
 154 501 l 2,75,76
 147 500 147 500 142.5 495.5 c 128,-1,77
 138 491 138 491 138 484 c 2,78,-1
 193 -71 l 2,79,80
 194 -78 194 -78 199 -83 c 128,-1,81
 204 -88 204 -88 211 -88 c 1,82,83
 211 -88 211 -88 211 -88 c 1,84,-1
 211 -88 l 1,62,-1
507 -88 m 1,85,-1
 508 -88 l 1,86,87
 508 -88 508 -88 508 -88 c 1,88,89
 515 -88 515 -88 520 -83.5 c 128,-1,90
 525 -79 525 -79 525 -72 c 2,91,-1
 580 481 l 2,92,93
 581 481 581 481 581 482 c 1,94,-1
 581 482 l 1,95,96
 581 489 581 489 576 494 c 1,97,-1
 577 494 l 1,98,99
 569 500 569 500 562.5 500 c 128,-1,100
 556 500 556 500 552 496 c 1,101,-1
 552 496 l 1,102,103
 548 492 548 492 546 484 c 2,104,-1
 492 -67 l 2,105,106
 491 -67 491 -67 491 -69 c 0,107,108
 491 -75 491 -75 495 -79 c 1,109,-1
 495 -79 l 1,110,111
 499 -85 499 -85 506 -88 c 2,112,-1
 507 -88 l 1,85,-1
346 -88 m 1,113,114
 353 -88 353 -88 358 -82.5 c 128,-1,115
 363 -77 363 -77 363 -70 c 2,116,-1
 363 484 l 2,117,118
 363 491 363 491 358 496 c 128,-1,119
 353 501 353 501 346 501 c 128,-1,120
 339 501 339 501 333.5 496 c 128,-1,121
 328 491 328 491 328 484 c 2,122,-1
 328 -70 l 2,123,124
 328 -77 328 -77 333.5 -82.5 c 128,-1,125
 339 -88 339 -88 346 -88 c 1,126,127
 346 -88 346 -88 346 -88 c 1,128,-1
 346 -88 l 1,113,114
EndSplineSet
EndChar

StartChar: clessidra
Encoding: 59694 59694 20
Width: 737
Flags: W
LayerCount: 2
Fore
SplineSet
430 356 m 1,0,1
 539 419 539 419 615 506 c 0,2,3
 729 636 729 636 738 791 c 1,4,-1
 738 793 l 2,5,6
 738 817 738 817 721.5 833.5 c 128,-1,7
 705 850 705 850 682 850 c 2,8,-1
 57 850 l 2,9,10
 33 850 33 850 16.5 833.5 c 128,-1,11
 0 817 0 817 0 793 c 2,12,-1
 0 790 l 1,13,14
 9 642 9 642 123 506 c 0,15,16
 198 417 198 417 308 344 c 1,17,18
 199 281 199 281 123 194 c 0,19,20
 9 64 9 64 0 -91 c 1,21,-1
 0 -94 l 2,22,23
 0 -116 0 -116 16 -132 c 1,24,-1
 16 -132 l 1,25,26
 32 -150 32 -150 56 -150 c 2,27,-1
 682 -150 l 2,28,29
 705 -150 705 -150 721.5 -133.5 c 128,-1,30
 738 -117 738 -117 738 -93 c 2,31,-1
 738 -90 l 1,32,33
 729 58 729 58 615 195 c 0,34,35
 538 285 538 285 430 356 c 1,0,1
222 191 m 0,36,37
 293 256 293 256 378 299 c 2,38,-1
 382 301 l 1,39,40
 476 241 476 241 545 165 c 0,41,42
 650 48 650 48 664 -77 c 1,43,-1
 74 -77 l 1,44,45
 89 69 89 69 222 191 c 0,36,37
517 509 m 0,46,47
 443 443 443 443 361 401 c 2,48,-1
 357 399 l 1,49,50
 263 459 263 459 194 535 c 0,51,52
 89 652 89 652 74 777 c 1,53,-1
 664 777 l 1,54,55
 649 632 649 632 517 509 c 0,46,47
EndSplineSet
EndChar

StartChar: glyph-88
Encoding: 59695 59695 21
Width: 506
Flags: W
LayerCount: 2
Fore
SplineSet
359 229 m 5,0,1
 362 231 362 231 365 232 c 6,2,-1
 326 232 l 5,3,4
 336 227 336 227 346 227 c 4,5,6
 351 227 351 227 359 229 c 5,7,-1
 359 229 l 5,0,1
233 238 m 1024,8,-1
489 213 m 1,9,-1
 402 213 l 1,10,-1
 402 234 l 2,11,12
 402 240 402 240 395 242 c 2,13,-1
 319 242 l 2,14,15
 311 240 311 240 311 234 c 1,16,17
 311 234 311 234 311 234 c 1,18,-1
 311 214 l 1,19,-1
 225 214 l 2,20,21
 217 214 217 214 211.5 208.5 c 128,-1,22
 206 203 206 203 206 195 c 2,23,-1
 204 17 l 2,24,25
 204 9 204 9 209.5 3.5 c 128,-1,26
 215 -2 215 -2 223 -3 c 2,27,-1
 487 -5 l 2,28,29
 495 -5 495 -5 500 0.5 c 128,-1,30
 505 6 505 6 505 14 c 1,31,32
 505 14 505 14 505 14 c 1,33,-1
 507 194 l 2,34,35
 507 202 507 202 501.5 207.5 c 128,-1,36
 496 213 496 213 489 213 c 1,37,-1
 489 213 l 1,9,-1
319 234 m 1,38,-1
 395 234 l 1,39,-1
 395 215 l 1,40,-1
 319 215 l 1,41,-1
 319 234 l 1,38,-1
382 55 m 1,42,43
 372 47 372 47 361 47 c 1,44,-1
 361 32 l 1,45,-1
 350 32 l 1,46,-1
 350 46 l 1,47,48
 339 47 339 47 329 56 c 1,49,-1
 329 57 l 1,50,51
 322 66 322 66 322 78 c 2,52,-1
 322 80 l 1,53,-1
 337 80 l 1,54,-1
 337 78 l 2,55,56
 337 71 337 71 342 64 c 1,57,-1
 342 64 l 1,58,59
 347 58 347 58 355 58 c 2,60,-1
 358 58 l 2,61,62
 364 58 364 58 371 63 c 1,63,-1
 371 63 l 1,64,65
 376 68 376 68 376 75 c 2,66,-1
 376 76 l 1,67,68
 376 76 376 76 376 76 c 1,69,70
 376 84 376 84 372 88 c 1,71,-1
 372 88 l 1,72,73
 365 93 365 93 357 96 c 1,74,-1
 357 96 l 1,75,76
 343 101 343 101 336 109 c 1,77,-1
 336 109 l 1,78,79
 329 120 329 120 329 128 c 2,80,-1
 329 131 l 2,81,82
 329 142 329 142 336 151 c 1,83,-1
 336 151 l 1,84,85
 345 160 345 160 355 160 c 1,86,-1
 355 177 l 1,87,-1
 365 177 l 1,88,-1
 365 160 l 1,89,90
 377 159 377 159 383 149 c 1,91,-1
 383 149 l 1,92,93
 390 139 390 139 390 127 c 2,94,-1
 390 125 l 1,95,-1
 377 125 l 1,96,97
 375 135 375 135 370 142 c 1,98,-1
 370 142 l 1,99,100
 366 148 366 148 358 148 c 1,101,102
 358 148 358 148 358 148 c 1,103,-1
 356 148 l 2,104,105
 351 148 351 148 345 144 c 1,106,-1
 345 144 l 1,107,108
 340 139 340 139 340 132 c 2,109,-1
 340 130 l 2,110,111
 340 123 340 123 345 118 c 1,112,-1
 345 118 l 1,113,114
 352 113 352 113 360 110 c 1,115,-1
 360 110 l 1,116,117
 370 107 370 107 377 101 c 1,118,-1
 377 101 l 1,119,120
 382 98 382 98 385 91 c 1,121,-1
 385 91 l 1,122,123
 388 85 388 85 388 78 c 2,124,-1
 388 75 l 2,125,126
 388 65 388 65 381 56 c 1,127,-1
 381 56 l 1,128,-1
 382 55 l 1,42,43
226 2 m 2,129,130
 218 2 218 2 212.5 8 c 128,-1,131
 207 14 207 14 207 22 c 1,132,133
 207 22 207 22 207 22 c 1,134,-1
 207 195 l 1,135,136
 207 195 207 195 207 195 c 1,137,138
 207 203 207 203 212.5 209 c 128,-1,139
 218 215 218 215 226 216 c 2,140,-1
 260 216 l 1,141,-1
 270 366 l 1,142,143
 270 366 270 366 270 366 c 1,144,-1
 307 255 l 2,145,146
 308 249 308 249 314 241 c 1,147,-1
 314 241 l 1,148,149
 315 242 315 242 318 242 c 1,150,151
 318 242 318 242 318 242 c 1,152,-1
 375 242 l 1,153,154
 383 252 383 252 385 267 c 2,155,-1
 385 270 l 2,156,157
 385 277 385 277 382 284 c 1,158,-1
 382 284 l 1,159,160
 294 539 294 539 284 573 c 1,161,-1
 284 573 l 1,162,163
 283 585 283 585 274.5 593.5 c 128,-1,164
 266 602 266 602 254 603 c 2,165,-1
 37 605 l 2,166,167
 24 605 24 605 14 595 c 1,168,-1
 14 595 l 1,169,170
 5 586 5 586 5 571 c 2,171,-1
 0 256 l 2,172,173
 0 243 0 243 9 232 c 1,174,-1
 9 232 l 1,175,176
 17 224 17 224 25 223 c 1,177,-1
 45 -99 l 2,178,179
 46 -119 46 -119 60 -134 c 128,-1,180
 74 -149 74 -149 94 -150 c 2,181,-1
 185 -150 l 2,182,183
 205 -149 205 -149 219.5 -135 c 128,-1,184
 234 -121 234 -121 235 -101 c 2,185,-1
 243 -13 l 1,186,-1
 243 2 l 1,187,-1
 226 2 l 2,129,130
251 734 m 256,188,189
 251 702 251 702 236.5 675 c 128,-1,190
 222 648 222 648 197.5 632.5 c 128,-1,191
 173 617 173 617 143 617 c 128,-1,192
 113 617 113 617 88 632.5 c 128,-1,193
 63 648 63 648 48.5 675 c 128,-1,194
 34 702 34 702 34 733.5 c 128,-1,195
 34 765 34 765 48.5 792 c 128,-1,196
 63 819 63 819 88 834.5 c 128,-1,197
 113 850 113 850 142.5 850 c 128,-1,198
 172 850 172 850 197 834.5 c 128,-1,199
 222 819 222 819 236.5 792.5 c 128,-1,200
 251 766 251 766 251 734 c 256,188,189
EndSplineSet
EndChar

StartChar: glyph-92
Encoding: 59700 59700 22
Width: 549
Flags: W
LayerCount: 2
Fore
SplineSet
415 95 m 5,0,1
 415 95 415 95 415 95 c 5,2,3
 415 101 415 101 410 106 c 5,4,-1
 410 106 l 5,5,6
 404 112 404 112 395 114 c 6,7,-1
 394 114 l 6,8,9
 382 117 382 117 372 127 c 5,10,-1
 372 127 l 5,11,12
 364 133 364 133 364 145 c 6,13,-1
 364 148 l 6,14,15
 364 159 364 159 372 167 c 5,16,-1
 371 167 l 5,17,18
 378 174 378 174 390 176 c 6,19,-1
 391 176 l 5,20,-1
 391 192 l 5,21,-1
 401 192 l 5,22,-1
 401 175 l 5,23,24
 412 174 412 174 420 164 c 5,25,-1
 420 164 l 5,26,27
 426 155 426 155 426 142 c 6,28,-1
 426 140 l 5,29,-1
 413 140 l 5,30,-1
 413 142 l 6,31,32
 413 150 413 150 408 157 c 5,33,-1
 408 157 l 5,34,35
 402 163 402 163 396 163 c 6,36,-1
 394 163 l 6,37,38
 387 163 387 163 382 158 c 5,39,-1
 382 158 l 5,40,41
 377 153 377 153 377 147 c 6,42,-1
 377 145 l 6,43,44
 377 139 377 139 382 134 c 5,45,-1
 382 134 l 5,46,47
 388 129 388 129 398 126 c 5,48,-1
 398 126 l 5,49,50
 406 123 406 123 415 118 c 5,51,-1
 415 118 l 5,52,53
 420 115 420 115 424 108 c 5,54,-1
 424 108 l 5,55,56
 427 102 427 102 427 95 c 5,57,58
 427 95 427 95 427 95 c 5,59,-1
 427 93 l 6,60,61
 427 84 427 84 420 75 c 5,62,-1
 420 75 l 5,63,64
 409 66 409 66 399 66 c 5,65,-1
 399 52 l 5,66,-1
 388 52 l 5,67,-1
 388 66 l 5,68,69
 376 67 376 67 368 75.5 c 132,-1,70
 360 84 360 84 360 96 c 6,71,-1
 360 99 l 5,72,-1
 360 98 l 5,73,-1
 373 98 l 5,74,-1
 373 97 l 6,75,76
 373 90 373 90 378 83 c 5,77,-1
 378 83 l 5,78,79
 386 77 386 77 392 77 c 6,80,-1
 396 77 l 6,81,82
 403 77 403 77 409 81 c 5,83,-1
 409 81 l 5,84,85
 415 86 415 86 415 93 c 6,86,-1
 415 95 l 5,0,1
531 21 m 1,87,-1
 258 21 l 1,88,89
 258 21 258 21 258 21 c 1,90,91
 250 21 250 21 244.5 26.5 c 128,-1,92
 239 32 239 32 239 40 c 1,93,94
 239 40 239 40 239 40 c 1,95,-1
 239 208 l 2,96,97
 239 216 239 216 244.5 221.5 c 128,-1,98
 250 227 250 227 258 227 c 2,99,-1
 531 227 l 2,100,101
 539 227 539 227 544.5 221.5 c 128,-1,102
 550 216 550 216 550 208 c 2,103,-1
 550 40 l 1,104,105
 550 40 550 40 550 40 c 1,106,107
 550 32 550 32 544.5 26.5 c 128,-1,108
 539 21 539 21 531 21 c 1,109,110
 531 21 531 21 531 21 c 1,111,-1
 531 21 l 1,87,-1
258 220 m 1,112,113
 258 220 258 220 258 220 c 1,114,115
 254 220 254 220 250.5 216.5 c 128,-1,116
 247 213 247 213 246 208 c 2,117,-1
 246 40 l 1,118,119
 246 40 246 40 246 40 c 1,120,121
 246 36 246 36 249.5 32.5 c 128,-1,122
 253 29 253 29 258 28 c 2,123,-1
 531 28 l 2,124,125
 536 29 536 29 539 32.5 c 128,-1,126
 542 36 542 36 542 40 c 1,127,128
 542 40 542 40 542 40 c 1,129,-1
 542 208 l 2,130,131
 542 213 542 213 539 216.5 c 128,-1,132
 536 220 536 220 531 220 c 1,133,134
 531 220 531 220 531 220 c 1,135,-1
 531 220 l 1,136,-1
 258 220 l 1,112,113
440 220 m 1,137,-1
 348 220 l 1,138,-1
 348 247 l 2,139,140
 348 250 348 250 350 252 c 128,-1,141
 352 254 352 254 355 254 c 2,142,-1
 433 254 l 2,143,144
 436 254 436 254 438 252 c 128,-1,145
 440 250 440 250 440 247 c 1,146,-1
 440 247 l 1,147,-1
 440 220 l 1,137,-1
354 228 m 1,148,-1
 433 228 l 1,149,-1
 433 247 l 1,150,-1
 355 247 l 1,151,-1
 354 228 l 1,148,-1
201 -150 m 1,152,-1
 104 -150 l 1,153,154
 104 -150 104 -150 104 -150 c 1,155,156
 81 -150 81 -150 65 -134 c 128,-1,157
 49 -118 49 -118 48 -96 c 2,158,-1
 27 223 l 1,159,160
 17 224 17 224 10 233 c 1,161,-1
 10 233 l 1,162,163
 -1 242 -1 242 -1 258 c 2,164,-1
 6 572 l 1,165,166
 6 572 6 572 6 572 c 1,167,168
 6 586 6 586 16 598 c 1,169,-1
 16 598 l 1,170,171
 28 608 28 608 43 608 c 2,172,-1
 275 606 l 2,173,174
 288 606 288 606 298.5 597 c 128,-1,175
 309 588 309 588 311 574 c 1,176,-1
 311 574 l 1,177,178
 315 561 315 561 350 465 c 0,179,180
 388 361 388 361 416 287 c 1,181,-1
 416 287 l 1,182,183
 418 277 418 277 418 272 c 2,184,-1
 418 269 l 2,185,186
 417 255 417 255 409 244 c 128,-1,187
 401 233 401 233 388 228 c 1,188,-1
 388 228 l 1,189,190
 383 226 383 226 373 226 c 0,191,192
 358 226 358 226 346.5 234 c 128,-1,193
 335 242 335 242 330 256 c 2,194,-1
 294 356 l 1,195,-1
 285 237 l 1,196,-1
 271 237 l 2,197,198
 253 237 253 237 252 238 c 2,199,-1
 273 509 l 2,200,201
 273 511 273 511 276 511 c 1,202,-1
 276 511 l 1,203,204
 276 511 276 511 277 511 c 128,-1,205
 278 511 278 511 278 509 c 2,206,-1
 362 267 l 2,207,208
 366 260 366 260 372 260 c 0,209,210
 375 260 375 260 376 261 c 1,211,-1
 376 261 l 1,212,213
 380 262 380 262 382 266 c 1,214,-1
 382 266 l 1,215,216
 383 268 383 268 383 270.5 c 128,-1,217
 383 273 383 273 382 275 c 2,218,-1
 329 419 l 2,219,220
 284 543 284 543 278 567 c 1,221,-1
 277 567 l 1,222,-1
 277 569 l 1,223,224
 277 569 277 569 277 570 c 128,-1,225
 277 571 277 571 275 571 c 2,226,-1
 41 573 l 1,227,228
 41 573 41 573 41 573 c 1,229,-1
 36 257 l 1,230,-1
 36 257 l 1,231,-1
 37 257 l 1,232,233
 37 257 37 257 37 257 c 1,234,-1
 55 263 l 2,235,236
 56 264 56 264 57 264 c 128,-1,237
 58 264 58 264 58 263 c 1,238,-1
 58 263 l 1,239,240
 59 263 59 263 59 261 c 2,241,-1
 62 242 l 1,242,-1
 83 -93 l 2,243,244
 83 -102 83 -102 89 -108 c 128,-1,245
 95 -114 95 -114 104 -114 c 2,246,-1
 201 -115 l 2,247,248
 209 -115 209 -115 215.5 -109 c 128,-1,249
 222 -103 222 -103 223 -94 c 2,250,-1
 231 -8 l 2,251,252
 231 -7 231 -7 232 -7 c 2,253,-1
 234 -6 l 1,254,-1
 262 -8 l 2,255,256
 266 -8 266 -8 266 -10 c 2,257,-1
 257 -97 l 2,258,259
 256 -119 256 -119 240 -134 c 128,-1,260
 224 -149 224 -149 201 -150 c 1,261,-1
 201 -150 l 1,152,-1
42 603 m 2,262,263
 30 603 30 603 20 595 c 1,264,-1
 20 595 l 1,265,266
 12 587 12 587 10 572 c 2,267,-1
 6 258 l 2,268,269
 6 247 6 247 13 238 c 128,-1,270
 20 229 20 229 31 227 c 2,271,-1
 32 227 l 2,272,273
 34 227 34 227 34 224 c 2,274,-1
 55 -96 l 2,275,276
 56 -116 56 -116 70.5 -130 c 128,-1,277
 85 -144 85 -144 105 -144 c 2,278,-1
 202 -144 l 1,279,280
 202 -144 202 -144 202 -144 c 1,281,282
 222 -144 222 -144 237 -130.5 c 128,-1,283
 252 -117 252 -117 254 -97 c 2,284,-1
 262 -12 l 1,285,-1
 238 -12 l 1,286,-1
 230 -95 l 2,287,288
 228 -106 228 -106 220.5 -113 c 128,-1,289
 213 -120 213 -120 202 -120 c 2,290,-1
 105 -119 l 2,291,292
 95 -119 95 -119 87.5 -112 c 128,-1,293
 80 -105 80 -105 79 -94 c 2,294,-1
 58 241 l 1,295,-1
 55 257 l 1,296,-1
 40 251 l 1,297,-1
 39 251 l 2,298,299
 36 251 36 251 34 254 c 1,300,-1
 34 254 l 1,301,302
 33 255 33 255 32 257 c 2,303,-1
 31 259 l 1,304,-1
 37 573 l 2,305,306
 37 574 37 574 38 577 c 2,307,-1
 39 578 l 2,308,309
 40 579 40 579 42 579 c 2,310,-1
 275 577 l 1,311,312
 275 577 275 577 275 577 c 1,313,314
 280 577 280 577 281 573 c 1,315,-1
 281 573 l 1,316,317
 281 573 281 573 281 573 c 1,318,319
 284 573 284 573 284 571 c 1,320,-1
 284 571 l 1,321,322
 306 492 306 492 339 413 c 2,323,-1
 335 422 l 1,324,-1
 388 278 l 2,325,326
 389 276 389 276 389 271.5 c 128,-1,327
 389 267 389 267 388 265 c 1,328,-1
 388 265 l 1,329,330
 383 256 383 256 374 256 c 0,331,332
 371 256 371 256 367 258 c 2,333,-1
 368 258 l 2,334,335
 362 261 362 261 359 267 c 2,336,-1
 276 497 l 1,337,-1
 256 242 l 1,338,-1
 280 242 l 1,339,-1
 290 368 l 2,340,341
 290 370 290 370 292 370 c 2,342,-1
 293 370 l 2,343,344
 295 370 295 370 295 369 c 2,345,-1
 334 258 l 2,346,347
 339 246 339 246 349.5 238.5 c 128,-1,348
 360 231 360 231 373 231 c 0,349,350
 378 231 378 231 386 233 c 1,351,-1
 386 233 l 1,352,353
 397 238 397 238 404.5 247.5 c 128,-1,354
 412 257 412 257 413 270 c 2,355,-1
 413 271 l 2,356,357
 413 278 413 278 410 285 c 1,358,-1
 410 285 l 1,359,360
 317 538 317 538 306 573 c 1,361,362
 306 573 306 573 306 573 c 1,363,364
 304 585 304 585 295.5 593 c 128,-1,365
 287 601 287 601 275 601 c 1,366,-1
 275 601 l 1,367,-1
 42 603 l 2,262,263
253 239 m 1024,368,-1
413 286 m 1,369,-1
 413 286 l 1,370,371
 317 545 317 545 308 574 c 1,372,-1
 308 574 l 1,373,374
 306 586 306 586 297 594.5 c 128,-1,375
 288 603 288 603 275 604 c 2,376,-1
 43 606 l 2,377,378
 30 606 30 606 18 596 c 1,379,-1
 18 596 l 1,380,381
 8 586 8 586 8 572 c 2,382,-1
 3 258 l 2,383,384
 3 243 3 243 12 234 c 1,385,-1
 12 234 l 1,386,387
 20 227 20 227 30 225 c 1,388,-1
 51 -96 l 2,389,390
 53 -117 53 -117 68 -131.5 c 128,-1,391
 83 -146 83 -146 104 -146 c 2,392,-1
 201 -146 l 2,393,394
 222 -146 222 -146 237 -132 c 128,-1,395
 252 -118 252 -118 254 -98 c 2,396,-1
 263 -11 l 1,397,-1
 234 -10 l 1,398,-1
 225 -95 l 2,399,400
 224 -105 224 -105 217 -111.5 c 128,-1,401
 210 -118 210 -118 200 -118 c 2,402,-1
 103 -118 l 2,403,404
 94 -118 94 -118 87 -111.5 c 128,-1,405
 80 -105 80 -105 79 -95 c 2,406,-1
 59 240 l 1,407,-1
 56 260 l 1,408,-1
 37 252 l 2,409,410
 36 252 36 252 34 254 c 1,411,-1
 34 254 l 1,412,413
 33 255 33 255 33 256 c 128,-1,414
 33 257 33 257 33 257 c 1,415,-1
 38 571 l 1,416,417
 38 571 38 571 38 572 c 128,-1,418
 38 573 38 573 39 574 c 1,419,-1
 39 574 l 1,420,421
 40 575 40 575 41 575 c 2,422,-1
 275 573 l 2,423,424
 278 573 278 573 280 569 c 1,425,-1
 281 569 l 1,426,427
 308 477 308 477 336 409 c 1,428,-1
 333 419 l 1,429,-1
 386 275 l 1,430,-1
 387 270 l 1,431,-1
 386 264 l 1,432,-1
 386 264 l 1,433,434
 384 261 384 261 378 257 c 1,435,-1
 373 257 l 2,436,437
 363 257 363 257 361 266 c 2,438,-1
 275 508 l 1,439,-1
 254 239 l 1,440,-1
 284 239 l 1,441,-1
 294 368 l 1,442,-1
 333 257 l 2,443,444
 337 244 337 244 348 236.5 c 128,-1,445
 359 229 359 229 373 229 c 0,446,447
 390 229 390 229 402.5 240.5 c 128,-1,448
 415 252 415 252 417 269 c 2,449,-1
 417 270 l 2,450,451
 417 276 417 276 413 286 c 1,452,-1
 413 286 l 1,369,-1
156 850 m 1,453,454
 125 850 125 850 98 834.5 c 128,-1,455
 71 819 71 819 55.5 792 c 128,-1,456
 40 765 40 765 40 734 c 128,-1,457
 40 703 40 703 55.5 676 c 128,-1,458
 71 649 71 649 98 633.5 c 128,-1,459
 125 618 125 618 156 618 c 128,-1,460
 187 618 187 618 214 633.5 c 128,-1,461
 241 649 241 649 256.5 676 c 128,-1,462
 272 703 272 703 272 734 c 1,463,-1
 272 734 l 1,464,465
 272 765 272 765 256.5 792 c 128,-1,466
 241 819 241 819 214 834.5 c 128,-1,467
 187 850 187 850 156 850 c 1,468,-1
 156 850 l 1,453,454
236 734 m 1,469,470
 236 734 236 734 236 734 c 1,471,472
 236 701 236 701 212.5 677.5 c 128,-1,473
 189 654 189 654 156 654 c 128,-1,474
 123 654 123 654 99.5 677.5 c 128,-1,475
 76 701 76 701 76 734 c 128,-1,476
 76 767 76 767 99.5 790 c 128,-1,477
 123 813 123 813 156 813 c 1,478,-1
 156 813 l 1,479,480
 156 813 156 813 156 813 c 1,481,482
 189 813 189 813 212.5 790 c 128,-1,483
 236 767 236 767 236 734 c 1,484,-1
 236 734 l 1,469,470
EndSplineSet
EndChar

StartChar: glyph-96
Encoding: 59706 59706 23
Width: 1250
Flags: W
LayerCount: 2
Fore
SplineSet
72 211 m 6,0,-1
 370 211 l 6,1,2
 380 211 380 211 387 204 c 132,-1,3
 394 197 394 197 394 187 c 5,4,-1
 394 187 l 5,5,6
 394 177 394 177 387 170 c 132,-1,7
 380 163 380 163 370 163 c 6,8,-1
 72 163 l 6,9,10
 62 163 62 163 55 170 c 132,-1,11
 48 177 48 177 48 187 c 5,12,-1
 48 187 l 5,13,14
 48 197 48 197 55 204 c 132,-1,15
 62 211 62 211 72 211 c 6,0,-1
24 330 m 2,16,-1
 323 330 l 2,17,18
 333 330 333 330 340 323 c 128,-1,19
 347 316 347 316 347 306 c 2,20,-1
 347 307 l 2,21,22
 347 297 347 297 340 290 c 128,-1,23
 333 283 333 283 323 283 c 2,24,-1
 24 283 l 2,25,26
 14 283 14 283 7 290 c 128,-1,27
 0 297 0 297 0 307 c 2,28,-1
 0 306 l 2,29,30
 0 316 0 316 7 323 c 128,-1,31
 14 330 14 330 24 330 c 2,16,-1
72 450 m 2,32,-1
 370 450 l 2,33,34
 380 450 380 450 387 443 c 128,-1,35
 394 436 394 436 394 426 c 1,36,-1
 394 426 l 1,37,38
 394 416 394 416 387 409 c 128,-1,39
 380 402 380 402 370 402 c 2,40,-1
 72 402 l 2,41,42
 62 402 62 402 55 409 c 128,-1,43
 48 416 48 416 48 426 c 1,44,-1
 48 426 l 1,45,46
 48 436 48 436 55 443 c 128,-1,47
 62 450 62 450 72 450 c 2,32,-1
843 183 m 1,48,49
 842 183 842 183 840 183 c 0,50,51
 816 183 816 183 798.5 200.5 c 128,-1,52
 781 218 781 218 781 242 c 128,-1,53
 781 266 781 266 797.5 283 c 128,-1,54
 814 300 814 300 838 302 c 1,55,-1
 987 387 l 1,56,-1
 902 238 l 1,57,58
 901 217 901 217 885 200 c 1,59,-1
 885 200 l 1,60,61
 866 183 866 183 843 183 c 1,62,63
 843 183 843 183 843 183 c 1,64,-1
 843 183 l 1,48,49
843 271 m 1,65,66
 843 271 843 271 842 271 c 0,67,68
 830 271 830 271 822 262 c 1,69,-1
 822 262 l 1,70,71
 814 254 814 254 814 242.5 c 128,-1,72
 814 231 814 231 822 223 c 1,73,-1
 822 223 l 1,74,75
 830 214 830 214 842.5 214 c 128,-1,76
 855 214 855 214 862 223 c 1,77,-1
 862 223 l 1,78,79
 870 229 870 229 870 242 c 2,80,-1
 870 247 l 1,81,-1
 902 304 l 1,82,-1
 847 271 l 1,83,-1
 843 271 l 1,65,66
838 549 m 1,84,85
 760 549 760 549 693 510 c 0,86,87
 628 472 628 472 590 407 c 0,88,89
 551 340 551 340 551 262 c 128,-1,90
 551 184 551 184 590 117 c 0,91,92
 628 53 628 53 694 14.5 c 128,-1,93
 760 -24 760 -24 838 -24 c 128,-1,94
 916 -24 916 -24 982 15 c 0,95,96
 1047 53 1047 53 1085 118 c 0,97,98
 1124 184 1124 184 1124 262 c 2,99,-1
 1124 263 l 2,100,101
 1124 341 1124 341 1085 407 c 0,102,103
 1047 472 1047 472 982 510 c 0,104,105
 916 549 916 549 838 549 c 1,106,-1
 838 549 l 1,84,85
838 18 m 1,107,108
 771 18 771 18 715 51 c 128,-1,109
 659 84 659 84 626 140 c 128,-1,110
 593 196 593 196 593 263 c 128,-1,111
 593 330 593 330 626 386 c 128,-1,112
 659 442 659 442 715 475 c 128,-1,113
 771 508 771 508 837.5 508 c 128,-1,114
 904 508 904 508 960.5 475 c 128,-1,115
 1017 442 1017 442 1050 385.5 c 128,-1,116
 1083 329 1083 329 1083 263 c 1,117,-1
 1083 263 l 1,118,119
 1083 196 1083 196 1050 140 c 128,-1,120
 1017 84 1017 84 960.5 51 c 128,-1,121
 904 18 904 18 838 18 c 1,122,-1
 838 18 l 1,107,108
838 675 m 1,123,124
 838 675 838 675 837 675 c 0,125,126
 724 675 724 675 628 619 c 0,127,128
 534 564 534 564 479 470 c 0,129,130
 423 374 423 374 423 262 c 128,-1,131
 423 150 423 150 479 53 c 0,132,133
 534 -40 534 -40 628 -95 c 0,134,135
 724 -152 724 -152 836.5 -152 c 128,-1,136
 949 -152 949 -152 1045 -96 c 0,137,138
 1139 -41 1139 -41 1194 53 c 0,139,140
 1250 149 1250 149 1250 262 c 1,141,-1
 1250 262 l 1,142,143
 1250 262 1250 262 1250 262 c 1,144,145
 1250 374 1250 374 1194 470 c 0,146,147
 1139 563 1139 563 1046 618 c 0,148,149
 950 675 950 675 838 675 c 1,150,-1
 838 675 l 1,123,124
838 -108 m 1,151,152
 737 -108 737 -108 651 -57 c 0,153,154
 567 -8 567 -8 518 76 c 0,155,156
 467 162 467 162 467 263 c 128,-1,157
 467 364 467 364 518 450 c 0,158,159
 567 534 567 534 651 583 c 0,160,161
 737 633 737 633 837.5 633 c 128,-1,162
 938 633 938 633 1025 582 c 0,163,164
 1108 533 1108 533 1157 450 c 0,165,166
 1208 363 1208 363 1208 263 c 1,167,-1
 1208 263 l 1,168,169
 1208 162 1208 162 1157 76 c 0,170,171
 1108 -8 1108 -8 1025 -57 c 0,172,173
 938 -108 938 -108 838 -108 c 1,174,-1
 838 -108 l 1,151,152
891 850 m 1,175,-1
 772 850 l 1,176,-1
 768 850 l 2,177,178
 742 850 742 850 723.5 831.5 c 128,-1,179
 705 813 705 813 705 787 c 128,-1,180
 705 761 705 761 723.5 742 c 128,-1,181
 742 723 742 723 768 723 c 2,182,-1
 798 723 l 1,183,-1
 798 636 l 1,184,-1
 878 636 l 1,185,-1
 878 724 l 1,186,-1
 894 724 l 2,187,188
 920 724 920 724 939 742.5 c 128,-1,189
 958 761 958 761 958 788 c 128,-1,190
 958 815 958 815 939.5 833 c 128,-1,191
 921 851 921 851 894 851 c 2,192,-1
 890 851 l 1,193,-1
 891 851 l 1,194,-1
 891 850 l 1,175,-1
834 672 m 1,195,-1
 834 724 l 1,196,-1
 841 724 l 1,197,-1
 841 673 l 1,198,-1
 834 672 l 1,195,-1
917 787 m 1,199,200
 917 787 917 787 917 787 c 1,201,202
 917 776 917 776 909 768 c 128,-1,203
 901 760 901 760 890 760 c 1,204,205
 890 760 890 760 890 760 c 1,206,-1
 770 760 l 2,207,208
 759 760 759 760 751 768 c 128,-1,209
 743 776 743 776 743 787 c 128,-1,210
 743 798 743 798 751 806 c 128,-1,211
 759 814 759 814 770 814 c 2,212,-1
 891 814 l 1,213,214
 891 814 891 814 891 814 c 1,215,216
 902 814 902 814 910 806 c 128,-1,217
 918 798 918 798 918 787 c 2,218,-1
 918 786 l 1,219,-1
 917 787 l 1,199,200
EndSplineSet
EndChar

StartChar: crono_hover
Encoding: 59713 59713 24
Width: 1000
Flags: W
LayerCount: 2
Fore
SplineSet
524 667 m 1,0,-1
 524 748 l 1,1,-1
 550 748 l 2,2,3
 570 750 570 750 583.5 764.5 c 128,-1,4
 597 779 597 779 597 799 c 128,-1,5
 597 819 597 819 583.5 833.5 c 128,-1,6
 570 848 570 848 550 850 c 2,7,-1
 425 850 l 2,8,9
 403 850 403 850 388 835 c 128,-1,10
 373 820 373 820 373 799 c 128,-1,11
 373 778 373 778 388 762.5 c 128,-1,12
 403 747 403 747 425 747 c 0,13,14
 428 747 428 747 429 748 c 2,15,-1
 469 748 l 1,16,-1
 469 667 l 1,17,18
 365 660 365 660 277 604 c 0,19,20
 192 549 192 549 143 460 c 0,21,22
 92 369 92 369 92 264 c 0,23,24
 92 154 92 154 147 60 c 0,25,26
 201 -31 201 -31 292 -85 c 0,27,28
 386 -140 386 -140 496 -140 c 128,-1,29
 606 -140 606 -140 700 -85 c 0,30,31
 791 -31 791 -31 845 60 c 0,32,33
 900 154 900 154 900 264 c 0,34,35
 900 369 900 369 849 460 c 0,36,37
 800 549 800 549 716 604 c 0,38,39
 629 660 629 660 525 667 c 1,40,-1
 524 667 l 1,0,-1
496 530 m 1,41,42
 568 530 568 530 630 494 c 0,43,44
 690 459 690 459 725.5 398 c 128,-1,45
 761 337 761 337 761 265 c 128,-1,46
 761 193 761 193 725.5 132 c 128,-1,47
 690 71 690 71 630 36 c 0,48,49
 568 0 568 0 496 0 c 128,-1,50
 424 0 424 0 363 35.5 c 128,-1,51
 302 71 302 71 267 131 c 0,52,53
 231 193 231 193 231 265 c 1,54,-1
 231 265 l 1,55,56
 231 337 231 337 266.5 398 c 128,-1,57
 302 459 302 459 363 494.5 c 128,-1,58
 424 530 424 530 496 530 c 1,59,-1
 496 530 l 1,41,42
533 212 m 1,60,61
 546 225 546 225 546 244 c 1,62,63
 546 244 546 244 546 244 c 1,64,-1
 606 348 l 1,65,-1
 501 289 l 1,66,67
 501 289 501 289 501 289 c 1,68,69
 482 289 482 289 469 276 c 1,70,-1
 469 276 l 1,71,72
 456 261 456 261 456 243 c 128,-1,73
 456 225 456 225 469 212 c 128,-1,74
 482 199 482 199 501 199 c 128,-1,75
 520 199 520 199 533 212 c 1,76,-1
 533 212 l 1,60,61
EndSplineSet
EndChar

StartChar: crono_mono_attivo
Encoding: 59714 59714 25
Width: 1250
Flags: W
LayerCount: 2
Fore
SplineSet
878 673 m 1,0,-1
 878 724 l 1,1,-1
 894 724 l 2,2,3
 920 724 920 724 939 742.5 c 128,-1,4
 958 761 958 761 958 788 c 128,-1,5
 958 815 958 815 939.5 833 c 128,-1,6
 921 851 921 851 894 851 c 2,7,-1
 890 851 l 1,8,-1
 891 851 l 1,9,-1
 768 851 l 2,10,11
 742 851 742 851 723.5 832.5 c 128,-1,12
 705 814 705 814 705 788 c 128,-1,13
 705 762 705 762 723.5 743 c 128,-1,14
 742 724 742 724 768 724 c 2,15,-1
 798 724 l 1,16,-1
 798 674 l 1,17,18
 694 664 694 664 608 606 c 0,19,20
 524 549 524 549 475 460 c 0,21,22
 425 368 425 368 425 263 c 0,23,24
 425 151 425 151 481 55 c 0,25,26
 536 -38 536 -38 630 -93 c 0,27,28
 726 -149 726 -149 838 -149 c 128,-1,29
 950 -149 950 -149 1046 -93 c 0,30,31
 1139 -38 1139 -38 1194 55 c 0,32,33
 1250 151 1250 151 1250 263 c 0,34,35
 1250 368 1250 368 1200 460 c 0,36,37
 1152 549 1152 549 1068 606 c 0,38,39
 982 664 982 664 879 674 c 1,40,-1
 878 674 l 1,41,-1
 878 673 l 1,0,-1
838 -108 m 1,42,43
 737 -108 737 -108 651 -57 c 0,44,45
 567 -8 567 -8 518 76 c 0,46,47
 467 162 467 162 467 263 c 128,-1,48
 467 364 467 364 518 450 c 0,49,50
 567 534 567 534 651 583 c 0,51,52
 737 633 737 633 837.5 633 c 128,-1,53
 938 633 938 633 1025 582 c 0,54,55
 1108 533 1108 533 1157 450 c 0,56,57
 1208 363 1208 363 1208 263 c 1,58,-1
 1208 263 l 1,59,60
 1208 162 1208 162 1157 76 c 0,61,62
 1108 -8 1108 -8 1025 -57 c 0,63,64
 938 -108 938 -108 838 -108 c 1,65,-1
 838 -108 l 1,42,43
834 724 m 1,66,-1
 841 724 l 1,67,-1
 841 676 l 1,68,-1
 834 676 l 1,69,-1
 834 724 l 1,66,-1
772 761 m 2,70,71
 771 760 771 760 770 760 c 0,72,73
 759 760 759 760 751 768.5 c 128,-1,74
 743 777 743 777 743 788 c 128,-1,75
 743 799 743 799 751 807 c 128,-1,76
 759 815 759 815 770 815 c 0,77,78
 771 815 771 815 772 814 c 2,79,-1
 891 814 l 2,80,81
 891 815 891 815 893 815 c 0,82,83
 904 815 904 815 912 807 c 128,-1,84
 920 799 920 799 920 788 c 128,-1,85
 920 777 920 777 912 768.5 c 128,-1,86
 904 760 904 760 893 760 c 0,87,88
 891 760 891 760 890 761 c 2,89,-1
 891 761 l 1,90,-1
 772 761 l 2,70,71
838 549 m 1,91,92
 760 549 760 549 693 510 c 0,93,94
 628 472 628 472 590 407 c 0,95,96
 551 340 551 340 551 262 c 128,-1,97
 551 184 551 184 590 117 c 0,98,99
 628 53 628 53 694 14.5 c 128,-1,100
 760 -24 760 -24 838 -24 c 128,-1,101
 916 -24 916 -24 982 15 c 0,102,103
 1047 53 1047 53 1085 118 c 0,104,105
 1124 184 1124 184 1124 262 c 2,106,-1
 1124 263 l 2,107,108
 1124 341 1124 341 1085 407 c 0,109,110
 1047 472 1047 472 982 510 c 0,111,112
 916 549 916 549 838 549 c 1,113,-1
 838 549 l 1,91,92
838 18 m 1,114,115
 771 18 771 18 715 51 c 128,-1,116
 659 84 659 84 626 140 c 128,-1,117
 593 196 593 196 593 263 c 128,-1,118
 593 330 593 330 626 386 c 128,-1,119
 659 442 659 442 715 475 c 128,-1,120
 771 508 771 508 837.5 508 c 128,-1,121
 904 508 904 508 960.5 475 c 128,-1,122
 1017 442 1017 442 1050 385.5 c 128,-1,123
 1083 329 1083 329 1083 263 c 1,124,-1
 1083 263 l 1,125,126
 1083 196 1083 196 1050 140 c 128,-1,127
 1017 84 1017 84 960.5 51 c 128,-1,128
 904 18 904 18 838 18 c 1,129,-1
 838 18 l 1,114,115
800 285 m 1,130,131
 785 267 785 267 785 243 c 128,-1,132
 785 219 785 219 802 202 c 128,-1,133
 819 185 819 185 843 185 c 128,-1,134
 867 185 867 185 885 200 c 1,135,-1
 885 200 l 1,136,137
 901 217 901 217 902 238 c 1,138,-1
 987 387 l 1,139,-1
 838 302 l 1,140,141
 817 301 817 301 800 285 c 1,142,-1
 800 285 l 1,130,131
842 271 m 1,143,-1
 847 271 l 1,144,-1
 904 303 l 1,145,-1
 871 247 l 1,146,-1
 871 241 l 2,147,148
 871 230 871 230 862 222 c 1,149,-1
 862 222 l 1,150,151
 854 214 854 214 842.5 214 c 128,-1,152
 831 214 831 214 823 222 c 1,153,-1
 822 222 l 1,154,155
 814 230 814 230 814 242 c 128,-1,156
 814 254 814 254 822 262 c 1,157,-1
 822 262 l 1,158,159
 832 270 832 270 842 270 c 2,160,-1
 843 270 l 1,161,-1
 842 271 l 1,143,-1
371 450 m 1,162,-1
 72 450 l 2,163,164
 62 450 62 450 55 443 c 128,-1,165
 48 436 48 436 48 426 c 1,166,167
 48 426 48 426 48 426 c 1,168,-1
 48 426 l 1,169,170
 48 416 48 416 55 409 c 128,-1,171
 62 402 62 402 72 402 c 2,172,-1
 371 402 l 2,173,174
 380 403 380 403 386 410 c 128,-1,175
 392 417 392 417 392 426 c 128,-1,176
 392 435 392 435 386 442 c 128,-1,177
 380 449 380 449 371 450 c 1,178,-1
 371 450 l 1,162,-1
347 306 m 1,179,180
 347 316 347 316 340 323 c 128,-1,181
 333 330 333 330 323 330 c 2,182,-1
 24 330 l 1,183,184
 24 330 24 330 24 330 c 1,185,186
 14 330 14 330 7 323 c 128,-1,187
 0 316 0 316 0 306 c 1,188,189
 0 306 0 306 0 306 c 1,190,-1
 0 306 l 1,191,192
 0 296 0 296 7 289.5 c 128,-1,193
 14 283 14 283 24 283 c 1,194,195
 24 283 24 283 24 283 c 1,196,-1
 323 283 l 1,197,198
 323 283 323 283 323 283 c 1,199,200
 333 283 333 283 340 289.5 c 128,-1,201
 347 296 347 296 347 306 c 1,202,-1
 347 306 l 1,179,180
371 211 m 1,203,-1
 72 211 l 2,204,205
 62 211 62 211 55 204 c 128,-1,206
 48 197 48 197 48 187 c 1,207,208
 48 187 48 187 48 187 c 1,209,-1
 48 187 l 1,210,211
 48 177 48 177 55 170 c 128,-1,212
 62 163 62 163 72 163 c 2,213,-1
 371 163 l 2,214,215
 381 163 381 163 388 170 c 128,-1,216
 395 177 395 177 395 187 c 128,-1,217
 395 197 395 197 388 204 c 128,-1,218
 381 211 381 211 371 211 c 1,219,-1
 371 211 l 1,203,-1
EndSplineSet
EndChar

StartChar: crono_mono
Encoding: 59715 59715 26
Width: 821
Flags: W
LayerCount: 2
Fore
SplineSet
448 669 m 1,0,-1
 448 727 l 1,1,-1
 464 727 l 2,2,3
 488 729 488 729 505 746.5 c 128,-1,4
 522 764 522 764 522 789 c 128,-1,5
 522 814 522 814 505 831 c 128,-1,6
 488 848 488 848 464 850 c 2,7,-1
 341 850 l 2,8,9
 315 850 315 850 297 832 c 128,-1,10
 279 814 279 814 279 789 c 128,-1,11
 279 764 279 764 297.5 745.5 c 128,-1,12
 316 727 316 727 341 727 c 2,13,-1
 345 727 l 1,14,-1
 344 727 l 1,15,-1
 373 727 l 1,16,-1
 373 669 l 1,17,18
 269 659 269 659 183 602 c 0,19,20
 99 545 99 545 50 457 c 0,21,22
 0 365 0 365 0 260 c 0,23,24
 0 149 0 149 56 53 c 0,25,26
 110 -40 110 -40 203 -94 c 0,27,28
 299 -150 299 -150 410 -150 c 128,-1,29
 521 -150 521 -150 617 -94 c 0,30,31
 710 -39 710 -39 765 53 c 0,32,33
 821 149 821 149 821 260 c 0,34,35
 821 365 821 365 771 457 c 0,36,37
 723 545 723 545 638 602 c 128,-1,38
 553 659 553 659 450 669 c 1,39,-1
 448 669 l 1,0,-1
344 759 m 2,40,41
 343 759 343 759 342 759 c 0,42,43
 329 759 329 759 320.5 767.5 c 128,-1,44
 312 776 312 776 312 789 c 128,-1,45
 312 802 312 802 320.5 810.5 c 128,-1,46
 329 819 329 819 342 819 c 2,47,-1
 463 819 l 2,48,49
 475 818 475 818 483 809 c 128,-1,50
 491 800 491 800 491 789 c 128,-1,51
 491 778 491 778 483 769 c 128,-1,52
 475 760 475 760 463 759 c 2,53,-1
 344 759 l 2,40,41
416 727 m 1,54,-1
 416 671 l 1,55,-1
 404 671 l 1,56,-1
 404 727 l 1,57,-1
 416 727 l 1,54,-1
410 -119 m 1,58,59
 307 -119 307 -119 219 -67 c 0,60,61
 134 -17 134 -17 84 69 c 0,62,63
 32 157 32 157 32 260 c 128,-1,64
 32 363 32 363 84 451 c 0,65,66
 134 537 134 537 219 587 c 0,67,68
 307 639 307 639 410 639 c 128,-1,69
 513 639 513 639 602 587 c 0,70,71
 687 537 687 537 737 452 c 0,72,73
 789 363 789 363 789 260 c 1,74,-1
 789 260 l 1,75,76
 789 157 789 157 737 69 c 0,77,78
 687 -16 687 -16 602 -67 c 0,79,80
 513 -119 513 -119 410 -119 c 1,81,-1
 410 -119 l 1,58,59
410 -23 m 1,82,83
 410 -23 410 -23 410 -23 c 1,84,85
 333 -23 333 -23 267 16 c 0,86,87
 203 53 203 53 166 117 c 0,88,89
 127 183 127 183 127 260 c 128,-1,90
 127 337 127 337 166 403 c 0,91,92
 203 467 203 467 267 505 c 0,93,94
 333 544 333 544 410 544 c 128,-1,95
 487 544 487 544 553 505 c 0,96,97
 618 468 618 468 655 403 c 0,98,99
 694 337 694 337 694 260 c 1,100,-1
 694 260 l 1,101,102
 694 183 694 183 656 118 c 128,-1,103
 618 53 618 53 553 16 c 0,104,105
 487 -23 487 -23 410 -23 c 1,106,-1
 410 -23 l 1,82,83
410 512 m 1,107,108
 410 512 410 512 410 512 c 1,109,110
 342 512 342 512 284 478 c 128,-1,111
 226 444 226 444 192 386 c 128,-1,112
 158 328 158 328 158 260 c 128,-1,113
 158 192 158 192 192 134 c 128,-1,114
 226 76 226 76 284 42 c 128,-1,115
 342 8 342 8 410 8 c 128,-1,116
 478 8 478 8 536 42 c 128,-1,117
 594 76 594 76 628 134 c 128,-1,118
 662 192 662 192 662 260 c 1,119,120
 662 260 662 260 662 260 c 1,121,-1
 662 260 l 1,122,123
 662 329 662 329 628.5 387 c 128,-1,124
 595 445 595 445 537 478.5 c 128,-1,125
 479 512 479 512 410 512 c 1,126,-1
 410 512 l 1,107,108
415 180 m 1,127,128
 391 181 391 181 373.5 198.5 c 128,-1,129
 356 216 356 216 356 240.5 c 128,-1,130
 356 265 356 265 374 283 c 1,131,-1
 374 283 l 1,132,133
 390 299 390 299 410 300 c 1,134,-1
 560 386 l 1,135,-1
 474 236 l 1,136,137
 472 213 472 213 455 196.5 c 128,-1,138
 438 180 438 180 415 180 c 1,139,140
 415 180 415 180 415 180 c 1,141,-1
 415 180 l 1,127,128
415 269 m 1,142,143
 415 269 415 269 414 269 c 0,144,145
 403 269 403 269 394 260 c 1,146,-1
 394 260 l 1,147,148
 386 252 386 252 386 240.5 c 128,-1,149
 386 229 386 229 394.5 220.5 c 128,-1,150
 403 212 403 212 414.5 212 c 128,-1,151
 426 212 426 212 434 220 c 128,-1,152
 442 228 442 228 443 239 c 2,153,-1
 443 244 l 1,154,-1
 475 300 l 1,155,-1
 419 268 l 1,156,-1
 414 268 l 1,157,-1
 415 269 l 1,142,143
EndSplineSet
EndChar

StartChar: glyph-106
Encoding: 59716 59716 27
Width: 821
Flags: W
LayerCount: 2
Fore
SplineSet
415 180 m 5,0,1
 391 181 391 181 373.5 198.5 c 132,-1,2
 356 216 356 216 356 240.5 c 132,-1,3
 356 265 356 265 374 283 c 5,4,-1
 374 283 l 5,5,6
 390 299 390 299 410 300 c 5,7,-1
 560 386 l 5,8,-1
 474 236 l 5,9,10
 472 213 472 213 455 196.5 c 132,-1,11
 438 180 438 180 415 180 c 5,12,13
 415 180 415 180 415 180 c 5,14,-1
 415 180 l 5,0,1
415 269 m 5,15,16
 415 269 415 269 414 269 c 4,17,18
 403 269 403 269 394 260 c 5,19,-1
 394 260 l 5,20,21
 386 252 386 252 386 240.5 c 132,-1,22
 386 229 386 229 394.5 220.5 c 132,-1,23
 403 212 403 212 414.5 212 c 132,-1,24
 426 212 426 212 434 220 c 132,-1,25
 442 228 442 228 443 239 c 6,26,-1
 443 244 l 5,27,-1
 475 300 l 5,28,-1
 419 268 l 5,29,-1
 414 268 l 5,30,-1
 415 269 l 5,15,16
410 -23 m 1,31,32
 410 -23 410 -23 410 -23 c 1,33,34
 333 -23 333 -23 267 16 c 0,35,36
 203 53 203 53 166 117 c 0,37,38
 127 183 127 183 127 260 c 128,-1,39
 127 337 127 337 166 403 c 0,40,41
 203 467 203 467 267 505 c 0,42,43
 333 544 333 544 410 544 c 128,-1,44
 487 544 487 544 553 505 c 0,45,46
 618 468 618 468 655 403 c 0,47,48
 694 337 694 337 694 260 c 1,49,-1
 694 260 l 1,50,51
 694 183 694 183 656 118 c 128,-1,52
 618 53 618 53 553 16 c 0,53,54
 487 -23 487 -23 410 -23 c 1,55,-1
 410 -23 l 1,31,32
410 512 m 1,56,57
 410 512 410 512 410 512 c 1,58,59
 342 512 342 512 284 478 c 128,-1,60
 226 444 226 444 192 386 c 128,-1,61
 158 328 158 328 158 260 c 128,-1,62
 158 192 158 192 192 134 c 128,-1,63
 226 76 226 76 284 42 c 128,-1,64
 342 8 342 8 410 8 c 128,-1,65
 478 8 478 8 536 42 c 128,-1,66
 594 76 594 76 628 134 c 128,-1,67
 662 192 662 192 662 260 c 1,68,69
 662 260 662 260 662 260 c 1,70,-1
 662 260 l 1,71,72
 662 329 662 329 628.5 387 c 128,-1,73
 595 445 595 445 537 478.5 c 128,-1,74
 479 512 479 512 410 512 c 1,75,-1
 410 512 l 1,56,57
410 -150 m 2,76,77
 299 -150 299 -150 203 -94 c 0,78,79
 110 -40 110 -40 56 53 c 0,80,81
 0 149 0 149 0 260 c 128,-1,82
 0 371 0 371 56 467 c 0,83,84
 111 560 111 560 203 615 c 0,85,86
 299 671 299 671 410.5 671 c 128,-1,87
 522 671 522 671 617 615 c 0,88,89
 710 560 710 560 765 467 c 0,90,91
 821 372 821 372 821 260 c 1,92,-1
 821 260 l 1,93,94
 821 149 821 149 765 53 c 0,95,96
 711 -40 711 -40 618 -94 c 0,97,98
 522 -150 522 -150 411 -150 c 2,99,-1
 410 -150 l 2,76,77
410 639 m 1,100,101
 307 639 307 639 219 587 c 0,102,103
 134 537 134 537 84 452 c 0,104,105
 32 363 32 363 32 260 c 128,-1,106
 32 157 32 157 84 68 c 0,107,108
 134 -17 134 -17 219 -67 c 0,109,110
 307 -119 307 -119 410 -119 c 128,-1,111
 513 -119 513 -119 602 -67 c 0,112,113
 687 -17 687 -17 737 69 c 0,114,115
 789 157 789 157 789 260 c 1,116,-1
 789 260 l 1,117,118
 789 363 789 363 737 452 c 0,119,120
 687 537 687 537 602 587 c 0,121,122
 513 639 513 639 410 639 c 1,123,-1
 410 639 l 1,100,101
464 850 m 1,124,-1
 344 850 l 1,125,-1
 341 850 l 2,126,127
 315 850 315 850 297 832 c 128,-1,128
 279 814 279 814 279 789 c 128,-1,129
 279 764 279 764 297.5 745.5 c 128,-1,130
 316 727 316 727 341 727 c 2,131,-1
 345 727 l 1,132,-1
 344 727 l 1,133,-1
 373 727 l 1,134,-1
 373 639 l 1,135,-1
 448 639 l 1,136,-1
 448 727 l 1,137,-1
 464 727 l 2,138,139
 488 729 488 729 505 746.5 c 128,-1,140
 522 764 522 764 522 789 c 128,-1,141
 522 814 522 814 505 831 c 128,-1,142
 488 848 488 848 464 850 c 1,143,-1
 464 850 l 1,124,-1
417 671 m 1,144,-1
 404 671 l 1,145,-1
 404 727 l 1,146,-1
 417 727 l 1,147,-1
 417 671 l 1,144,-1
464 759 m 1,148,-1
 344 759 l 1,149,-1
 342 759 l 2,150,151
 329 759 329 759 320.5 767.5 c 128,-1,152
 312 776 312 776 312 789 c 128,-1,153
 312 802 312 802 320.5 810.5 c 128,-1,154
 329 819 329 819 342 819 c 2,155,-1
 345 819 l 1,156,-1
 344 819 l 1,157,-1
 464 819 l 2,158,159
 475 817 475 817 483 808.5 c 128,-1,160
 491 800 491 800 491 789 c 128,-1,161
 491 778 491 778 483 769 c 128,-1,162
 475 760 475 760 464 759 c 1,163,-1
 464 759 l 1,148,-1
EndSplineSet
EndChar

StartChar: descrizione
Encoding: 59720 59720 28
Width: 868
Flags: W
LayerCount: 2
Fore
SplineSet
0 850 m 1,0,-1
 869 850 l 1,1,-1
 869 779 l 1,2,-1
 0 779 l 1,3,-1
 0 850 l 1,0,-1
0 618 m 1,4,-1
 869 618 l 1,5,-1
 869 547 l 1,6,-1
 0 547 l 1,7,-1
 0 618 l 1,4,-1
0 385 m 1,8,-1
 869 385 l 1,9,-1
 869 315 l 1,10,-1
 0 315 l 1,11,-1
 0 385 l 1,8,-1
0 153 m 1,12,-1
 869 153 l 1,13,-1
 869 82 l 1,14,-1
 0 82 l 1,15,-1
 0 153 l 1,12,-1
0 -79 m 1,16,-1
 635 -79 l 1,17,-1
 635 -150 l 1,18,-1
 0 -150 l 1,19,-1
 0 -79 l 1,16,-1
EndSplineSet
EndChar

StartChar: glyph-102
Encoding: 59721 59721 29
Width: 543
Flags: W
LayerCount: 2
Fore
SplineSet
385 229 m 5,0,1
 390 231 390 231 392 233 c 6,2,-1
 350 233 l 5,3,4
 359 227 359 227 371 227 c 4,5,6
 377 227 377 227 385 229 c 5,7,-1
 385 229 l 5,0,1
523 2 m 1,8,-1
 243 2 l 2,9,10
 235 2 235 2 228.5 8 c 128,-1,11
 222 14 222 14 222 22 c 2,12,-1
 222 195 l 2,13,14
 222 204 222 204 228.5 210 c 128,-1,15
 235 216 235 216 243 216 c 2,16,-1
 334 216 l 1,17,-1
 334 234 l 2,18,19
 334 238 334 238 336.5 240.5 c 128,-1,20
 339 243 339 243 343 243 c 2,21,-1
 423 243 l 2,22,23
 427 243 427 243 429.5 240.5 c 128,-1,24
 432 238 432 238 432 234 c 2,25,-1
 432 216 l 1,26,-1
 523 216 l 2,27,28
 531 216 531 216 537 210 c 128,-1,29
 543 204 543 204 543 195 c 2,30,-1
 543 22 l 1,31,32
 543 22 543 22 543 22 c 1,33,34
 543 14 543 14 537 8 c 128,-1,35
 531 2 531 2 523 2 c 1,36,-1
 523 2 l 1,8,-1
243 214 m 2,37,38
 236 214 236 214 230.5 208.5 c 128,-1,39
 225 203 225 203 225 195 c 2,40,-1
 225 22 l 1,41,42
 225 22 225 22 225 22 c 1,43,44
 225 15 225 15 230.5 9.5 c 128,-1,45
 236 4 236 4 243 4 c 1,46,47
 243 4 243 4 243 4 c 1,48,-1
 523 4 l 1,49,50
 523 4 523 4 523 4 c 1,51,52
 531 4 531 4 536 9.5 c 128,-1,53
 541 15 541 15 541 22 c 1,54,55
 541 22 541 22 541 22 c 1,56,-1
 541 195 l 2,57,58
 541 203 541 203 535.5 208.5 c 128,-1,59
 530 214 530 214 523 214 c 2,60,-1
 430 214 l 1,61,-1
 430 234 l 2,62,63
 430 237 430 237 428 239 c 128,-1,64
 426 241 426 241 423 241 c 2,65,-1
 343 241 l 2,66,67
 340 241 340 241 338 239 c 128,-1,68
 336 237 336 237 336 234 c 2,69,-1
 336 214 l 1,70,-1
 243 214 l 2,37,38
523 9 m 1,71,-1
 243 9 l 2,72,73
 238 10 238 10 234 13.5 c 128,-1,74
 230 17 230 17 230 22 c 1,75,76
 230 22 230 22 230 22 c 1,77,-1
 230 91 l 1,78,-1
 350 91 l 1,79,-1
 350 81 l 2,80,81
 350 78 350 78 352 76 c 128,-1,82
 354 74 354 74 357 74 c 2,83,-1
 410 74 l 2,84,85
 413 74 413 74 415 76 c 128,-1,86
 417 78 417 78 417 81 c 2,87,-1
 417 91 l 1,88,-1
 537 91 l 1,89,-1
 537 22 l 2,90,91
 537 17 537 17 533 13 c 128,-1,92
 529 9 529 9 524 9 c 2,93,-1
 523 9 l 1,71,-1
233 88 m 1,94,-1
 233 22 l 1,95,96
 233 22 233 22 233 22 c 1,97,98
 233 18 233 18 236 15 c 128,-1,99
 239 12 239 12 243 12 c 1,100,101
 243 12 243 12 243 12 c 1,102,-1
 523 12 l 1,103,104
 523 12 523 12 523 12 c 1,105,106
 527 12 527 12 530 15 c 128,-1,107
 533 18 533 18 533 22 c 1,108,109
 533 22 533 22 533 22 c 1,110,-1
 533 88 l 1,111,-1
 418 88 l 1,112,-1
 418 81 l 2,113,114
 418 77 418 77 415.5 74.5 c 128,-1,115
 413 72 413 72 409 72 c 2,116,-1
 357 72 l 2,117,118
 353 72 353 72 350 74.5 c 128,-1,119
 347 77 347 77 347 81 c 2,120,-1
 347 88 l 1,121,-1
 233 88 l 1,94,-1
424 214 m 1,122,-1
 341 214 l 1,123,-1
 341 235 l 1,124,-1
 424 235 l 1,125,-1
 424 214 l 1,122,-1
344 216 m 1,126,-1
 422 216 l 1,127,-1
 422 233 l 1,128,-1
 344 233 l 1,129,-1
 344 216 l 1,126,-1
523 215 m 1,130,-1
 431 215 l 1,131,-1
 431 234 l 2,132,133
 431 237 431 237 428.5 239.5 c 128,-1,134
 426 242 426 242 423 242 c 2,135,-1
 343 242 l 2,136,137
 339 242 339 242 337 239.5 c 128,-1,138
 335 237 335 237 335 234 c 2,139,-1
 335 215 l 1,140,-1
 243 215 l 2,141,142
 235 214 235 214 229.5 208.5 c 128,-1,143
 224 203 224 203 223 195 c 2,144,-1
 223 22 l 2,145,146
 224 14 224 14 229.5 8.5 c 128,-1,147
 235 3 235 3 243 3 c 2,148,-1
 523 3 l 2,149,150
 531 3 531 3 536.5 9 c 128,-1,151
 542 15 542 15 542 22 c 2,152,-1
 542 195 l 2,153,154
 542 203 542 203 536.5 208.5 c 128,-1,155
 531 214 531 214 523 215 c 1,156,-1
 523 215 l 1,130,-1
343 234 m 1,157,-1
 423 234 l 1,158,-1
 423 215 l 1,159,-1
 343 215 l 1,160,-1
 343 234 l 1,157,-1
534 22 m 1,161,162
 534 22 534 22 534 22 c 1,163,164
 534 18 534 18 531 14.5 c 128,-1,165
 528 11 528 11 523 11 c 2,166,-1
 243 11 l 2,167,168
 238 11 238 11 234.5 14.5 c 128,-1,169
 231 18 231 18 231 22 c 1,170,171
 231 22 231 22 231 22 c 1,172,-1
 231 89 l 1,173,-1
 349 89 l 1,174,-1
 349 81 l 2,175,176
 349 73 349 73 357 73 c 2,177,-1
 409 73 l 2,178,179
 412 73 412 73 414.5 75 c 128,-1,180
 417 77 417 77 417 81 c 1,181,182
 417 81 417 81 417 81 c 1,183,-1
 417 90 l 1,184,-1
 534 90 l 1,185,-1
 534 22 l 1,161,162
243 2 m 2,186,187
 235 2 235 2 228.5 8 c 128,-1,188
 222 14 222 14 222 22 c 2,189,-1
 222 195 l 2,190,191
 222 204 222 204 228.5 210 c 128,-1,192
 235 216 235 216 243 216 c 2,193,-1
 279 216 l 1,194,-1
 291 366 l 1,195,196
 291 366 291 366 291 366 c 1,197,-1
 330 255 l 2,198,199
 334 245 334 245 338 241 c 1,200,-1
 338 242 l 1,201,-1
 342 243 l 1,202,-1
 342 243 l 1,203,-1
 404 243 l 1,204,205
 412 253 412 253 414 268 c 2,206,-1
 414 270 l 2,207,208
 414 278 414 278 411 284 c 1,209,-1
 411 284 l 1,210,211
 312 554 312 554 306 573 c 1,212,-1
 306 573 l 1,213,214
 304 586 304 586 295 594.5 c 128,-1,215
 286 603 286 603 273 603 c 2,216,-1
 41 605 l 2,217,218
 29 605 29 605 16 596 c 1,219,-1
 16 596 l 1,220,221
 6 586 6 586 6 572 c 2,222,-1
 6 571 l 1,223,-1
 6 572 l 1,224,-1
 1 257 l 1,225,226
 1 257 1 257 1 257 c 1,227,228
 1 244 1 244 10 233 c 1,229,-1
 10 233 l 1,230,231
 19 224 19 224 28 223 c 1,232,-1
 49 -98 l 2,233,234
 50 -120 50 -120 65.5 -134.5 c 128,-1,235
 81 -149 81 -149 102 -149 c 2,236,-1
 200 -149 l 2,237,238
 221 -149 221 -149 236.5 -134.5 c 128,-1,239
 252 -120 252 -120 254 -100 c 2,240,-1
 263 2 l 1,241,-1
 243 2 l 2,186,187
270 734 m 256,242,243
 270 702 270 702 254.5 675 c 128,-1,244
 239 648 239 648 212.5 632.5 c 128,-1,245
 186 617 186 617 154 617 c 128,-1,246
 122 617 122 617 95.5 632.5 c 128,-1,247
 69 648 69 648 53 675 c 128,-1,248
 37 702 37 702 37 734 c 128,-1,249
 37 766 37 766 52.5 792.5 c 128,-1,250
 68 819 68 819 95 834.5 c 128,-1,251
 122 850 122 850 154 850 c 128,-1,252
 186 850 186 850 212.5 834.5 c 128,-1,253
 239 819 239 819 254.5 792.5 c 128,-1,254
 270 766 270 766 270 734 c 256,242,243
EndSplineSet
EndChar

StartChar: glyph-99
Encoding: 59726 59726 30
Width: 542
Flags: W
LayerCount: 2
Fore
SplineSet
520 230 m 5,0,-1
 432 230 l 5,1,-1
 432 246 l 5,2,3
 432 246 432 246 432 246 c 5,4,5
 432 251 432 251 429.5 253.5 c 132,-1,6
 427 256 427 256 422 256 c 5,7,8
 422 256 422 256 422 256 c 5,9,-1
 343 256 l 5,10,11
 343 256 343 256 343 256 c 5,12,13
 339 256 339 256 336 253.5 c 132,-1,14
 333 251 333 251 333 246 c 5,15,16
 333 246 333 246 333 246 c 5,17,-1
 333 230 l 5,18,-1
 245 230 l 6,19,20
 236 230 236 230 229.5 223.5 c 132,-1,21
 223 217 223 217 223 207 c 6,22,-1
 223 101 l 5,23,-1
 347 101 l 5,24,-1
 347 95 l 6,25,26
 347 90 347 90 350 87 c 132,-1,27
 353 84 353 84 357 84 c 6,28,-1
 409 84 l 6,29,30
 413 84 413 84 416 87 c 132,-1,31
 419 90 419 90 419 95 c 6,32,-1
 419 101 l 5,33,-1
 543 101 l 5,34,-1
 543 207 l 5,35,36
 543 207 543 207 543 207 c 5,37,38
 543 217 543 217 536.5 223.5 c 132,-1,39
 530 230 530 230 521 230 c 6,40,-1
 520 230 l 5,0,-1
345 230 m 5,41,-1
 345 243 l 5,42,-1
 420 243 l 5,43,-1
 420 230 l 5,44,-1
 345 230 l 5,41,-1
236 113 m 5,45,-1
 236 207 l 6,46,47
 236 211 236 211 238.5 214 c 132,-1,48
 241 217 241 217 245 217 c 6,49,-1
 521 217 l 6,50,51
 524 217 524 217 526.5 214.5 c 132,-1,52
 529 212 529 212 529 208 c 6,53,-1
 529 114 l 5,54,-1
 405 114 l 5,55,-1
 405 97 l 5,56,-1
 359 97 l 5,57,-1
 359 114 l 5,58,-1
 236 113 l 5,45,-1
521 15 m 1,59,-1
 245 15 l 2,60,61
 235 16 235 16 229 22 c 128,-1,62
 223 28 223 28 223 38 c 1,63,64
 223 38 223 38 223 38 c 1,65,-1
 223 110 l 1,66,-1
 236 110 l 1,67,-1
 236 37 l 2,68,69
 236 33 236 33 238.5 30.5 c 128,-1,70
 241 28 241 28 245 28 c 1,71,72
 245 28 245 28 245 28 c 1,73,-1
 521 28 l 1,74,75
 521 28 521 28 521 28 c 1,76,77
 524 28 524 28 526.5 30.5 c 128,-1,78
 529 33 529 33 529 37 c 2,79,-1
 529 110 l 1,80,-1
 542 110 l 1,81,-1
 542 38 l 1,82,83
 542 38 542 38 542 38 c 1,84,85
 542 28 542 28 536 22 c 128,-1,86
 530 16 530 16 521 15 c 1,87,-1
 521 15 l 1,59,-1
228 105 m 1,88,-1
 228 38 l 1,89,90
 228 38 228 38 228 38 c 1,91,92
 228 31 228 31 233 26 c 128,-1,93
 238 21 238 21 245 21 c 2,94,-1
 521 21 l 2,95,96
 528 21 528 21 532.5 26 c 128,-1,97
 537 31 537 31 537 38 c 1,98,99
 537 38 537 38 537 38 c 1,100,-1
 537 105 l 1,101,-1
 535 105 l 1,102,-1
 535 37 l 2,103,104
 535 32 535 32 530.5 27.5 c 128,-1,105
 526 23 526 23 521 23 c 1,106,107
 521 23 521 23 521 23 c 1,108,-1
 245 23 l 1,109,110
 245 23 245 23 245 23 c 1,111,112
 239 23 239 23 235 27.5 c 128,-1,113
 231 32 231 32 231 37 c 2,114,-1
 231 105 l 1,115,-1
 228 105 l 1,88,-1
521 18 m 1,116,-1
 245 18 l 2,117,118
 237 18 237 18 231 24 c 128,-1,119
 225 30 225 30 225 38 c 1,120,121
 225 38 225 38 225 38 c 1,122,-1
 225 107 l 1,123,-1
 233 107 l 1,124,-1
 233 38 l 1,125,126
 233 38 233 38 233 38 c 1,127,128
 233 33 233 33 236.5 29.5 c 128,-1,129
 240 26 240 26 245 26 c 2,130,-1
 521 26 l 2,131,132
 526 26 526 26 529 29.5 c 128,-1,133
 532 33 532 33 532 38 c 1,134,135
 532 38 532 38 532 38 c 1,136,-1
 532 107 l 1,137,-1
 540 107 l 1,138,-1
 540 37 l 2,139,140
 540 30 540 30 534.5 24 c 128,-1,141
 529 18 529 18 521 18 c 1,142,143
 521 18 521 18 521 18 c 1,144,-1
 521 18 l 1,116,-1
201 -150 m 1,145,-1
 104 -150 l 2,146,147
 82 -150 82 -150 66 -135 c 128,-1,148
 50 -120 50 -120 48 -98 c 2,149,-1
 28 221 l 1,150,151
 15 225 15 225 7.5 235 c 128,-1,152
 0 245 0 245 0 258 c 1,153,154
 0 258 0 258 0 258 c 1,155,-1
 5 571 l 1,156,157
 5 571 5 571 5 571 c 1,158,159
 5 588 5 588 17 598 c 1,160,-1
 17 598 l 1,161,162
 29 608 29 608 43 608 c 2,163,-1
 275 606 l 2,164,165
 288 606 288 606 298.5 597 c 128,-1,166
 309 588 309 588 311 574 c 1,167,-1
 311 574 l 1,168,169
 315 561 315 561 350 465 c 0,170,171
 388 361 388 361 416 287 c 1,172,-1
 416 287 l 1,173,174
 418 277 418 277 418 272 c 2,175,-1
 418 269 l 2,176,177
 417 255 417 255 409 244 c 128,-1,178
 401 233 401 233 388 228 c 1,179,-1
 388 228 l 1,180,181
 383 226 383 226 373 226 c 0,182,183
 358 226 358 226 346.5 234 c 128,-1,184
 335 242 335 242 330 256 c 2,185,-1
 294 356 l 1,186,-1
 285 237 l 1,187,-1
 271 237 l 2,188,189
 253 237 253 237 252 238 c 2,190,-1
 273 509 l 2,191,192
 273 511 273 511 275 511 c 2,193,-1
 276 511 l 2,194,195
 278 511 278 511 278 509 c 2,196,-1
 362 267 l 2,197,198
 364 264 364 264 368 261 c 2,199,-1
 372 260 l 1,200,-1
 376 261 l 2,201,202
 384 264 384 264 384 272 c 2,203,-1
 290 530 l 2,204,205
 281 557 281 557 279 567 c 1,206,-1
 277 567 l 1,207,-1
 277 570 l 2,208,209
 276 571 276 571 275 571 c 2,210,-1
 42 573 l 1,211,212
 42 573 42 573 42 573 c 129,-1,213
 42 573 42 573 42 573 c 1,214,-1
 37 258 l 1,215,216
 37 258 37 258 37 258 c 1,217,-1
 37 257 l 1,218,-1
 38 257 l 1,219,-1
 56 264 l 1,220,-1
 58 264 l 1,221,-1
 59 263 l 2,222,223
 60 263 60 263 60 262 c 2,224,-1
 63 243 l 1,225,-1
 83 -93 l 2,226,227
 84 -101 84 -101 90 -107 c 128,-1,228
 96 -113 96 -113 105 -113 c 1,229,230
 105 -113 105 -113 105 -113 c 1,231,-1
 202 -115 l 2,232,233
 210 -114 210 -114 216.5 -108 c 128,-1,234
 223 -102 223 -102 224 -94 c 2,235,-1
 233 -8 l 2,236,237
 233 -6 233 -6 235 -6 c 1,238,-1
 235 -6 l 1,239,240
 258 -7 258 -7 262 -7.5 c 128,-1,241
 266 -8 266 -8 266 -10 c 2,242,-1
 257 -97 l 2,243,244
 255 -119 255 -119 239 -134.5 c 128,-1,245
 223 -150 223 -150 201 -150 c 1,246,-1
 201 -150 l 1,145,-1
42 603 m 2,247,248
 30 603 30 603 20 595 c 1,249,-1
 20 595 l 1,250,251
 12 587 12 587 10 572 c 2,252,-1
 5 258 l 2,253,254
 5 247 5 247 14 236 c 1,255,-1
 14 236 l 1,256,257
 22 230 22 230 30 227 c 2,258,-1
 31 227 l 2,259,260
 33 227 33 227 33 224 c 2,261,-1
 54 -96 l 2,262,263
 55 -116 55 -116 69.5 -130 c 128,-1,264
 84 -144 84 -144 104 -144 c 2,265,-1
 201 -144 l 1,266,267
 201 -144 201 -144 201 -144 c 1,268,269
 221 -144 221 -144 236 -130.5 c 128,-1,270
 251 -117 251 -117 253 -97 c 2,271,-1
 261 -12 l 1,272,-1
 237 -12 l 1,273,-1
 229 -95 l 2,274,275
 227 -106 227 -106 219.5 -113 c 128,-1,276
 212 -120 212 -120 201 -120 c 2,277,-1
 104 -119 l 2,278,279
 94 -119 94 -119 86.5 -112 c 128,-1,280
 79 -105 79 -105 78 -94 c 2,281,-1
 57 241 l 1,282,-1
 55 257 l 1,283,-1
 39 251 l 1,284,-1
 38 251 l 1,285,286
 38 251 38 251 38 251 c 1,287,288
 35 251 35 251 33 254 c 1,289,-1
 33 254 l 1,290,291
 30 256 30 256 30 259 c 2,292,-1
 36 572 l 2,293,294
 36 574 36 574 38 578 c 1,295,-1
 38 578 l 1,296,297
 39 579 39 579 41 579 c 2,298,-1
 276 577 l 2,299,300
 281 577 281 577 282 573 c 1,301,-1
 282 573 l 1,302,303
 282 573 282 573 283 573 c 128,-1,304
 284 573 284 573 284 571 c 1,305,-1
 284 571 l 1,306,307
 310 482 310 482 339 413 c 1,308,-1
 336 422 l 1,309,-1
 389 277 l 2,310,311
 390 276 390 276 390 271.5 c 128,-1,312
 390 267 390 267 389 265 c 1,313,-1
 389 265 l 1,314,315
 386 258 386 258 380 257 c 1,316,-1
 380 257 l 1,317,318
 378 256 378 256 373.5 256 c 128,-1,319
 369 256 369 256 367 257 c 1,320,-1
 367 257 l 1,321,322
 362 259 362 259 359 266 c 2,323,-1
 276 497 l 1,324,-1
 256 242 l 1,325,-1
 281 242 l 1,326,-1
 291 369 l 1,327,-1
 292 371 l 1,328,329
 292 371 292 371 292 371 c 1,330,331
 295 371 295 371 295 369 c 2,332,-1
 334 258 l 2,333,334
 339 247 339 247 349.5 239.5 c 128,-1,335
 360 232 360 232 373 232 c 0,336,337
 382 232 382 232 386 234 c 1,338,-1
 386 234 l 1,339,340
 397 238 397 238 404.5 247.5 c 128,-1,341
 412 257 412 257 413 270 c 2,342,-1
 413 272 l 2,343,344
 413 279 413 279 410 285 c 1,345,-1
 410 285 l 1,346,347
 317 538 317 538 306 573 c 1,348,349
 306 573 306 573 306 573 c 1,350,351
 304 584 304 584 295.5 592 c 128,-1,352
 287 600 287 600 275 600 c 1,353,-1
 275 600 l 1,354,-1
 42 603 l 2,247,248
413 286 m 1,355,-1
 413 286 l 1,356,357
 317 545 317 545 308 574 c 1,358,-1
 308 574 l 1,359,360
 307 587 307 587 297.5 595 c 128,-1,361
 288 603 288 603 275 604 c 2,362,-1
 43 606 l 2,363,364
 30 606 30 606 18 596 c 1,365,-1
 18 596 l 1,366,367
 8 586 8 586 8 572 c 2,368,-1
 3 258 l 2,369,370
 3 244 3 244 12 235 c 1,371,-1
 12 235 l 1,372,373
 21 226 21 226 30 225 c 1,374,-1
 50 -96 l 2,375,376
 51 -117 51 -117 67 -131.5 c 128,-1,377
 83 -146 83 -146 104 -146 c 2,378,-1
 201 -146 l 2,379,380
 222 -146 222 -146 237.5 -131.5 c 128,-1,381
 253 -117 253 -117 255 -97 c 2,382,-1
 263 -10 l 1,383,-1
 234 -8 l 1,384,-1
 225 -94 l 2,385,386
 224 -104 224 -104 217.5 -110.5 c 128,-1,387
 211 -117 211 -117 201 -117 c 1,388,389
 201 -117 201 -117 201 -117 c 1,390,-1
 104 -117 l 2,391,392
 94 -116 94 -116 87.5 -110 c 128,-1,393
 81 -104 81 -104 80 -94 c 2,394,-1
 59 241 l 1,395,-1
 56 261 l 1,396,-1
 37 254 l 2,397,398
 35 254 35 254 34 255 c 1,399,-1
 34 255 l 1,400,401
 33 256 33 256 33 257 c 128,-1,402
 33 258 33 258 33 258 c 1,403,-1
 38 572 l 1,404,405
 38 572 38 572 38 572 c 1,406,407
 38 575 38 575 39 575 c 2,408,-1
 42 577 l 1,409,-1
 275 575 l 2,410,411
 280 573 280 573 280 570 c 2,412,-1
 282 570 l 1,413,414
 305 488 305 488 337 411 c 2,415,-1
 333 421 l 1,416,-1
 387 276 l 1,417,-1
 388 271 l 1,418,-1
 387 266 l 1,419,-1
 387 266 l 1,420,421
 384 261 384 261 379 259 c 1,422,-1
 379 259 l 1,423,424
 377 258 377 258 373.5 258 c 128,-1,425
 370 258 370 258 366.5 260.5 c 128,-1,426
 363 263 363 263 362 267 c 2,427,-1
 275 508 l 1,428,-1
 254 239 l 1,429,-1
 284 239 l 1,430,-1
 292 368 l 1,431,-1
 331 257 l 2,432,433
 334 243 334 243 345.5 233.5 c 128,-1,434
 357 224 357 224 373 224 c 0,435,436
 391 224 391 224 403.5 236.5 c 128,-1,437
 416 249 416 249 416 267 c 2,438,-1
 416 270 l 1,439,-1
 416 269 l 1,440,-1
 416 272 l 2,441,442
 416 279 416 279 413 286 c 1,443,-1
 413 286 l 1,355,-1
156 850 m 1,444,445
 156 850 156 850 155 850 c 0,446,447
 124 850 124 850 97 834.5 c 128,-1,448
 70 819 70 819 54.5 792 c 128,-1,449
 39 765 39 765 39 734 c 128,-1,450
 39 703 39 703 54.5 676 c 128,-1,451
 70 649 70 649 97 633.5 c 128,-1,452
 124 618 124 618 155 618 c 128,-1,453
 186 618 186 618 213 633.5 c 128,-1,454
 240 649 240 649 255.5 676 c 128,-1,455
 271 703 271 703 271 734 c 1,456,-1
 271 734 l 1,457,458
 271 734 271 734 271 734 c 1,459,460
 271 766 271 766 255.5 792.5 c 128,-1,461
 240 819 240 819 213.5 834.5 c 128,-1,462
 187 850 187 850 156 850 c 1,463,-1
 156 850 l 1,444,445
236 734 m 1,464,465
 236 734 236 734 236 734 c 1,466,467
 236 701 236 701 212.5 677.5 c 128,-1,468
 189 654 189 654 156 654 c 128,-1,469
 123 654 123 654 99.5 677.5 c 128,-1,470
 76 701 76 701 76 734 c 128,-1,471
 76 767 76 767 99.5 790 c 128,-1,472
 123 813 123 813 156 813 c 1,473,-1
 156 813 l 1,474,475
 156 813 156 813 156 813 c 1,476,477
 189 813 189 813 212.5 790 c 128,-1,478
 236 767 236 767 236 734 c 1,479,-1
 236 734 l 1,464,465
EndSplineSet
EndChar

StartChar: donna_hover
Encoding: 59732 59732 31
Width: 427
Flags: W
LayerCount: 2
Fore
SplineSet
326 738 m 256,0,1
 326 707 326 707 311 681 c 128,-1,2
 296 655 296 655 270.5 640 c 128,-1,3
 245 625 245 625 214 625 c 128,-1,4
 183 625 183 625 157.5 640 c 128,-1,5
 132 655 132 655 116.5 681 c 128,-1,6
 101 707 101 707 101 737.5 c 128,-1,7
 101 768 101 768 116.5 794 c 128,-1,8
 132 820 132 820 157.5 835 c 128,-1,9
 183 850 183 850 214 850 c 128,-1,10
 245 850 245 850 270.5 835 c 128,-1,11
 296 820 296 820 311 794.5 c 128,-1,12
 326 769 326 769 326 738 c 256,0,1
427 79 m 1,13,-1
 342 539 l 2,14,15
 338 561 338 561 320.5 575.5 c 128,-1,16
 303 590 303 590 281 590 c 1,17,18
 281 590 281 590 281 590 c 1,19,-1
 150 590 l 2,20,21
 128 589 128 589 111 575 c 128,-1,22
 94 561 94 561 89 539 c 2,23,-1
 1 79 l 2,24,25
 0 77 0 77 0 73 c 0,26,27
 0 61 0 61 8 51 c 1,28,-1
 8 51 l 1,29,30
 18 39 18 39 34 39 c 1,31,32
 34 39 34 39 34 39 c 1,33,-1
 129 39 l 1,34,-1
 129 -88 l 2,35,36
 129 -113 129 -113 147.5 -131.5 c 128,-1,37
 166 -150 166 -150 191 -150 c 2,38,-1
 237 -150 l 2,39,40
 263 -150 263 -150 281 -131.5 c 128,-1,41
 299 -113 299 -113 299 -88 c 2,42,-1
 299 39 l 1,43,-1
 394 39 l 1,44,45
 394 39 394 39 394 39 c 1,46,47
 408 39 408 39 418 49 c 128,-1,48
 428 59 428 59 428 73 c 0,49,50
 428 77 428 77 427 79 c 1,51,-1
 427 79 l 1,13,-1
EndSplineSet
EndChar

StartChar: glyph-114
Encoding: 59733 59733 32
Width: 443
Flags: W
LayerCount: 2
Fore
SplineSet
443 89 m 5,0,-1
 360 536 l 6,1,2
 355 563 355 563 334 580 c 132,-1,3
 313 597 313 597 286 597 c 5,4,5
 286 597 286 597 286 597 c 5,6,-1
 159 597 l 6,7,8
 132 597 132 597 111.5 580 c 132,-1,9
 91 563 91 563 86 537 c 6,10,-1
 1 89 l 6,11,12
 0 87 0 87 0 80 c 4,13,14
 0 64 0 64 11 51 c 5,15,-1
 11 51 l 5,16,17
 23 34 23 34 47 34 c 5,18,19
 47 34 47 34 47 34 c 5,20,-1
 125 34 l 5,21,-1
 125 -76 l 6,22,23
 125 -107 125 -107 147 -128.5 c 132,-1,24
 169 -150 169 -150 200 -150 c 5,25,26
 200 -150 200 -150 200 -150 c 5,27,-1
 244 -150 l 5,28,29
 244 -150 244 -150 244 -150 c 5,30,31
 275 -150 275 -150 297 -128.5 c 132,-1,32
 319 -107 319 -107 319 -76 c 5,33,34
 319 -76 319 -76 319 -76 c 5,35,-1
 319 34 l 5,36,-1
 397 34 l 6,37,38
 417 34 417 34 430.5 48 c 132,-1,39
 444 62 444 62 444 81 c 4,40,41
 444 87 444 87 443 89 c 5,42,-1
 443 89 l 5,0,-1
47 72 m 5,43,44
 47 72 47 72 47 72 c 5,45,46
 43 72 43 72 40 75 c 5,47,-1
 40 75 l 5,48,49
 38 77 38 77 38 81 c 6,50,-1
 123 529 l 6,51,52
 126 542 126 542 136 550.5 c 132,-1,53
 146 559 146 559 159 559 c 6,54,-1
 287 559 l 6,55,56
 300 559 300 559 310 550.5 c 132,-1,57
 320 542 320 542 323 529 c 6,58,-1
 406 82 l 5,59,-1
 406 80 l 6,60,61
 406 76 406 76 403.5 73.5 c 132,-1,62
 401 71 401 71 397 71 c 6,63,-1
 280 71 l 5,64,-1
 280 -75 l 6,65,66
 280 -90 280 -90 269.5 -100.5 c 132,-1,67
 259 -111 259 -111 244 -111 c 6,68,-1
 200 -111 l 6,69,70
 185 -111 185 -111 174 -100.5 c 132,-1,71
 163 -90 163 -90 163 -75 c 6,72,-1
 163 71 l 5,73,-1
 47 72 l 5,43,44
443 89 m 1,74,-1
 360 536 l 2,75,76
 355 563 355 563 334 580 c 128,-1,77
 313 597 313 597 286 597 c 1,78,79
 286 597 286 597 286 597 c 1,80,-1
 159 597 l 2,81,82
 132 597 132 597 111.5 580 c 128,-1,83
 91 563 91 563 86 537 c 2,84,-1
 1 89 l 2,85,86
 0 87 0 87 0 80 c 0,87,88
 0 64 0 64 11 51 c 1,89,-1
 11 51 l 1,90,91
 23 34 23 34 47 34 c 1,92,93
 47 34 47 34 47 34 c 1,94,-1
 125 34 l 1,95,-1
 125 -76 l 2,96,97
 125 -107 125 -107 147 -128.5 c 128,-1,98
 169 -150 169 -150 200 -150 c 1,99,100
 200 -150 200 -150 200 -150 c 1,101,-1
 244 -150 l 1,102,103
 244 -150 244 -150 244 -150 c 1,104,105
 275 -150 275 -150 297 -128.5 c 128,-1,106
 319 -107 319 -107 319 -76 c 1,107,108
 319 -76 319 -76 319 -76 c 1,109,-1
 319 34 l 1,110,-1
 397 34 l 2,111,112
 417 34 417 34 430.5 48 c 128,-1,113
 444 62 444 62 444 81 c 0,114,115
 444 87 444 87 443 89 c 1,116,-1
 443 89 l 1,74,-1
47 72 m 1,117,118
 47 72 47 72 47 72 c 1,119,120
 43 72 43 72 40 75 c 1,121,-1
 40 75 l 1,122,123
 38 77 38 77 38 81 c 2,124,-1
 123 529 l 2,125,126
 126 542 126 542 136 550.5 c 128,-1,127
 146 559 146 559 159 559 c 2,128,-1
 287 559 l 2,129,130
 300 559 300 559 310 550.5 c 128,-1,131
 320 542 320 542 323 529 c 2,132,-1
 406 82 l 1,133,-1
 406 80 l 2,134,135
 406 76 406 76 403.5 73.5 c 128,-1,136
 401 71 401 71 397 71 c 2,137,-1
 280 71 l 1,138,-1
 280 -75 l 2,139,140
 280 -90 280 -90 269.5 -100.5 c 128,-1,141
 259 -111 259 -111 244 -111 c 2,142,-1
 200 -111 l 2,143,144
 185 -111 185 -111 174 -100.5 c 128,-1,145
 163 -90 163 -90 163 -75 c 2,146,-1
 163 71 l 1,147,-1
 47 72 l 1,117,118
222 850 m 1,148,149
 222 850 222 850 222 850 c 1,150,151
 188 850 188 850 159.5 833.5 c 128,-1,152
 131 817 131 817 114.5 788.5 c 128,-1,153
 98 760 98 760 98 727 c 128,-1,154
 98 694 98 694 114.5 665.5 c 128,-1,155
 131 637 131 637 159.5 620.5 c 128,-1,156
 188 604 188 604 221.5 604 c 128,-1,157
 255 604 255 604 283.5 620.5 c 128,-1,158
 312 637 312 637 328.5 665.5 c 128,-1,159
 345 694 345 694 345 727 c 1,160,161
 345 727 345 727 345 727 c 1,162,-1
 345 727 l 1,163,164
 345 760 345 760 328.5 788.5 c 128,-1,165
 312 817 312 817 283.5 833.5 c 128,-1,166
 255 850 255 850 222 850 c 1,167,-1
 222 850 l 1,148,149
307 727 m 1,168,169
 307 727 307 727 307 727 c 1,170,171
 307 692 307 692 282 666.5 c 128,-1,172
 257 641 257 641 222 641 c 128,-1,173
 187 641 187 641 161.5 666.5 c 128,-1,174
 136 692 136 692 136 727 c 128,-1,175
 136 762 136 762 161.5 787 c 128,-1,176
 187 812 187 812 222 812 c 1,177,178
 222 812 222 812 222 812 c 1,179,-1
 222 812 l 1,180,181
 257 812 257 812 282 787 c 128,-1,182
 307 762 307 762 307 727 c 1,183,-1
 307 727 l 1,168,169
EndSplineSet
EndChar

StartChar: down
Encoding: 59735 59735 33
Width: 1000
Flags: W
LayerCount: 2
Fore
SplineSet
975 602 m 1,0,1
 946 633 946 633 905 633 c 0,2,3
 869 633 869 633 841 607 c 2,4,-1
 500 290 l 1,5,-1
 159 608 l 2,6,7
 131 636 131 636 92 636 c 128,-1,8
 53 636 53 636 25.5 608 c 128,-1,9
 -2 580 -2 580 -2 541 c 0,10,11
 -2 499 -2 499 30 470 c 2,12,-1
 435 92 l 2,13,14
 463 66 463 66 500 66 c 128,-1,15
 537 66 537 66 565 92 c 2,16,-1
 970 470 l 2,17,18
 1000 500 1000 500 1000 539 c 0,19,20
 1000 575 1000 575 975 603 c 1,21,-1
 975 602 l 1,0,1
EndSplineSet
EndChar

StartChar: download
Encoding: 59736 59736 34
Width: 1000
Flags: W
LayerCount: 2
Fore
SplineSet
476 86 m 2,0,1
 484 78 484 78 495 78 c 1,2,3
 495 78 495 78 495 78 c 1,4,-1
 495 78 l 1,5,6
 506 78 506 78 514 86 c 2,7,-1
 693 265 l 2,8,9
 701 273 701 273 701 284 c 128,-1,10
 701 295 701 295 693 303 c 128,-1,11
 685 311 685 311 674 311 c 1,12,13
 674 311 674 311 674 311 c 1,14,-1
 541 311 l 1,15,-1
 541 805 l 2,16,17
 541 824 541 824 527.5 837 c 128,-1,18
 514 850 514 850 495 850 c 128,-1,19
 476 850 476 850 463 837 c 128,-1,20
 450 824 450 824 450 805 c 2,21,-1
 450 311 l 1,22,-1
 316 311 l 2,23,24
 305 311 305 311 297 303 c 128,-1,25
 289 295 289 295 289 284 c 128,-1,26
 289 273 289 273 297 265 c 1,27,-1
 297 265 l 1,28,-1
 476 86 l 2,0,1
49 -17 m 2,29,-1
 951 -17 l 2,30,31
 963 -17 963 -17 971 -25 c 128,-1,32
 979 -33 979 -33 979 -45 c 2,33,-1
 979 -114 l 2,34,35
 979 -126 979 -126 971 -134 c 128,-1,36
 963 -142 963 -142 951 -142 c 2,37,-1
 49 -142 l 2,38,39
 37 -142 37 -142 28.5 -134 c 128,-1,40
 20 -126 20 -126 20 -114 c 2,41,-1
 20 -45 l 2,42,43
 20 -33 20 -33 28.5 -25 c 128,-1,44
 37 -17 37 -17 49 -17 c 2,29,-1
EndSplineSet
EndChar

StartChar: dx_hover
Encoding: 59737 59737 35
Width: 1000
Flags: W
LayerCount: 2
Fore
SplineSet
992 368 m 1,0,-1
 757 602 l 2,1,2
 748 611 748 611 736.5 611 c 128,-1,3
 725 611 725 611 716.5 602.5 c 128,-1,4
 708 594 708 594 708 582 c 2,5,-1
 708 399 l 1,6,-1
 53 399 l 1,7,8
 53 399 53 399 53 399 c 1,9,10
 31 399 31 399 15.5 384 c 128,-1,11
 0 369 0 369 0 347 c 1,12,-1
 0 347 l 1,13,14
 0 325 0 325 15.5 309.5 c 128,-1,15
 31 294 31 294 53 294 c 2,16,-1
 708 294 l 1,17,-1
 708 111 l 2,18,19
 708 99 708 99 716.5 91 c 128,-1,20
 725 83 725 83 737 83 c 128,-1,21
 749 83 749 83 757 91 c 2,22,-1
 992 326 l 2,23,24
 1001 335 1001 335 1001 347 c 128,-1,25
 1001 359 1001 359 992 368 c 1,26,-1
 992 368 l 1,0,-1
EndSplineSet
EndChar

StartChar: dx
Encoding: 59738 59738 36
Width: 1000
Flags: W
LayerCount: 2
Fore
SplineSet
987 381 m 1,0,-1
 760 608 l 2,1,2
 747 621 747 621 728.5 621 c 128,-1,3
 710 621 710 621 697 608 c 128,-1,4
 684 595 684 595 684 576 c 2,5,-1
 684 418 l 1,6,-1
 69 418 l 2,7,8
 41 418 41 418 20.5 398 c 128,-1,9
 0 378 0 378 0 349.5 c 128,-1,10
 0 321 0 321 20 301 c 128,-1,11
 40 281 40 281 69 281 c 2,12,-1
 684 281 l 1,13,-1
 684 122 l 2,14,15
 684 108 684 108 691.5 97 c 128,-1,16
 699 86 699 86 711 81 c 1,17,-1
 711 81 l 1,18,19
 719 78 719 78 726 78 c 2,20,-1
 729 78 l 2,21,22
 749 78 749 78 761 92 c 2,23,-1
 987 318 l 2,24,25
 1000 331 1000 331 1000 349.5 c 128,-1,26
 1000 368 1000 368 987 381 c 1,27,-1
 987 381 l 1,0,-1
69 315 m 2,28,29
 68 315 68 315 66 315 c 0,30,31
 52 315 52 315 42 325 c 128,-1,32
 32 335 32 335 32 349 c 128,-1,33
 32 363 32 363 42 373 c 128,-1,34
 52 383 52 383 66 383 c 2,35,-1
 718 383 l 1,36,-1
 718 576 l 1,37,38
 718 576 718 576 718 576 c 1,39,40
 718 580 718 580 721 583.5 c 128,-1,41
 724 587 724 587 728 587 c 128,-1,42
 732 587 732 587 736 583 c 2,43,-1
 963 357 l 1,44,-1
 964 356 l 2,45,46
 966 351 966 351 966 349 c 128,-1,47
 966 347 966 347 964 344 c 2,48,-1
 963 342 l 1,49,-1
 736 115 l 2,50,51
 733 112 733 112 728.5 112 c 128,-1,52
 724 112 724 112 721 115 c 128,-1,53
 718 118 718 118 718 122 c 2,54,-1
 718 315 l 1,55,-1
 69 315 l 2,28,29
EndSplineSet
EndChar

StartChar: elimina
Encoding: 59739 59739 37
Width: 1000
Flags: W
LayerCount: 2
Fore
SplineSet
500 850 m 1,0,1
 364 850 364 850 248 782 c 0,2,3
 135 715 135 715 68 602 c 0,4,5
 0 486 0 486 0 350 c 128,-1,6
 0 214 0 214 68 98 c 0,7,8
 135 -15 135 -15 248 -82 c 0,9,10
 364 -150 364 -150 500 -150 c 128,-1,11
 636 -150 636 -150 752 -82 c 0,12,13
 865 -15 865 -15 932 98 c 0,14,15
 1000 214 1000 214 1000 350 c 1,16,-1
 1000 350 l 1,17,18
 1000 486 1000 486 932 602 c 0,19,20
 865 715 865 715 752 782 c 0,21,22
 636 850 636 850 500 850 c 1,23,-1
 500 850 l 1,0,1
737 217 m 2,24,25
 752 202 752 202 752 182.5 c 128,-1,26
 752 163 752 163 737 148 c 2,27,-1
 702 113 l 2,28,29
 687 98 687 98 667.5 98 c 128,-1,30
 648 98 648 98 633 113 c 2,31,-1
 502 243 l 1,32,-1
 367 108 l 2,33,34
 351 94 351 94 332.5 94 c 128,-1,35
 314 94 314 94 298 108 c 2,36,-1
 263 143 l 2,37,38
 248 158 248 158 248 178 c 128,-1,39
 248 198 248 198 263 213 c 2,40,-1
 398 348 l 1,41,-1
 258 487 l 2,42,43
 244 503 244 503 244 522 c 128,-1,44
 244 541 244 541 258 557 c 2,45,-1
 293 592 l 2,46,47
 307 606 307 606 328 606 c 128,-1,48
 349 606 349 606 363 592 c 2,49,-1
 502 452 l 1,50,-1
 637 587 l 2,51,52
 652 602 652 602 672 602 c 128,-1,53
 692 602 692 602 707 587 c 2,54,-1
 742 552 l 2,55,56
 756 538 756 538 756 517.5 c 128,-1,57
 756 497 756 497 742 483 c 2,58,-1
 607 348 l 1,59,-1
 737 217 l 2,24,25
EndSplineSet
EndChar

StartChar: fatturabile
Encoding: 59740 59740 38
Width: 1000
Flags: W
LayerCount: 2
Fore
SplineSet
575 252 m 2,0,1
 575 253 575 253 575 253 c 2,2,3
 575 278 575 278 558 293 c 1,4,-1
 558 293 l 1,5,6
 536 312 536 312 501 324 c 1,7,-1
 500 324 l 1,8,9
 452 336 452 336 417 369 c 1,10,-1
 417 369 l 1,11,12
 391 398 391 398 391 437 c 2,13,-1
 391 441 l 1,14,-1
 391 440 l 1,15,-1
 391 444 l 2,16,17
 391 482 391 482 417 513 c 1,18,-1
 417 513 l 1,19,20
 447 543 447 543 487 546 c 1,21,-1
 487 605 l 1,22,-1
 527 605 l 1,23,-1
 527 546 l 1,24,25
 548 544 548 544 566 534 c 128,-1,26
 584 524 584 524 597 508 c 1,27,-1
 597 508 l 1,28,29
 622 474 622 474 622 429 c 2,30,-1
 622 421 l 1,31,-1
 572 421 l 1,32,-1
 572 426 l 2,33,34
 572 456 572 456 554 482 c 1,35,-1
 554 482 l 1,36,37
 546 492 546 492 533.5 498 c 128,-1,38
 521 504 521 504 508 504 c 2,39,-1
 501 504 l 2,40,41
 474 504 474 504 457 487 c 1,42,-1
 457 487 l 1,43,44
 440 470 440 470 440 445 c 2,45,-1
 440 440 l 2,46,47
 440 414 440 414 458 398 c 1,48,-1
 458 398 l 1,49,50
 486 377 486 377 516 368 c 1,51,-1
 517 368 l 1,52,53
 554 357 554 357 582 338 c 1,54,-1
 581 339 l 1,55,56
 602 324 602 324 614 302 c 1,57,-1
 615 302 l 1,58,59
 625 279 625 279 625 256 c 2,60,-1
 625 248 l 2,61,62
 625 208 625 208 598 179 c 1,63,-1
 598 179 l 1,64,65
 566 148 566 148 521 147 c 1,66,-1
 521 95 l 1,67,-1
 481 95 l 1,68,-1
 481 147 l 1,69,70
 435 148 435 148 403 182 c 1,71,-1
 403 182 l 1,72,73
 375 217 375 217 375 259 c 2,74,-1
 375 267 l 1,75,-1
 425 267 l 1,76,-1
 424 261 l 1,77,78
 424 232 424 232 444 209 c 1,79,-1
 444 209 l 1,80,81
 454 199 454 199 467.5 193.5 c 128,-1,82
 481 188 481 188 496 188 c 2,83,-1
 500 189 l 1,84,-1
 500 189 l 1,85,-1
 504 188 l 1,86,87
 532 188 532 188 555 206 c 1,88,-1
 555 205 l 1,89,90
 575 223 575 223 575 249 c 2,91,-1
 575 252 l 2,0,1
500 -150 m 1,92,93
 364 -150 364 -150 248 -82 c 0,94,95
 135 -15 135 -15 68 98 c 0,96,97
 0 214 0 214 0 350 c 128,-1,98
 0 486 0 486 68 602 c 0,99,100
 135 715 135 715 248 782 c 0,101,102
 364 850 364 850 500 850 c 128,-1,103
 636 850 636 850 752 782 c 0,104,105
 865 715 865 715 932 602 c 0,106,107
 1000 486 1000 486 1000 350 c 1,108,-1
 1000 350 l 1,109,110
 1000 214 1000 214 932 98 c 0,111,112
 865 -15 865 -15 752 -82 c 0,113,114
 636 -150 636 -150 500 -150 c 1,115,-1
 500 -150 l 1,92,93
500 808 m 1,116,117
 376 808 376 808 269 745 c 0,118,119
 165 685 165 685 105 581 c 0,120,121
 42 474 42 474 42 350 c 128,-1,122
 42 226 42 226 105 119 c 0,123,124
 165 15 165 15 269 -45 c 0,125,126
 376 -108 376 -108 500 -108 c 128,-1,127
 624 -108 624 -108 731 -45 c 0,128,129
 835 15 835 15 895 119 c 0,130,131
 958 226 958 226 958 350 c 1,132,-1
 958 350 l 1,133,134
 958 474 958 474 895 581 c 0,135,136
 835 685 835 685 731 745 c 0,137,138
 624 808 624 808 500 808 c 1,139,-1
 500 808 l 1,116,117
500 -25 m 1,140,141
 398 -25 398 -25 311 26 c 0,142,143
 226 76 226 76 176 161 c 0,144,145
 125 248 125 248 125 350 c 128,-1,146
 125 452 125 452 176 539 c 0,147,148
 226 624 226 624 311 674 c 0,149,150
 398 725 398 725 500 725 c 128,-1,151
 602 725 602 725 689 674 c 0,152,153
 774 624 774 624 824 539 c 0,154,155
 875 452 875 452 875 350 c 1,156,-1
 875 350 l 1,157,158
 875 248 875 248 824 161 c 0,159,160
 774 76 774 76 689 26 c 0,161,162
 602 -25 602 -25 500 -25 c 1,163,-1
 500 -25 l 1,140,141
500 683 m 1,164,165
 409 683 409 683 332 638 c 0,166,167
 257 593 257 593 212 518 c 0,168,169
 167 441 167 441 167 350 c 128,-1,170
 167 259 167 259 212 182 c 0,171,172
 257 107 257 107 332 62 c 0,173,174
 409 17 409 17 500 17 c 128,-1,175
 591 17 591 17 668 62 c 0,176,177
 743 107 743 107 788 182 c 0,178,179
 833 259 833 259 833 350 c 1,180,-1
 833 350 l 1,181,182
 833 441 833 441 788 518 c 0,183,184
 743 593 743 593 668 638 c 0,185,186
 591 683 591 683 500 683 c 1,187,-1
 500 683 l 1,164,165
EndSplineSet
EndChar

StartChar: ferie_hover
Encoding: 59741 59741 39
Width: 1000
Flags: W
LayerCount: 2
Fore
SplineSet
733 733 m 1,0,-1
 735 738 l 1,1,-1
 736 744 l 2,2,3
 736 748 736 748 733 754 c 2,4,-1
 732 756 l 1,5,-1
 732 755 l 1,6,7
 727 765 727 765 719 766 c 2,8,-1
 713 767 l 2,9,10
 705 767 705 767 699 762.5 c 128,-1,11
 693 758 693 758 691 750 c 2,12,-1
 690 745 l 1,13,14
 652 753 652 753 611 753 c 0,15,16
 523 753 523 753 444 716 c 0,17,18
 368 679 368 679 313 614.5 c 128,-1,19
 258 550 258 550 236 468 c 2,20,-1
 231 446 l 1,21,-1
 231 443 l 1,22,-1
 249 434 l 1,23,-1
 252 437 l 1,24,25
 269 461 269 461 296 475 c 128,-1,26
 323 489 323 489 354 489 c 0,27,28
 370 489 370 489 388 484 c 1,29,-1
 387 485 l 1,30,31
 422 474 422 474 447 447.5 c 128,-1,32
 472 421 472 421 479 386 c 1,33,-1
 479 385 l 2,34,35
 481 379 481 379 487 377 c 1,36,-1
 487 377 l 1,37,38
 488 376 488 376 491 376 c 128,-1,39
 494 376 494 376 498 380 c 1,40,-1
 498 380 l 1,41,42
 516 401 516 401 541 412.5 c 128,-1,43
 566 424 566 424 595 424 c 2,44,-1
 605 424 l 1,45,-1
 604 424 l 1,46,-1
 497 22 l 1,47,48
 404 29 404 29 283 16 c 0,49,50
 196 8 196 8 104 -10 c 0,51,52
 40 -22 40 -22 28 -26 c 2,53,-1
 0 -33 l 1,54,-1
 743 -73 l 1,55,-1
 736 -66 l 2,56,57
 676 -1 676 -1 542 18 c 1,58,-1
 648 414 l 1,59,60
 676 400 676 400 695 376.5 c 128,-1,61
 714 353 714 353 720 323 c 1,62,-1
 720 322 l 2,63,64
 722 313 722 313 731 313 c 0,65,66
 736 313 736 313 739 317 c 1,67,-1
 739 317 l 1,68,69
 757 338 757 338 782 349.5 c 128,-1,70
 807 361 807 361 836 361 c 0,71,72
 852 361 852 361 869 356 c 1,73,-1
 869 357 l 1,74,75
 905 346 905 346 930 318.5 c 128,-1,76
 955 291 955 291 961 254 c 1,77,-1
 962 254 l 1,78,79
 962 250 962 250 965 247.5 c 128,-1,80
 968 245 968 245 972 244 c 2,81,-1
 973 244 l 2,82,83
 979 244 979 244 983 252 c 2,84,-1
 986 262 l 2,85,86
 1000 310 1000 310 1000 365 c 0,87,88
 1000 449 1000 449 966 525 c 0,89,90
 932 598 932 598 872 652.5 c 128,-1,91
 812 707 812 707 736 733 c 1,92,-1
 733 733 l 1,0,-1
EndSplineSet
EndChar

StartChar: glyph-15
Encoding: 59742 59742 40
Width: 1000
Flags: W
LayerCount: 2
Fore
SplineSet
719 706 m 6,0,1
 723 705 723 705 731 703 c 6,2,-1
 748 697 l 5,3,-1
 753 718 l 6,4,5
 754 720 754 720 754 726 c 4,6,7
 754 736 754 736 750 741 c 5,8,-1
 750 741 l 5,9,10
 744 752 744 752 732 755 c 5,11,-1
 732 755 l 5,12,13
 730 756 730 756 724 756 c 4,14,15
 714 756 714 756 709 752 c 5,16,-1
 709 752 l 5,17,18
 698 746 698 746 695 734 c 6,19,-1
 689 713 l 5,20,-1
 719 706 l 6,0,1
949 560 m 1,21,22
 900 644 900 644 816 694 c 0,23,24
 730 744 730 744 630 744 c 0,25,26
 546 744 546 744 471 708 c 0,27,28
 399 674 399 674 346.5 612 c 128,-1,29
 294 550 294 550 273 472 c 1,30,-1
 273 470 l 2,31,32
 270 461 270 461 268 452 c 2,33,-1
 266 441 l 1,34,-1
 297 428 l 1,35,-1
 303 436 l 2,36,37
 318 457 318 457 341.5 469 c 128,-1,38
 365 481 365 481 392 481 c 0,39,40
 408 481 408 481 420 477 c 1,41,-1
 419 478 l 1,42,43
 450 469 450 469 471 446.5 c 128,-1,44
 492 424 492 424 498 393 c 1,45,-1
 499 392 l 1,46,47
 501 380 501 380 512 377 c 2,48,-1
 517 376 l 2,49,50
 525 376 525 376 532 383 c 1,51,-1
 532 383 l 1,52,53
 547 401 547 401 569 411 c 128,-1,54
 591 421 591 421 615 421 c 0,55,56
 654 421 654 421 684 396 c 128,-1,57
 714 371 714 371 722 333 c 1,58,-1
 722 332 l 2,59,60
 723 325 723 325 728.5 321 c 128,-1,61
 734 317 734 317 742 317 c 128,-1,62
 750 317 750 317 756 323 c 1,63,-1
 756 323 l 1,64,65
 771 341 771 341 792.5 351 c 128,-1,66
 814 361 814 361 838 361 c 0,67,68
 855 361 855 361 867 357 c 1,69,-1
 867 357 l 1,70,71
 898 349 898 349 919.5 325 c 128,-1,72
 941 301 941 301 946 270 c 1,73,-1
 947 269 l 1,74,75
 948 262 948 262 952.5 258 c 128,-1,76
 957 254 957 254 964 253 c 2,77,-1
 965 253 l 2,78,79
 972 253 972 253 977 257 c 128,-1,80
 982 261 982 261 984 267 c 2,81,-1
 987 277 l 2,82,83
 1000 324 1000 324 1000 374 c 0,84,85
 1000 475 1000 475 948 562 c 1,86,-1
 949 560 l 1,21,22
713 708 m 1,87,88
 788 688 788 688 847.5 639 c 128,-1,89
 907 590 907 590 940 522 c 0,90,91
 974 452 974 452 974 373 c 0,92,93
 974 334 974 334 965 296 c 1,94,-1
 965 298 l 1,95,96
 954 329 954 329 930 351 c 128,-1,97
 906 373 906 373 875 381 c 1,98,-1
 874 382 l 1,99,100
 852 386 852 386 839 386 c 1,101,-1
 839 386 l 1,102,103
 812 386 812 386 787.5 376 c 128,-1,104
 763 366 763 366 745 348 c 1,105,-1
 745 348 l 1,106,107
 735 382 735 382 709.5 406.5 c 128,-1,108
 684 431 684 431 651 441 c 1,109,-1
 650 442 l 1,110,111
 628 446 628 446 614 446 c 0,112,113
 587 446 587 446 563 436.5 c 128,-1,114
 539 427 539 427 521 409 c 1,115,-1
 521 409 l 1,116,117
 511 443 511 443 486 467 c 128,-1,118
 461 491 461 491 427 501 c 1,119,-1
 426 501 l 1,120,121
 409 506 409 506 391 506 c 0,122,123
 341 506 341 506 301 471 c 1,124,-1
 301 471 l 1,125,126
 322 543 322 543 371 599 c 128,-1,127
 420 655 420 655 486 686 c 0,128,129
 555 718 555 718 631 718 c 0,130,131
 672 718 672 718 716 707 c 2,132,-1
 713 708 l 1,87,88
750 -23 m 2,133,134
 696 37 696 37 575 55 c 1,135,-1
 675 428 l 1,136,-1
 675 432 l 1,137,-1
 667 436 l 2,138,139
 657 440 657 440 651 441 c 1,140,-1
 651 442 l 1,141,-1
 646 443 l 2,142,143
 636 445 636 445 630 445 c 1,144,-1
 630 445 l 1,145,-1
 619 447 l 1,146,-1
 514 62 l 1,147,148
 402 69 402 69 252 48 c 0,149,150
 174 37 174 37 91 19 c 2,151,-1
 0 -4 l 1,152,-1
 772 -46 l 1,153,-1
 750 -23 l 2,133,134
542 33 m 1,154,-1
 557 32 l 2,155,156
 635 25 635 25 704 -17 c 1,157,-1
 191 12 l 1,158,159
 319 36 319 36 457 36 c 0,160,161
 504 36 504 36 528 35 c 2,162,-1
 524 35 l 1,163,-1
 537 35 l 1,164,-1
 538 47 l 1,165,-1
 638 418 l 1,166,-1
 643 416 l 1,167,-1
 645 416 l 1,168,-1
 542 33 l 1,154,-1
EndSplineSet
EndChar

StartChar: filtro_hover
Encoding: 59745 59745 41
Width: 1000
Flags: W
LayerCount: 2
Fore
SplineSet
27 619 m 1,0,-1
 108 619 l 1,1,2
 118 587 118 587 144.5 567 c 128,-1,3
 171 547 171 547 204.5 547 c 128,-1,4
 238 547 238 547 264.5 567 c 128,-1,5
 291 587 291 587 300 619 c 1,6,-1
 976 619 l 2,7,8
 987 619 987 619 994.5 627 c 128,-1,9
 1002 635 1002 635 1002 646 c 128,-1,10
 1002 657 1002 657 994.5 665 c 128,-1,11
 987 673 987 673 976 673 c 2,12,-1
 300 673 l 1,13,14
 291 705 291 705 264.5 725.5 c 128,-1,15
 238 746 238 746 204 746 c 128,-1,16
 170 746 170 746 143.5 725.5 c 128,-1,17
 117 705 117 705 109 674 c 1,18,-1
 108 673 l 1,19,-1
 25 673 l 2,20,21
 14 673 14 673 6 665 c 128,-1,22
 -2 657 -2 657 -2 646 c 128,-1,23
 -2 635 -2 635 6 627 c 128,-1,24
 14 619 14 619 25 619 c 2,25,-1
 27 619 l 1,0,-1
973 382 m 1,26,-1
 855 382 l 1,27,28
 846 414 846 414 819.5 434 c 128,-1,29
 793 454 793 454 759 454 c 128,-1,30
 725 454 725 454 699 434 c 128,-1,31
 673 414 673 414 664 383 c 1,32,-1
 664 382 l 1,33,-1
 27 382 l 2,34,35
 16 382 16 382 8 374 c 128,-1,36
 0 366 0 366 0 355 c 128,-1,37
 0 344 0 344 8 336 c 128,-1,38
 16 328 16 328 27 328 c 2,39,-1
 664 328 l 1,40,41
 673 296 673 296 699.5 276 c 128,-1,42
 726 256 726 256 759 256 c 128,-1,43
 792 256 792 256 819 276 c 128,-1,44
 846 296 846 296 855 327 c 1,45,-1
 855 328 l 1,46,-1
 973 328 l 2,47,48
 984 328 984 328 992 336 c 128,-1,49
 1000 344 1000 344 1000 355 c 128,-1,50
 1000 366 1000 366 992 374 c 128,-1,51
 984 382 984 382 973 382 c 1,52,-1
 973 382 l 1,26,-1
973 91 m 1,53,-1
 446 91 l 1,54,55
 436 123 436 123 409.5 143 c 128,-1,56
 383 163 383 163 349.5 163 c 128,-1,57
 316 163 316 163 289.5 143 c 128,-1,58
 263 123 263 123 254 91 c 1,59,-1
 25 91 l 2,60,61
 14 91 14 91 6 83 c 128,-1,62
 -2 75 -2 75 -2 64 c 128,-1,63
 -2 53 -2 53 6 45 c 128,-1,64
 14 37 14 37 25 37 c 2,65,-1
 254 37 l 1,66,67
 263 5 263 5 289.5 -15.5 c 128,-1,68
 316 -36 316 -36 350 -36 c 128,-1,69
 384 -36 384 -36 410.5 -15.5 c 128,-1,70
 437 5 437 5 446 36 c 1,71,-1
 446 37 l 1,72,-1
 976 37 l 2,73,74
 987 37 987 37 994.5 45 c 128,-1,75
 1002 53 1002 53 1002 64 c 128,-1,76
 1002 75 1002 75 994.5 83 c 128,-1,77
 987 91 987 91 976 91 c 2,78,-1
 973 91 l 1,53,-1
EndSplineSet
EndChar

StartChar: glyph-119
Encoding: 59746 59746 42
Width: 1000
Flags: W
LayerCount: 2
Fore
SplineSet
327 645 m 5,0,1
 327 678 327 678 310.5 706 c 132,-1,2
 294 734 294 734 265.5 750.5 c 132,-1,3
 237 767 237 767 204 767 c 132,-1,4
 171 767 171 767 143 750.5 c 132,-1,5
 115 734 115 734 98.5 706 c 132,-1,6
 82 678 82 678 82 645 c 132,-1,7
 82 612 82 612 98.5 583.5 c 132,-1,8
 115 555 115 555 143 538.5 c 132,-1,9
 171 522 171 522 204 522 c 5,10,-1
 204 522 l 5,11,12
 237 522 237 522 265.5 538.5 c 132,-1,13
 294 555 294 555 310.5 583.5 c 132,-1,14
 327 612 327 612 327 645 c 5,15,-1
 327 645 l 5,0,1
273 645 m 5,16,17
 273 617 273 617 253 596.5 c 132,-1,18
 233 576 233 576 204.5 576 c 132,-1,19
 176 576 176 576 156 596 c 132,-1,20
 136 616 136 616 136 644.5 c 132,-1,21
 136 673 136 673 156 693 c 132,-1,22
 176 713 176 713 204 713 c 5,23,-1
 204 713 l 5,24,25
 233 713 233 713 253 693 c 132,-1,26
 273 673 273 673 273 645 c 5,27,-1
 273 645 l 5,16,17
350 185 m 1,28,29
 317 185 317 185 289 168.5 c 128,-1,30
 261 152 261 152 244.5 123.5 c 128,-1,31
 228 95 228 95 228 62 c 128,-1,32
 228 29 228 29 244.5 1 c 128,-1,33
 261 -27 261 -27 289 -43.5 c 128,-1,34
 317 -60 317 -60 350 -60 c 128,-1,35
 383 -60 383 -60 411 -44 c 128,-1,36
 439 -28 439 -28 456 0 c 128,-1,37
 473 28 473 28 473 61 c 2,38,-1
 473 62 l 1,39,40
 473 62 473 62 473 62 c 1,41,42
 473 95 473 95 456.5 123.5 c 128,-1,43
 440 152 440 152 411.5 168.5 c 128,-1,44
 383 185 383 185 350 185 c 1,45,46
 350 185 350 185 350 185 c 1,47,-1
 350 185 l 1,28,29
418 62 m 1,48,49
 418 33 418 33 398 13 c 128,-1,50
 378 -7 378 -7 350 -7 c 128,-1,51
 322 -7 322 -7 301.5 13.5 c 128,-1,52
 281 34 281 34 281 62 c 128,-1,53
 281 90 281 90 301.5 110 c 128,-1,54
 322 130 322 130 350 130 c 1,55,56
 350 130 350 130 350 130 c 1,57,-1
 350 130 l 1,58,59
 378 130 378 130 398 110 c 128,-1,60
 418 90 418 90 418 62 c 1,61,62
 418 62 418 62 418 62 c 1,63,-1
 418 62 l 1,48,49
759 476 m 1,64,65
 726 476 726 476 698 459.5 c 128,-1,66
 670 443 670 443 653.5 414.5 c 128,-1,67
 637 386 637 386 637 353 c 128,-1,68
 637 320 637 320 653.5 292 c 128,-1,69
 670 264 670 264 698 247.5 c 128,-1,70
 726 231 726 231 759 231 c 128,-1,71
 792 231 792 231 820.5 247.5 c 128,-1,72
 849 264 849 264 865.5 292 c 128,-1,73
 882 320 882 320 882 353 c 1,74,-1
 882 353 l 1,75,76
 882 386 882 386 865.5 414.5 c 128,-1,77
 849 443 849 443 820.5 459.5 c 128,-1,78
 792 476 792 476 759 476 c 1,79,-1
 759 476 l 1,64,65
828 353 m 1,80,81
 828 325 828 325 808 305 c 128,-1,82
 788 285 788 285 759.5 285 c 128,-1,83
 731 285 731 285 711 305 c 128,-1,84
 691 325 691 325 691 353.5 c 128,-1,85
 691 382 691 382 711 402 c 128,-1,86
 731 422 731 422 759 422 c 1,87,-1
 759 422 l 1,88,89
 788 422 788 422 808 402 c 128,-1,90
 828 382 828 382 828 353 c 1,91,-1
 828 353 l 1,80,81
973 671 m 1,92,-1
 300 671 l 2,93,94
 290 670 290 670 282.5 662.5 c 128,-1,95
 275 655 275 655 275 644.5 c 128,-1,96
 275 634 275 634 282 626.5 c 128,-1,97
 289 619 289 619 300 617 c 2,98,-1
 975 617 l 2,99,100
 986 617 986 617 994 625 c 128,-1,101
 1002 633 1002 633 1002 644 c 128,-1,102
 1002 655 1002 655 994 663 c 128,-1,103
 986 671 986 671 975 671 c 2,104,-1
 973 671 l 1,92,-1
254 89 m 1,105,-1
 27 89 l 1,106,-1
 25 89 l 2,107,108
 14 89 14 89 6 81 c 128,-1,109
 -2 73 -2 73 -2 62 c 128,-1,110
 -2 51 -2 51 6 43 c 128,-1,111
 14 35 14 35 25 35 c 2,112,-1
 257 35 l 2,113,114
 268 35 268 35 276 43 c 128,-1,115
 284 51 284 51 284 62 c 128,-1,116
 284 73 284 73 276 81 c 128,-1,117
 268 89 268 89 257 89 c 2,118,-1
 254 89 l 1,105,-1
973 89 m 1,119,-1
 445 89 l 1,120,-1
 443 89 l 2,121,122
 432 89 432 89 424 81 c 128,-1,123
 416 73 416 73 416 62 c 128,-1,124
 416 51 416 51 424 43 c 128,-1,125
 432 35 432 35 443 35 c 2,126,-1
 446 35 l 1,127,-1
 445 35 l 1,128,-1
 975 35 l 2,129,130
 986 35 986 35 994 43 c 128,-1,131
 1002 51 1002 51 1002 62 c 128,-1,132
 1002 73 1002 73 994 81 c 128,-1,133
 986 89 986 89 975 89 c 2,134,-1
 973 89 l 1,119,-1
664 380 m 1,135,-1
 27 380 l 2,136,137
 16 380 16 380 8 372 c 128,-1,138
 0 364 0 364 0 353 c 128,-1,139
 0 342 0 342 8 334 c 128,-1,140
 16 326 16 326 27 326 c 2,141,-1
 664 326 l 2,142,143
 675 326 675 326 683 334 c 128,-1,144
 691 342 691 342 691 353 c 128,-1,145
 691 364 691 364 683 372 c 128,-1,146
 675 380 675 380 664 380 c 1,147,-1
 664 380 l 1,135,-1
125 672 m 1,148,-1
 27 672 l 2,149,150
 16 672 16 672 8 664 c 128,-1,151
 0 656 0 656 0 645 c 128,-1,152
 0 634 0 634 8 626 c 128,-1,153
 16 618 16 618 27 618 c 2,154,-1
 125 618 l 1,155,-1
 125 672 l 1,148,-1
973 380 m 1,156,-1
 854 380 l 2,157,158
 843 380 843 380 835 372 c 128,-1,159
 827 364 827 364 827 353 c 128,-1,160
 827 342 827 342 835 334 c 128,-1,161
 843 326 843 326 854 326 c 2,162,-1
 973 326 l 2,163,164
 984 326 984 326 992 334 c 128,-1,165
 1000 342 1000 342 1000 353 c 128,-1,166
 1000 364 1000 364 992 372 c 128,-1,167
 984 380 984 380 973 380 c 1,168,-1
 973 380 l 1,156,-1
EndSplineSet
EndChar

StartChar: freccia_down_hover
Encoding: 59755 59755 43
Width: 1000
Flags: W
LayerCount: 2
Fore
SplineSet
996 596 m 1,0,1
 989 613 989 613 974.5 623 c 128,-1,2
 960 633 960 633 942 633 c 2,3,-1
 59 633 l 1,4,5
 59 633 59 633 59 633 c 1,6,7
 41 633 41 633 26 623 c 128,-1,8
 11 613 11 613 5 597 c 1,9,-1
 5 596 l 1,10,11
 0 584 0 584 0 573 c 1,12,13
 0 573 0 573 0 573 c 1,14,-1
 0 573 l 1,15,16
 0 548 0 548 18 532 c 2,17,-1
 458 91 l 2,18,19
 476 73 476 73 500 73 c 128,-1,20
 524 73 524 73 542 91 c 2,21,-1
 983 532 l 2,22,23
 1001 548 1001 548 1001 573 c 0,24,25
 1001 584 1001 584 996 597 c 1,26,-1
 996 596 l 1,0,1
EndSplineSet
EndChar

StartChar: freccia_down
Encoding: 59756 59756 44
Width: 1000
Flags: W
LayerCount: 2
Fore
SplineSet
988 584 m 1,0,1
 979 608 979 608 958.5 622 c 128,-1,2
 938 636 938 636 912 636 c 2,3,-1
 84 636 l 2,4,5
 58 636 58 636 37.5 622 c 128,-1,6
 17 608 17 608 8 585 c 1,7,-1
 8 584 l 1,8,9
 1 571 1 571 1 552 c 1,10,11
 1 552 1 552 1 552 c 1,12,-1
 1 552 l 1,13,14
 1 552 1 552 1 552 c 1,15,16
 1 516 1 516 26 493 c 2,17,-1
 438 80 l 2,18,19
 462 56 462 56 497 56 c 128,-1,20
 532 56 532 56 556 80 c 2,21,-1
 970 493 l 2,22,23
 995 518 995 518 995 552 c 0,24,25
 995 568 995 568 988 585 c 1,26,-1
 988 584 l 1,0,1
929 552 m 1,27,28
 929 552 929 552 929 552 c 1,29,30
 929 545 929 545 924 540 c 2,31,-1
 510 126 l 2,32,33
 505 121 505 121 497.5 121 c 128,-1,34
 490 121 490 121 485 126 c 2,35,-1
 71 540 l 2,36,37
 66 545 66 545 66 552 c 128,-1,38
 66 559 66 559 71 564.5 c 128,-1,39
 76 570 76 570 83 570 c 2,40,-1
 912 570 l 2,41,42
 917 570 917 570 921 567 c 128,-1,43
 925 564 925 564 927 559 c 1,44,-1
 927 559 l 1,45,46
 929 555 929 555 929 552 c 1,47,48
 929 552 929 552 929 552 c 1,49,-1
 929 552 l 1,27,28
EndSplineSet
EndChar

StartChar: freccia_dx_hover
Encoding: 59757 59757 45
Width: 1000
Flags: W
LayerCount: 2
Fore
SplineSet
759 392 m 1,0,-1
 319 832 l 2,1,2
 301 850 301 850 276.5 850 c 128,-1,3
 252 850 252 850 234.5 832.5 c 128,-1,4
 217 815 217 815 217 791 c 1,5,6
 217 791 217 791 217 791 c 1,7,-1
 217 -92 l 2,8,9
 217 -110 217 -110 227 -124.5 c 128,-1,10
 237 -139 237 -139 254 -146 c 1,11,-1
 254 -146 l 1,12,13
 263 -150 263 -150 277 -150 c 1,14,-1
 277 -150 l 1,15,16
 302 -150 302 -150 319 -133 c 2,17,-1
 759 308 l 2,18,19
 777 326 777 326 777 350 c 128,-1,20
 777 374 777 374 759 392 c 1,21,-1
 759 392 l 1,0,-1
EndSplineSet
EndChar

StartChar: freccia_dx
Encoding: 59758 59758 46
Width: 1000
Flags: W
LayerCount: 2
Fore
SplineSet
770 412 m 1,0,-1
 357 826 l 2,1,2
 333 850 333 850 298 850 c 128,-1,3
 263 850 263 850 238.5 826 c 128,-1,4
 214 802 214 802 214 767 c 1,5,6
 214 767 214 767 214 767 c 1,7,-1
 214 -62 l 2,8,9
 214 -88 214 -88 228 -108.5 c 128,-1,10
 242 -129 242 -129 265 -138 c 1,11,-1
 266 -138 l 1,12,13
 282 -145 282 -145 298 -145 c 1,14,15
 298 -145 298 -145 298 -145 c 1,16,-1
 298 -145 l 1,17,18
 298 -145 298 -145 298 -145 c 1,19,20
 315 -145 315 -145 330 -138.5 c 128,-1,21
 345 -132 345 -132 356 -120 c 2,22,-1
 770 294 l 2,23,24
 795 319 795 319 795 353 c 128,-1,25
 795 387 795 387 770 412 c 1,26,-1
 770 412 l 1,0,-1
729 353 m 1,27,28
 729 353 729 353 729 353 c 1,29,30
 729 345 729 345 724 340 c 2,31,-1
 310 -74 l 2,32,33
 305 -79 305 -79 298 -79 c 128,-1,34
 291 -79 291 -79 285.5 -73.5 c 128,-1,35
 280 -68 280 -68 280 -61 c 1,36,37
 280 -61 280 -61 280 -61 c 1,38,-1
 280 767 l 1,39,40
 280 767 280 767 280 767 c 1,41,42
 280 778 280 778 291 783 c 1,43,-1
 291 783 l 1,44,45
 293 784 293 784 298 784 c 1,46,47
 298 784 298 784 298 784 c 1,48,-1
 298 784 l 1,49,50
 298 784 298 784 298 784 c 1,51,52
 305 784 305 784 310 779 c 2,53,-1
 724 365 l 2,54,55
 729 360 729 360 729 353 c 1,56,57
 729 353 729 353 729 353 c 1,58,-1
 729 353 l 1,27,28
EndSplineSet
EndChar

StartChar: freccia_sx_hover
Encoding: 59759 59759 47
Width: 1000
Flags: W
LayerCount: 2
Fore
SplineSet
235 308 m 1,0,-1
 675 -133 l 2,1,2
 692 -150 692 -150 717 -150 c 128,-1,3
 742 -150 742 -150 759.5 -133 c 128,-1,4
 777 -116 777 -116 777 -91 c 1,5,6
 777 -91 777 -91 777 -91 c 1,7,-1
 777 791 l 1,8,9
 777 791 777 791 777 791 c 1,10,11
 777 810 777 810 767 824.5 c 128,-1,12
 757 839 757 839 740 845 c 1,13,-1
 740 845 l 1,14,15
 728 850 728 850 717 850 c 1,16,17
 717 850 717 850 717 850 c 1,18,-1
 717 850 l 1,19,20
 693 850 693 850 675 832 c 2,21,-1
 235 392 l 2,22,23
 217 374 217 374 217 350 c 128,-1,24
 217 326 217 326 235 308 c 1,25,-1
 235 308 l 1,0,-1
EndSplineSet
EndChar

StartChar: freccia_sx
Encoding: 59760 59760 48
Width: 1000
Flags: W
LayerCount: 2
Fore
SplineSet
239 294 m 1,0,-1
 653 -120 l 2,1,2
 676 -145 676 -145 711.5 -145 c 128,-1,3
 747 -145 747 -145 771.5 -120.5 c 128,-1,4
 796 -96 796 -96 796 -62 c 2,5,-1
 796 767 l 2,6,7
 795 792 795 792 781 812.5 c 128,-1,8
 767 833 767 833 744 842 c 1,9,-1
 744 842 l 1,10,11
 730 849 730 849 712 849 c 2,12,-1
 711 849 l 1,13,14
 711 849 711 849 711 849 c 1,15,16
 677 849 677 849 653 825 c 2,17,-1
 239 412 l 2,18,19
 215 388 215 388 215 353 c 128,-1,20
 215 318 215 318 239 294 c 1,21,-1
 239 294 l 1,0,-1
280 353 m 1,22,23
 280 353 280 353 280 353 c 1,24,25
 280 360 280 360 285 365 c 2,26,-1
 699 779 l 2,27,28
 704 784 704 784 711.5 784 c 128,-1,29
 719 784 719 784 724 779 c 128,-1,30
 729 774 729 774 729 767 c 1,31,32
 729 767 729 767 729 767 c 1,33,-1
 729 -62 l 2,34,35
 729 -67 729 -67 726.5 -71 c 128,-1,36
 724 -75 724 -75 719 -77 c 2,37,-1
 718 -77 l 2,38,39
 714 -79 714 -79 711 -79 c 1,40,41
 711 -79 711 -79 711 -79 c 1,42,-1
 711 -79 l 1,43,44
 711 -79 711 -79 711 -79 c 1,45,46
 704 -79 704 -79 699 -74 c 2,47,-1
 285 340 l 2,48,49
 280 345 280 345 280 353 c 1,50,51
 280 353 280 353 280 353 c 1,52,-1
 280 353 l 1,22,23
EndSplineSet
EndChar

StartChar: freccia_up_hover
Encoding: 59761 59761 49
Width: 1000
Flags: W
LayerCount: 2
Fore
SplineSet
983 175 m 1,0,-1
 542 615 l 2,1,2
 524 633 524 633 500 633 c 128,-1,3
 476 633 476 633 458 615 c 2,4,-1
 18 175 l 2,5,6
 0 157 0 157 0 132.5 c 128,-1,7
 0 108 0 108 17.5 91 c 128,-1,8
 35 74 35 74 59 74 c 1,9,10
 59 74 59 74 59 74 c 1,11,-1
 942 74 l 2,12,13
 960 74 960 74 974.5 84 c 128,-1,14
 989 94 989 94 996 110 c 1,15,-1
 996 110 l 1,16,17
 1000 119 1000 119 1000 133 c 1,18,19
 1000 133 1000 133 1000 133 c 1,20,-1
 1000 133 l 1,21,22
 1000 158 1000 158 983 175 c 1,23,-1
 983 175 l 1,0,-1
EndSplineSet
EndChar

StartChar: freccia_up
Encoding: 59762 59762 50
Width: 1000
Flags: W
LayerCount: 2
Fore
SplineSet
988 107 m 1,0,1
 995 123 995 123 995 139 c 1,2,3
 995 139 995 139 995 139 c 1,4,-1
 995 139 l 1,5,6
 995 139 995 139 995 139 c 1,7,8
 995 156 995 156 988.5 171 c 128,-1,9
 982 186 982 186 970 197 c 2,10,-1
 556 611 l 2,11,12
 532 635 532 635 497 635 c 128,-1,13
 462 635 462 635 438 611 c 2,14,-1
 25 197 l 2,15,16
 0 174 0 174 0 139 c 128,-1,17
 0 104 0 104 24.5 79.5 c 128,-1,18
 49 55 49 55 83 55 c 2,19,-1
 912 55 l 2,20,21
 938 55 938 55 958.5 69 c 128,-1,22
 979 83 979 83 988 106 c 1,23,-1
 988 107 l 1,0,1
911 121 m 1,24,-1
 84 121 l 1,25,-1
 83 121 l 2,26,27
 72 121 72 121 67 132 c 1,28,-1
 67 132 l 1,29,30
 66 134 66 134 66 139 c 1,31,32
 66 139 66 139 66 139 c 1,33,-1
 66 139 l 1,34,35
 66 139 66 139 66 139 c 1,36,37
 66 146 66 146 71 151 c 2,38,-1
 485 565 l 2,39,40
 490 570 490 570 497.5 570 c 128,-1,41
 505 570 505 570 510 565 c 2,42,-1
 924 151 l 2,43,44
 929 146 929 146 929 138.5 c 128,-1,45
 929 131 929 131 923.5 126 c 128,-1,46
 918 121 918 121 911 121 c 1,47,48
 911 121 911 121 911 121 c 1,49,-1
 911 121 l 1,24,-1
EndSplineSet
EndChar

StartChar: giorno_hover
Encoding: 59764 59764 51
AltUni2: 00e973.ffffffff.0
Width: 898
Flags: W
LayerCount: 2
Fore
SplineSet
848 748 m 1,0,-1
 630 748 l 1,1,-1
 630 850 l 1,2,-1
 562 850 l 1,3,-1
 562 748 l 1,4,-1
 312 748 l 1,5,-1
 312 843 l 1,6,-1
 244 843 l 1,7,-1
 244 748 l 1,8,-1
 50 748 l 2,9,10
 29 748 29 748 14.5 733.5 c 128,-1,11
 0 719 0 719 0 698 c 2,12,-1
 0 -100 l 1,13,14
 0 -100 0 -100 0 -100 c 1,15,16
 0 -120 0 -120 14.5 -135 c 128,-1,17
 29 -150 29 -150 50 -150 c 2,18,-1
 848 -150 l 2,19,20
 869 -150 869 -150 883.5 -135.5 c 128,-1,21
 898 -121 898 -121 898 -100 c 2,22,-1
 898 698 l 2,23,24
 898 719 898 719 883.5 733.5 c 128,-1,25
 869 748 869 748 848 748 c 1,26,27
 848 748 848 748 848 748 c 1,28,-1
 848 748 l 1,0,-1
872 415 m 1,29,-1
 872 -100 l 2,30,31
 872 -110 872 -110 865 -117 c 128,-1,32
 858 -124 858 -124 848 -124 c 2,33,-1
 50 -124 l 2,34,35
 40 -124 40 -124 33 -117 c 128,-1,36
 26 -110 26 -110 26 -100 c 1,37,38
 26 -100 26 -100 26 -100 c 1,39,-1
 26 414 l 2,40,41
 28 413 28 413 32 413 c 2,42,-1
 866 413 l 2,43,44
 870 413 870 413 872 414 c 1,45,-1
 872 414 l 1,46,-1
 872 415 l 1,29,-1
141 246 m 1,47,48
 158 246 158 246 170 258 c 128,-1,49
 182 270 182 270 182 286.5 c 128,-1,50
 182 303 182 303 170 315 c 128,-1,51
 158 327 158 327 141 327 c 128,-1,52
 124 327 124 327 112.5 315 c 128,-1,53
 101 303 101 303 101 286 c 1,54,-1
 101 286 l 1,55,56
 101 270 101 270 113 258 c 128,-1,57
 125 246 125 246 141 246 c 1,58,-1
 141 246 l 1,47,48
EndSplineSet
EndChar

StartChar: home_hover
Encoding: 59765 59765 52
Width: 1006
Flags: W
LayerCount: 2
Fore
SplineSet
999 383 m 1,0,-1
 520 844 l 2,1,2
 514 850 514 850 504 850 c 128,-1,3
 494 850 494 850 488 844 c 2,4,-1
 9 383 l 2,5,6
 2 377 2 377 2 366 c 0,7,8
 2 357 2 357 8.5 350.5 c 128,-1,9
 15 344 15 344 24 343 c 2,10,-1
 170 343 l 1,11,-1
 170 -150 l 1,12,-1
 402 -150 l 1,13,-1
 402 105 l 2,14,15
 402 119 402 119 412 128.5 c 128,-1,16
 422 138 422 138 436 138 c 2,17,-1
 571 138 l 2,18,19
 585 138 585 138 594.5 128.5 c 128,-1,20
 604 119 604 119 604 105 c 2,21,-1
 604 -150 l 1,22,-1
 837 -150 l 1,23,-1
 837 343 l 1,24,-1
 983 343 l 2,25,26
 993 343 993 343 999.5 349.5 c 128,-1,27
 1006 356 1006 356 1006 366.5 c 128,-1,28
 1006 377 1006 377 999 383 c 1,29,-1
 999 383 l 1,0,-1
EndSplineSet
EndChar

StartChar: home
Encoding: 59766 59766 53
Width: 1005
Flags: W
LayerCount: 2
Fore
SplineSet
993 396 m 1,0,-1
 533 838 l 2,1,2
 521 850 521 850 503 850 c 128,-1,3
 485 850 485 850 473 838 c 2,4,-1
 13 396 l 2,5,6
 6 391 6 391 2 382.5 c 128,-1,7
 -2 374 -2 374 -2 365 c 0,8,9
 -2 348 -2 348 10.5 335.5 c 128,-1,10
 23 323 23 323 40 323 c 2,11,-1
 163 323 l 1,12,-1
 163 -150 l 1,13,-1
 426 -150 l 1,14,-1
 426 115 l 2,15,16
 426 120 426 120 430 123.5 c 128,-1,17
 434 127 434 127 438 127 c 2,18,-1
 568 127 l 2,19,20
 573 127 573 127 576.5 123.5 c 128,-1,21
 580 120 580 120 580 115 c 2,22,-1
 580 -150 l 1,23,-1
 843 -150 l 1,24,-1
 843 323 l 1,25,-1
 966 323 l 2,26,27
 983 323 983 323 995 335.5 c 128,-1,28
 1007 348 1007 348 1007 365 c 0,29,30
 1007 385 1007 385 993 396 c 1,31,-1
 993 396 l 1,0,-1
803 363 m 1,32,-1
 803 -109 l 1,33,-1
 620 -109 l 1,34,-1
 620 115 l 2,35,36
 620 137 620 137 605 152 c 128,-1,37
 590 167 590 167 568 167 c 1,38,39
 568 167 568 167 568 167 c 1,40,-1
 438 167 l 1,41,42
 438 167 438 167 438 167 c 1,43,44
 416 167 416 167 401 152 c 128,-1,45
 386 137 386 137 385 115 c 2,46,-1
 385 -109 l 1,47,-1
 203 -109 l 1,48,-1
 203 363 l 1,49,-1
 42 363 l 2,50,51
 41 364 41 364 40.5 364.5 c 128,-1,52
 40 365 40 365 40 366 c 128,-1,53
 40 367 40 367 41 367 c 2,54,-1
 502 808 l 2,55,56
 502 809 502 809 503 809 c 128,-1,57
 504 809 504 809 504 808 c 2,58,-1
 965 367 l 1,59,-1
 965 364 l 2,60,61
 965 363 965 363 964 363 c 2,62,-1
 963 363 l 1,63,-1
 803 363 l 1,32,-1
EndSplineSet
EndChar

StartChar: impostazioni_hover
Encoding: 59767 59767 54
Width: 1000
Flags: W
LayerCount: 2
Fore
SplineSet
980 421 m 1,0,-1
 879 444 l 2,1,2
 864 447 864 447 861 460 c 1,3,-1
 860 461 l 1,4,5
 851 492 851 492 832 529 c 2,6,-1
 833 527 l 1,7,-1
 832 529 l 2,8,9
 830 535 830 535 830 538 c 0,10,11
 830 544 830 544 834 552 c 2,12,-1
 890 639 l 2,13,14
 894 644 894 644 894 653 c 128,-1,15
 894 662 894 662 887 671 c 2,16,-1
 821 737 l 2,17,18
 814 744 814 744 803 744 c 0,19,20
 798 744 798 744 790 740 c 2,21,-1
 700 683 l 2,22,23
 694 679 694 679 687.5 679 c 128,-1,24
 681 679 681 679 676 682 c 1,25,-1
 676 682 l 1,26,27
 645 698 645 698 613 708 c 1,28,-1
 611 709 l 2,29,30
 597 714 597 714 594 728 c 2,31,-1
 571 830 l 2,32,33
 570 839 570 839 563 844.5 c 128,-1,34
 556 850 556 850 547 850 c 2,35,-1
 453 850 l 2,36,37
 445 850 445 850 438 844.5 c 128,-1,38
 431 839 431 839 429 831 c 2,39,-1
 406 728 l 2,40,41
 403 714 403 714 389 709 c 1,42,-1
 389 709 l 1,43,44
 353 697 353 697 323 681 c 1,45,-1
 324 682 l 2,46,47
 320 679 320 679 313 679 c 128,-1,48
 306 679 306 679 300 683 c 2,49,-1
 211 740 l 2,50,51
 203 744 203 744 197 744 c 0,52,53
 188 744 188 744 179 737 c 2,54,-1
 114 671 l 2,55,56
 106 663 106 663 106 653 c 0,57,58
 106 647 106 647 110 639 c 2,59,-1
 167 552 l 2,60,61
 170 546 170 546 170 539 c 128,-1,62
 170 532 170 532 167 526 c 2,63,-1
 167 527 l 1,64,65
 149 493 149 493 140 463 c 1,66,-1
 139 461 l 2,67,68
 136 447 136 447 121 444 c 2,69,-1
 20 421 l 2,70,71
 11 420 11 420 5.5 413 c 128,-1,72
 0 406 0 406 0 397 c 2,73,-1
 0 303 l 2,74,75
 0 295 0 295 5.5 288 c 128,-1,76
 11 281 11 281 19 279 c 2,77,-1
 120 257 l 2,78,79
 127 256 127 256 132 251 c 128,-1,80
 137 246 137 246 138 239 c 1,81,-1
 138 239 l 1,82,83
 149 203 149 203 168 170 c 2,84,-1
 167 172 l 2,85,86
 170 166 170 166 170 159.5 c 128,-1,87
 170 153 170 153 167 147 c 2,88,-1
 112 61 l 2,89,90
 108 56 108 56 108 47 c 128,-1,91
 108 38 108 38 115 29 c 2,92,-1
 181 -37 l 2,93,94
 190 -44 190 -44 199 -44 c 0,95,96
 206 -44 206 -44 212 -40 c 2,97,-1
 298 14 l 2,98,99
 303 18 303 18 310.5 18 c 128,-1,100
 318 18 318 18 323 14 c 1,101,-1
 323 14 l 1,102,103
 356 -3 356 -3 388 -13 c 2,104,-1
 391 -14 l 2,105,106
 406 -19 406 -19 409 -33 c 2,107,-1
 431 -131 l 2,108,109
 432 -140 432 -140 439 -145.5 c 128,-1,110
 446 -151 446 -151 455 -151 c 2,111,-1
 548 -151 l 2,112,113
 557 -151 557 -151 564 -145.5 c 128,-1,114
 571 -140 571 -140 573 -131 c 2,115,-1
 595 -33 l 2,116,117
 598 -19 598 -19 612 -14 c 1,118,-1
 612 -14 l 1,119,120
 646 -4 646 -4 682 15 c 2,121,-1
 680 14 l 2,122,123
 685 18 685 18 693 18 c 128,-1,124
 701 18 701 18 706 14 c 1,125,-1
 705 14 l 1,126,-1
 791 -40 l 2,127,128
 799 -44 799 -44 805 -44 c 0,129,130
 815 -44 815 -44 822 -37 c 2,131,-1
 888 29 l 2,132,133
 896 37 896 37 896 47 c 0,134,135
 896 53 896 53 892 61 c 2,136,-1
 837 147 l 2,137,138
 833 155 833 155 833 159.5 c 128,-1,139
 833 164 833 164 836 170 c 2,140,-1
 837 172 l 2,141,142
 852 200 852 200 864 237 c 1,143,-1
 864 239 l 1,144,145
 869 254 869 254 883 257 c 2,146,-1
 983 279 l 2,147,148
 990 281 990 281 995 288 c 128,-1,149
 1000 295 1000 295 1000 303 c 1,150,151
 1000 303 1000 303 1000 303 c 1,152,-1
 1000 397 l 2,153,154
 1000 406 1000 406 994.5 412.5 c 128,-1,155
 989 419 989 419 981 421 c 2,156,-1
 980 421 l 1,0,-1
500 108 m 1,157,158
 435 108 435 108 379.5 140 c 128,-1,159
 324 172 324 172 292 227.5 c 128,-1,160
 260 283 260 283 260 348 c 128,-1,161
 260 413 260 413 292 468.5 c 128,-1,162
 324 524 324 524 379.5 556 c 128,-1,163
 435 588 435 588 500 588 c 128,-1,164
 565 588 565 588 620.5 556 c 128,-1,165
 676 524 676 524 708 468.5 c 128,-1,166
 740 413 740 413 740 348 c 1,167,-1
 740 348 l 1,168,169
 740 283 740 283 708 227.5 c 128,-1,170
 676 172 676 172 620.5 140 c 128,-1,171
 565 108 565 108 500 108 c 1,172,-1
 500 108 l 1,157,158
EndSplineSet
EndChar

StartChar: glyph-17
Encoding: 59768 59768 55
Width: 1000
Flags: W
LayerCount: 2
Fore
SplineSet
500 600 m 5,0,1
 432 600 432 600 374 566.5 c 132,-1,2
 316 533 316 533 282.5 475 c 132,-1,3
 249 417 249 417 249 349 c 132,-1,4
 249 281 249 281 282.5 223 c 132,-1,5
 316 165 316 165 374 131.5 c 132,-1,6
 432 98 432 98 500 98 c 132,-1,7
 568 98 568 98 626 131.5 c 132,-1,8
 684 165 684 165 717.5 222.5 c 132,-1,9
 751 280 751 280 751 348 c 6,10,-1
 751 349 l 6,11,12
 751 417 751 417 717.5 474.5 c 132,-1,13
 684 532 684 532 626 566 c 132,-1,14
 568 600 568 600 500 600 c 5,15,-1
 500 600 l 5,0,1
708 348 m 5,16,17
 708 291 708 291 680 243.5 c 132,-1,18
 652 196 652 196 604.5 168 c 132,-1,19
 557 140 557 140 500 140 c 132,-1,20
 443 140 443 140 395.5 168 c 132,-1,21
 348 196 348 196 320 243.5 c 132,-1,22
 292 291 292 291 292 348 c 132,-1,23
 292 405 292 405 320 452.5 c 132,-1,24
 348 500 348 500 395.5 528 c 132,-1,25
 443 556 443 556 500 556 c 5,26,-1
 500 556 l 5,27,28
 557 556 557 556 604.5 528 c 132,-1,29
 652 500 652 500 680 452.5 c 132,-1,30
 708 405 708 405 708 348 c 5,31,-1
 708 348 l 5,16,17
965 439 m 1,32,-1
 867 460 l 1,33,-1
 865 461 l 1,34,-1
 865 462 l 1,35,36
 852 501 852 501 836 530 c 2,37,-1
 837 528 l 1,38,-1
 837 531 l 1,39,-1
 891 614 l 2,40,41
 898 626 898 626 898 639 c 0,42,43
 898 657 898 657 885 670 c 2,44,-1
 822 733 l 2,45,46
 809 746 809 746 791 746 c 0,47,48
 778 746 778 746 766 739 c 2,49,-1
 681 685 l 2,50,51
 681 684 681 684 681 684 c 1,52,-1
 680 684 l 2,53,54
 679 684 679 684 679 685 c 1,55,-1
 679 685 l 1,56,57
 650 700 650 700 616 711 c 2,58,-1
 613 712 l 2,59,60
 611 712 611 712 611 714 c 2,61,-1
 589 815 l 2,62,63
 585 830 585 830 573 840 c 128,-1,64
 561 850 561 850 545 850 c 1,65,66
 545 850 545 850 545 850 c 1,67,-1
 455 850 l 1,68,69
 455 850 455 850 455 850 c 1,70,71
 439 850 439 850 427 840 c 128,-1,72
 415 830 415 830 411 815 c 2,73,-1
 390 716 l 2,74,75
 390 714 390 714 389 714 c 1,76,-1
 389 714 l 1,77,78
 350 702 350 702 321 686 c 2,79,-1
 323 687 l 1,80,-1
 320 687 l 1,81,-1
 235 741 l 2,82,83
 225 748 225 748 211 748 c 0,84,85
 192 748 192 748 179 735 c 2,86,-1
 117 673 l 2,87,88
 104 658 104 658 104 642 c 128,-1,89
 104 626 104 626 111 616 c 1,90,-1
 111 617 l 1,91,-1
 164 533 l 1,92,-1
 165 532 l 1,93,-1
 164 530 l 2,94,95
 147 499 147 499 137 467 c 2,96,-1
 136 464 l 2,97,98
 136 462 136 462 134 462 c 2,99,-1
 37 441 l 2,100,101
 21 438 21 438 10.5 425.5 c 128,-1,102
 0 413 0 413 0 397 c 2,103,-1
 0 305 l 1,104,105
 0 305 0 305 0 305 c 1,106,107
 0 289 0 289 10 277 c 128,-1,108
 20 265 20 265 35 261 c 2,109,-1
 131 240 l 2,110,111
 133 240 133 240 133 238 c 1,112,-1
 133 238 l 1,113,114
 144 203 144 203 162 168 c 2,115,-1
 161 170 l 2,116,117
 162 170 162 170 162 170 c 1,118,-1
 162 169 l 1,119,-1
 109 84 l 2,120,121
 101 73 101 73 101 60 c 0,122,123
 101 40 101 40 115 28 c 2,124,-1
 177 -35 l 2,125,126
 190 -48 190 -48 209 -48 c 0,127,128
 221 -48 221 -48 233 -41 c 2,129,-1
 315 12 l 1,130,-1
 316 12 l 1,131,-1
 318 11 l 1,132,-1
 318 12 l 1,133,134
 347 -4 347 -4 384 -17 c 2,135,-1
 387 -18 l 2,136,137
 389 -18 389 -18 389 -20 c 2,138,-1
 410 -114 l 2,139,140
 414 -130 414 -130 426 -140 c 128,-1,141
 438 -150 438 -150 454 -150 c 2,142,-1
 545 -150 l 1,143,144
 545 -150 545 -150 545 -150 c 1,145,146
 561 -150 561 -150 573 -140 c 128,-1,147
 585 -130 585 -130 589 -115 c 2,148,-1
 610 -20 l 2,149,150
 610 -18 610 -18 612 -18 c 1,151,-1
 612 -18 l 1,152,153
 650 -7 650 -7 683 12 c 2,154,-1
 681 11 l 1,155,-1
 684 11 l 1,156,-1
 766 -42 l 2,157,158
 778 -49 778 -49 790 -49 c 0,159,160
 810 -49 810 -49 822 -35 c 2,161,-1
 884 27 l 2,162,163
 898 39 898 39 898 59 c 0,164,165
 898 72 898 72 890 83 c 2,166,-1
 838 167 l 1,167,-1
 838 167 l 1,168,169
 837 167 837 167 837 168 c 128,-1,170
 837 169 837 169 838 169 c 1,171,-1
 838 169 l 1,172,173
 857 206 857 206 865 235 c 1,174,-1
 866 237 l 2,175,176
 866 238 866 238 868 240 c 2,177,-1
 964 260 l 2,178,179
 980 264 980 264 990 276.5 c 128,-1,180
 1000 289 1000 289 1000 305 c 1,181,182
 1000 305 1000 305 1000 305 c 1,183,-1
 1000 395 l 1,184,185
 1000 395 1000 395 1000 395 c 1,186,187
 1000 411 1000 411 990 423 c 128,-1,188
 980 435 980 435 965 439 c 1,189,-1
 965 439 l 1,32,-1
827 250 m 1,190,191
 813 210 813 210 801 187 c 2,192,-1
 802 189 l 2,193,194
 796 180 796 180 796 168 c 128,-1,195
 796 156 796 156 803 144 c 2,196,-1
 857 59 l 1,197,-1
 856 57 l 1,198,-1
 793 -5 l 2,199,200
 793 -6 793 -6 793 -6 c 1,201,-1
 791 -6 l 2,202,203
 790 -6 790 -6 790 -5 c 2,204,-1
 708 47 l 2,205,206
 696 54 696 54 684.5 54 c 128,-1,207
 673 54 673 54 662 48 c 1,208,-1
 662 48 l 1,209,210
 634 33 634 33 602 23 c 1,211,-1
 600 23 l 1,212,213
 588 19 588 19 579.5 10 c 128,-1,214
 571 1 571 1 569 -11 c 2,215,-1
 548 -105 l 2,216,217
 548 -106 548 -106 547 -106 c 2,218,-1
 545 -107 l 1,219,220
 545 -107 545 -107 545 -107 c 1,221,-1
 455 -107 l 1,222,223
 455 -107 455 -107 454 -107 c 128,-1,224
 453 -107 453 -107 453 -105 c 2,225,-1
 432 -11 l 2,226,227
 429 1 429 1 420.5 10 c 128,-1,228
 412 19 412 19 401 23 c 1,229,-1
 401 23 l 1,230,231
 372 31 372 31 337 49 c 2,232,-1
 339 48 l 2,233,234
 330 54 330 54 318 54 c 1,235,-1
 318 54 l 1,236,237
 318 54 318 54 318 54 c 1,238,239
 306 54 306 54 294 47 c 2,240,-1
 211 -6 l 1,241,-1
 210 -6 l 2,242,243
 209 -6 209 -6 209 -5 c 2,244,-1
 146 57 l 1,245,-1
 146 61 l 1,246,-1
 199 144 l 2,247,248
 206 156 206 156 206 167.5 c 128,-1,249
 206 179 206 179 201 189 c 1,250,-1
 201 189 l 1,251,252
 189 210 189 210 176 248 c 1,253,-1
 176 250 l 1,254,255
 172 262 172 262 163.5 270 c 128,-1,256
 155 278 155 278 143 281 c 2,257,-1
 47 302 l 2,258,259
 44 302 44 302 44 305 c 2,260,-1
 44 394 l 2,261,262
 44 397 44 397 46 397 c 2,263,-1
 144 418 l 2,264,265
 156 420 156 420 164.5 428 c 128,-1,266
 173 436 173 436 177 448 c 1,267,-1
 177 448 l 1,268,269
 187 479 187 479 203 509 c 2,270,-1
 202 507 l 2,271,272
 207 517 207 517 207 529 c 128,-1,273
 207 541 207 541 200 553 c 2,274,-1
 146 637 l 1,275,-1
 146 641 l 1,276,-1
 209 703 l 2,277,278
 209 704 209 704 210.5 704 c 128,-1,279
 212 704 212 704 213 703 c 2,280,-1
 298 649 l 2,281,282
 310 642 310 642 321.5 642 c 128,-1,283
 333 642 333 642 343 647 c 1,284,-1
 343 647 l 1,285,286
 368 661 368 661 399 670 c 1,287,-1
 401 671 l 2,288,289
 413 675 413 675 421 683.5 c 128,-1,290
 429 692 429 692 432 704 c 2,291,-1
 453 803 l 2,292,293
 453 805 453 805 454 805 c 128,-1,294
 455 805 455 805 455 805 c 1,295,-1
 545 805 l 1,296,297
 545 805 545 805 545.5 805 c 128,-1,298
 546 805 546 805 548 803 c 2,299,-1
 568 705 l 2,300,301
 571 693 571 693 579.5 684 c 128,-1,302
 588 675 588 675 599 671 c 1,303,-1
 599 671 l 1,304,305
 632 661 632 661 659 646 c 1,306,-1
 658 647 l 2,307,308
 668 642 668 642 678 642 c 0,309,310
 691 642 691 642 703 649 c 1,311,-1
 702 649 l 1,312,-1
 788 703 l 2,313,314
 788 704 788 704 789 704 c 2,315,-1
 790 704 l 2,316,317
 791 704 791 704 791 703 c 2,318,-1
 854 641 l 1,319,-1
 854 637 l 1,320,-1
 802 554 l 2,321,322
 795 542 795 542 795 530 c 128,-1,323
 795 518 795 518 801 509 c 1,324,-1
 800 509 l 1,325,326
 814 485 814 485 825 452 c 1,327,-1
 825 450 l 1,328,329
 829 439 829 439 837.5 430.5 c 128,-1,330
 846 422 846 422 858 419 c 2,331,-1
 956 399 l 2,332,333
 958 397 958 397 958 396 c 2,334,-1
 958 306 l 2,335,336
 958 304 958 304 956 304 c 2,337,-1
 860 283 l 2,338,339
 847 280 847 280 838.5 271 c 128,-1,340
 830 262 830 262 827 250 c 1,341,-1
 827 250 l 1,190,191
EndSplineSet
EndChar

StartChar: glyph-21
Encoding: 59776 59776 56
Width: 594
Flags: W
LayerCount: 2
Fore
SplineSet
369 463 m 1,0,-1
 226 463 l 1,1,2
 226 463 226 463 226 463 c 1,3,4
 222 463 222 463 218 467 c 1,5,-1
 218 467 l 1,6,7
 214 471 214 471 214 475 c 1,8,-1
 214 475 l 1,9,10
 216 511 216 511 243 541 c 0,11,12
 261 561 261 561 285 574 c 1,13,14
 217 620 217 620 214 676 c 2,15,-1
 214 677 l 2,16,17
 214 682 214 682 217 685 c 1,18,-1
 217 685 l 1,19,20
 220 688 220 688 225 688 c 1,21,22
 225 688 225 688 225 688 c 1,23,-1
 368 688 l 1,24,25
 368 688 368 688 368 688 c 1,26,27
 373 688 373 688 376 685 c 1,28,-1
 376 685 l 1,29,30
 379 682 379 682 379 677 c 2,31,-1
 379 676 l 2,32,33
 378 640 378 640 350 610 c 0,34,35
 333 590 333 590 308 577 c 1,36,37
 333 561 333 561 351 540 c 0,38,39
 378 509 378 509 379 475 c 1,40,41
 379 475 379 475 379 475 c 1,42,43
 379 470 379 470 376 467 c 1,44,-1
 376 467 l 1,45,46
 372 463 372 463 369 463 c 1,47,-1
 369 463 l 1,0,-1
EndSplineSet
EndChar

StartChar: left
Encoding: 59777 59777 57
Width: 1000
Flags: W
LayerCount: 2
Fore
SplineSet
440 350 m 1,0,-1
 759 691 l 2,1,2
 786 718 786 718 786 757 c 128,-1,3
 786 796 786 796 758.5 824 c 128,-1,4
 731 852 731 852 692 852 c 0,5,6
 672 852 672 852 653 843.5 c 128,-1,7
 634 835 634 835 621 820 c 2,8,-1
 242 414 l 2,9,10
 230 402 230 402 223.5 385 c 128,-1,11
 217 368 217 368 217 350 c 0,12,13
 217 313 217 313 243 285 c 2,14,-1
 621 -120 l 2,15,16
 634 -136 634 -136 653 -145 c 128,-1,17
 672 -154 672 -154 693 -154 c 0,18,19
 733 -154 733 -154 760.5 -126.5 c 128,-1,20
 788 -99 788 -99 788 -59 c 128,-1,21
 788 -19 788 -19 759 8 c 1,22,-1
 759 8 l 1,23,-1
 440 350 l 1,0,-1
EndSplineSet
EndChar

StartChar: lista_hover2
Encoding: 59906 59906 58
AltUni2: 00e982.ffffffff.0
Width: 1265
Flags: W
LayerCount: 2
Fore
SplineSet
309 -43 m 6,0,-1
 1240 -43 l 6,1,2
 1251 -43 1251 -43 1258.5 -50.5 c 132,-1,3
 1266 -58 1266 -58 1266 -69 c 6,4,-1
 1266 -88 l 6,5,6
 1266 -99 1266 -99 1258.5 -106.5 c 132,-1,7
 1251 -114 1251 -114 1240 -114 c 6,8,-1
 309 -114 l 6,9,10
 298 -114 298 -114 290.5 -106.5 c 132,-1,11
 283 -99 283 -99 283 -88 c 6,12,-1
 283 -69 l 6,13,14
 283 -58 283 -58 291 -50.5 c 132,-1,15
 299 -43 299 -43 309 -43 c 6,0,-1
309 243 m 2,16,-1
 1240 243 l 2,17,18
 1251 243 1251 243 1258.5 235.5 c 128,-1,19
 1266 228 1266 228 1266 217 c 2,20,-1
 1266 198 l 2,21,22
 1266 187 1266 187 1258.5 179.5 c 128,-1,23
 1251 172 1251 172 1240 172 c 2,24,-1
 309 172 l 2,25,26
 298 172 298 172 290.5 179.5 c 128,-1,27
 283 187 283 187 283 198 c 2,28,-1
 283 217 l 2,29,30
 283 228 283 228 291 235.5 c 128,-1,31
 299 243 299 243 309 243 c 2,16,-1
309 529 m 2,32,-1
 1240 529 l 2,33,34
 1251 529 1251 529 1258.5 521 c 128,-1,35
 1266 513 1266 513 1266 502 c 2,36,-1
 1266 484 l 2,37,38
 1266 473 1266 473 1258.5 465 c 128,-1,39
 1251 457 1251 457 1240 457 c 2,40,-1
 309 457 l 2,41,42
 298 457 298 457 290.5 465 c 128,-1,43
 283 473 283 473 283 484 c 2,44,-1
 283 502 l 2,45,46
 283 513 283 513 290.5 521 c 128,-1,47
 298 529 298 529 309 529 c 2,32,-1
309 814 m 2,48,-1
 1240 814 l 2,49,50
 1251 814 1251 814 1258.5 806.5 c 128,-1,51
 1266 799 1266 799 1266 788 c 2,52,-1
 1266 769 l 2,53,54
 1266 759 1266 759 1258.5 751 c 128,-1,55
 1251 743 1251 743 1240 743 c 2,56,-1
 309 743 l 2,57,58
 299 743 299 743 291 751 c 128,-1,59
 283 759 283 759 283 769 c 2,60,-1
 283 788 l 2,61,62
 283 799 283 799 290.5 806.5 c 128,-1,63
 298 814 298 814 309 814 c 2,48,-1
72 -150 m 1,64,65
 72 -150 72 -150 71 -150 c 0,66,67
 42 -150 42 -150 21 -129 c 128,-1,68
 0 -108 0 -108 0 -78 c 128,-1,69
 0 -48 0 -48 21 -27.5 c 128,-1,70
 42 -7 42 -7 71.5 -7 c 128,-1,71
 101 -7 101 -7 122 -28 c 128,-1,72
 143 -49 143 -49 143 -78 c 2,73,-1
 143 -79 l 2,74,75
 143 -108 143 -108 122 -129 c 128,-1,76
 101 -150 101 -150 72 -150 c 1,77,-1
 72 -150 l 1,64,65
72 136 m 1,78,79
 72 136 72 136 71 136 c 0,80,81
 42 136 42 136 21 157 c 128,-1,82
 0 178 0 178 0 208 c 128,-1,83
 0 238 0 238 21 259 c 128,-1,84
 42 280 42 280 71.5 280 c 128,-1,85
 101 280 101 280 122 258.5 c 128,-1,86
 143 237 143 237 143 208 c 1,87,-1
 143 208 l 1,88,89
 143 208 143 208 143 208 c 1,90,91
 143 178 143 178 122 157 c 128,-1,92
 101 136 101 136 72 136 c 1,93,-1
 72 136 l 1,78,79
72 421 m 1,94,95
 72 421 72 421 71 421 c 0,96,97
 42 421 42 421 21 442 c 128,-1,98
 0 463 0 463 0 493 c 128,-1,99
 0 523 0 523 21 544 c 128,-1,100
 42 565 42 565 71.5 565 c 128,-1,101
 101 565 101 565 122 544 c 128,-1,102
 143 523 143 523 143 493 c 1,103,-1
 143 493 l 1,104,105
 143 493 143 493 143 493 c 1,106,107
 143 464 143 464 122 443 c 128,-1,108
 101 422 101 422 72 421 c 1,109,-1
 72 421 l 1,94,95
72 707 m 1,110,111
 72 707 72 707 71 707 c 0,112,113
 42 707 42 707 21 728 c 128,-1,114
 0 749 0 749 0 779 c 128,-1,115
 0 809 0 809 21 829.5 c 128,-1,116
 42 850 42 850 71.5 850 c 128,-1,117
 101 850 101 850 122 829 c 128,-1,118
 143 808 143 808 143 779 c 1,119,-1
 143 779 l 1,120,121
 143 779 143 779 143 779 c 1,122,123
 143 749 143 749 122 728 c 128,-1,124
 101 707 101 707 72 707 c 1,125,-1
 72 707 l 1,110,111
72 707 m 1,126,127
 72 707 72 707 71 707 c 0,128,129
 42 707 42 707 21 728 c 128,-1,130
 0 749 0 749 0 779 c 128,-1,131
 0 809 0 809 21 829.5 c 128,-1,132
 42 850 42 850 71.5 850 c 128,-1,133
 101 850 101 850 122 829 c 128,-1,134
 143 808 143 808 143 779 c 1,135,-1
 143 779 l 1,136,137
 143 779 143 779 143 779 c 1,138,139
 143 749 143 749 122 728 c 128,-1,140
 101 707 101 707 72 707 c 1,141,-1
 72 707 l 1,126,127
72 421 m 1,142,143
 72 421 72 421 71 421 c 0,144,145
 42 421 42 421 21 442 c 128,-1,146
 0 463 0 463 0 493 c 128,-1,147
 0 523 0 523 21 544 c 128,-1,148
 42 565 42 565 71.5 565 c 128,-1,149
 101 565 101 565 122 544 c 128,-1,150
 143 523 143 523 143 493 c 1,151,-1
 143 493 l 1,152,153
 143 493 143 493 143 493 c 1,154,155
 143 464 143 464 122 443 c 128,-1,156
 101 422 101 422 72 421 c 1,157,-1
 72 421 l 1,142,143
72 136 m 1,158,159
 72 136 72 136 71 136 c 0,160,161
 42 136 42 136 21 157 c 128,-1,162
 0 178 0 178 0 208 c 128,-1,163
 0 238 0 238 21 259 c 128,-1,164
 42 280 42 280 71.5 280 c 128,-1,165
 101 280 101 280 122 258.5 c 128,-1,166
 143 237 143 237 143 208 c 1,167,-1
 143 208 l 1,168,169
 143 208 143 208 143 208 c 1,170,171
 143 178 143 178 122 157 c 128,-1,172
 101 136 101 136 72 136 c 1,173,-1
 72 136 l 1,158,159
72 -150 m 1,174,175
 72 -150 72 -150 71 -150 c 0,176,177
 42 -150 42 -150 21 -129 c 128,-1,178
 0 -108 0 -108 0 -78 c 128,-1,179
 0 -48 0 -48 21 -27.5 c 128,-1,180
 42 -7 42 -7 71.5 -7 c 128,-1,181
 101 -7 101 -7 122 -28 c 128,-1,182
 143 -49 143 -49 143 -78 c 2,183,-1
 143 -79 l 2,184,185
 143 -108 143 -108 122 -129 c 128,-1,186
 101 -150 101 -150 72 -150 c 1,187,-1
 72 -150 l 1,174,175
309 814 m 2,188,-1
 1240 814 l 2,189,190
 1251 814 1251 814 1258.5 806.5 c 128,-1,191
 1266 799 1266 799 1266 788 c 2,192,-1
 1266 769 l 2,193,194
 1266 759 1266 759 1258.5 751 c 128,-1,195
 1251 743 1251 743 1240 743 c 2,196,-1
 309 743 l 2,197,198
 299 743 299 743 291 751 c 128,-1,199
 283 759 283 759 283 769 c 2,200,-1
 283 788 l 2,201,202
 283 799 283 799 290.5 806.5 c 128,-1,203
 298 814 298 814 309 814 c 2,188,-1
309 529 m 2,204,-1
 1240 529 l 2,205,206
 1251 529 1251 529 1258.5 521 c 128,-1,207
 1266 513 1266 513 1266 502 c 2,208,-1
 1266 484 l 2,209,210
 1266 473 1266 473 1258.5 465 c 128,-1,211
 1251 457 1251 457 1240 457 c 2,212,-1
 309 457 l 2,213,214
 298 457 298 457 290.5 465 c 128,-1,215
 283 473 283 473 283 484 c 2,216,-1
 283 502 l 2,217,218
 283 513 283 513 290.5 521 c 128,-1,219
 298 529 298 529 309 529 c 2,204,-1
309 243 m 2,220,-1
 1240 243 l 2,221,222
 1251 243 1251 243 1258.5 235.5 c 128,-1,223
 1266 228 1266 228 1266 217 c 2,224,-1
 1266 198 l 2,225,226
 1266 187 1266 187 1258.5 179.5 c 128,-1,227
 1251 172 1251 172 1240 172 c 2,228,-1
 309 172 l 2,229,230
 298 172 298 172 290.5 179.5 c 128,-1,231
 283 187 283 187 283 198 c 2,232,-1
 283 217 l 2,233,234
 283 228 283 228 291 235.5 c 128,-1,235
 299 243 299 243 309 243 c 2,220,-1
309 -43 m 2,236,-1
 1240 -43 l 2,237,238
 1251 -43 1251 -43 1258.5 -50.5 c 128,-1,239
 1266 -58 1266 -58 1266 -69 c 2,240,-1
 1266 -88 l 2,241,242
 1266 -99 1266 -99 1258.5 -106.5 c 128,-1,243
 1251 -114 1251 -114 1240 -114 c 2,244,-1
 309 -114 l 2,245,246
 298 -114 298 -114 290.5 -106.5 c 128,-1,247
 283 -99 283 -99 283 -88 c 2,248,-1
 283 -69 l 2,249,250
 283 -58 283 -58 291 -50.5 c 128,-1,251
 299 -43 299 -43 309 -43 c 2,236,-1
EndSplineSet
EndChar

StartChar: glyph-26
Encoding: 59787 59787 59
Width: 904
Flags: W
LayerCount: 2
Fore
SplineSet
306 224 m 6,0,1
 302 224 302 224 300 225 c 5,2,-1
 300 225 l 5,3,4
 289 231 289 231 289 241 c 5,5,6
 289 241 289 241 289 241 c 5,7,-1
 289 310 l 5,8,-1
 28 310 l 6,9,10
 17 311 17 311 9.5 319 c 132,-1,11
 2 327 2 327 2 338 c 132,-1,12
 2 349 2 349 9 356.5 c 132,-1,13
 16 364 16 364 27 365 c 6,14,-1
 289 365 l 5,15,-1
 289 433 l 6,16,17
 289 441 289 441 294.5 446 c 132,-1,18
 300 451 300 451 307 451 c 132,-1,19
 314 451 314 451 319 446 c 6,20,-1
 415 350 l 6,21,22
 420 345 420 345 420 337.5 c 132,-1,23
 420 330 420 330 415 325 c 6,24,-1
 319 229 l 6,25,26
 314 224 314 224 307 224 c 6,27,-1
 306 224 l 6,0,1
904 789 m 2,28,29
 904 814 904 814 886.5 832 c 128,-1,30
 869 850 869 850 844 850 c 2,31,-1
 267 850 l 1,32,33
 267 850 267 850 267 850 c 1,34,35
 242 850 242 850 224 832.5 c 128,-1,36
 206 815 206 815 206 789 c 2,37,-1
 206 390 l 2,38,39
 206 383 206 383 210.5 378.5 c 128,-1,40
 215 374 215 374 222 374 c 128,-1,41
 229 374 229 374 233.5 378.5 c 128,-1,42
 238 383 238 383 238 390 c 2,43,-1
 238 789 l 2,44,45
 238 801 238 801 246.5 809.5 c 128,-1,46
 255 818 255 818 267 818 c 1,47,48
 267 818 267 818 267 818 c 1,49,-1
 702 818 l 1,50,-1
 479 778 l 2,51,52
 465 776 465 776 456 765 c 128,-1,53
 447 754 447 754 447 740 c 2,54,-1
 447 -41 l 1,55,-1
 442 -41 l 1,56,-1
 443 -41 l 1,57,-1
 267 -41 l 1,58,59
 267 -41 267 -41 267 -41 c 1,60,61
 255 -41 255 -41 246.5 -33 c 128,-1,62
 238 -25 238 -25 238 -13 c 2,63,-1
 238 283 l 2,64,65
 238 290 238 290 233.5 294.5 c 128,-1,66
 229 299 229 299 222 299 c 128,-1,67
 215 299 215 299 210.5 294.5 c 128,-1,68
 206 290 206 290 206 283 c 2,69,-1
 206 -12 l 2,70,71
 206 -37 206 -37 224 -55 c 128,-1,72
 242 -73 242 -73 267 -73 c 1,73,74
 267 -73 267 -73 267 -73 c 1,75,-1
 446 -73 l 1,76,-1
 446 -112 l 2,77,78
 446 -128 446 -128 457 -139 c 128,-1,79
 468 -150 468 -150 484 -150 c 1,80,81
 484 -150 484 -150 484 -150 c 1,82,-1
 492 -150 l 1,83,-1
 854 -80 l 2,84,85
 875 -76 875 -76 889 -59.5 c 128,-1,86
 903 -43 903 -43 903 -21 c 1,87,88
 903 -21 903 -21 903 -21 c 1,89,-1
 904 786 l 1,90,-1
 904 785 l 1,91,-1
 904 790 l 1,92,-1
 904 789 l 2,28,29
EndSplineSet
EndChar

StartChar: glyph-39
Encoding: 59789 59789 60
Width: 909
Flags: W
LayerCount: 2
Fore
SplineSet
424 354 m 5,0,-1
 328 450 l 6,1,2
 322 456 322 456 312 456 c 4,3,4
 309 456 309 456 303 454 c 5,5,-1
 303 454 l 5,6,7
 297 452 297 452 293 446 c 132,-1,8
 289 440 289 440 289 433 c 6,9,-1
 289 371 l 5,10,-1
 30 371 l 6,11,12
 17 371 17 371 7 361.5 c 132,-1,13
 -3 352 -3 352 -3 338.5 c 132,-1,14
 -3 325 -3 325 6.5 315.5 c 132,-1,15
 16 306 16 306 30 306 c 6,16,-1
 289 306 l 5,17,-1
 289 243 l 5,18,19
 289 243 289 243 289 243 c 5,20,21
 289 236 289 236 293 230.5 c 132,-1,22
 297 225 297 225 303 222 c 5,23,-1
 303 222 l 5,24,25
 306 221 306 221 312 221 c 5,26,-1
 312 221 l 5,27,28
 312 221 312 221 312 221 c 5,29,30
 322 221 322 221 328 227 c 6,31,-1
 424 323 l 6,32,33
 431 330 431 330 431 339 c 132,-1,34
 431 348 431 348 424 355 c 5,35,-1
 424 355 l 5,36,-1
 424 354 l 5,0,-1
33 327 m 6,37,38
 25 329 25 329 25 337 c 132,-1,39
 25 345 25 345 33 348 c 6,40,-1
 312 348 l 5,41,-1
 312 433 l 5,42,-1
 313 433 l 5,43,-1
 409 337 l 5,44,-1
 312 242 l 5,45,-1
 312 327 l 5,46,-1
 33 327 l 6,37,38
910 789 m 1,47,48
 910 814 910 814 892 832 c 128,-1,49
 874 850 874 850 849 850 c 1,50,51
 849 850 849 850 849 850 c 1,52,-1
 272 850 l 2,53,54
 247 850 247 850 229 832.5 c 128,-1,55
 211 815 211 815 211 789 c 2,56,-1
 211 390 l 2,57,58
 211 383 211 383 215.5 378.5 c 128,-1,59
 220 374 220 374 227 374 c 128,-1,60
 234 374 234 374 239 378.5 c 128,-1,61
 244 383 244 383 244 390 c 2,62,-1
 244 789 l 2,63,64
 244 801 244 801 252 809.5 c 128,-1,65
 260 818 260 818 272 818 c 2,66,-1
 707 818 l 1,67,-1
 484 778 l 2,68,69
 470 776 470 776 461 765 c 128,-1,70
 452 754 452 754 452 740 c 2,71,-1
 451 -41 l 1,72,-1
 272 -41 l 2,73,74
 260 -41 260 -41 252 -32.5 c 128,-1,75
 244 -24 244 -24 244 -13 c 2,76,-1
 244 283 l 2,77,78
 244 290 244 290 239 294.5 c 128,-1,79
 234 299 234 299 227 299 c 128,-1,80
 220 299 220 299 215.5 294.5 c 128,-1,81
 211 290 211 290 211 283 c 2,82,-1
 211 -12 l 2,83,84
 211 -37 211 -37 229 -55 c 128,-1,85
 247 -73 247 -73 272 -73 c 2,86,-1
 451 -73 l 1,87,-1
 451 -112 l 2,88,89
 451 -128 451 -128 462 -139 c 128,-1,90
 473 -150 473 -150 489 -150 c 2,91,-1
 497 -150 l 1,92,-1
 859 -80 l 2,93,94
 880 -75 880 -75 894 -58.5 c 128,-1,95
 908 -42 908 -42 908 -20 c 2,96,-1
 908 786 l 1,97,-1
 910 789 l 1,47,48
876 -20 m 2,98,99
 876 -30 876 -30 869.5 -38 c 128,-1,100
 863 -46 863 -46 853 -48 c 2,101,-1
 491 -117 l 1,102,-1
 489 -118 l 2,103,104
 488 -118 488 -118 486 -116 c 1,105,-1
 486 -116 l 1,106,107
 484 -115 484 -115 484 -112 c 1,108,109
 484 -112 484 -112 484 -112 c 1,110,-1
 484 740 l 1,111,112
 484 740 484 740 484 740 c 1,113,114
 484 742 484 742 485.5 744 c 128,-1,115
 487 746 487 746 488 746 c 2,116,-1
 843 809 l 1,117,-1
 847 809 l 2,118,119
 859 809 859 809 867 800.5 c 128,-1,120
 875 792 875 792 875 780 c 1,121,-1
 875 780 l 1,122,-1
 876 -20 l 2,98,99
EndSplineSet
EndChar

StartChar: glyph-37
Encoding: 59791 59791 61
Width: 904
Flags: W
LayerCount: 2
Fore
SplineSet
791 224 m 5,0,1
 788 224 788 224 784 226 c 5,2,-1
 784 225 l 5,3,4
 773 231 773 231 773 242 c 5,5,6
 773 242 773 242 773 242 c 5,7,-1
 773 310 l 5,8,-1
 512 310 l 6,9,10
 501 311 501 311 493.5 319 c 132,-1,11
 486 327 486 327 486 338 c 132,-1,12
 486 349 486 349 493 356.5 c 132,-1,13
 500 364 500 364 511 365 c 6,14,-1
 773 365 l 5,15,-1
 773 433 l 5,16,17
 773 433 773 433 773 433 c 5,18,19
 773 445 773 445 784 450 c 6,20,-1
 791 451 l 6,21,22
 798 451 798 451 803 446 c 6,23,-1
 899 350 l 6,24,25
 904 345 904 345 904 337.5 c 132,-1,26
 904 330 904 330 899 325 c 6,27,-1
 803 229 l 6,28,29
 798 224 798 224 791 224 c 5,30,-1
 791 224 l 5,0,1
682 374 m 1,31,32
 689 374 689 374 694 378.5 c 128,-1,33
 699 383 699 383 699 390 c 2,34,-1
 699 789 l 2,35,36
 698 815 698 815 680.5 832.5 c 128,-1,37
 663 850 663 850 638 850 c 1,38,39
 638 850 638 850 638 850 c 1,40,-1
 61 850 l 2,41,42
 36 850 36 850 18 832.5 c 128,-1,43
 0 815 0 815 0 789 c 2,44,-1
 1 -20 l 1,45,46
 1 -20 1 -20 1 -20 c 1,47,48
 1 -42 1 -42 15 -58.5 c 128,-1,49
 29 -75 29 -75 50 -80 c 2,50,-1
 413 -150 l 1,51,-1
 420 -150 l 1,52,53
 420 -150 420 -150 420 -150 c 1,54,55
 436 -150 436 -150 447 -139 c 128,-1,56
 458 -128 458 -128 458 -112 c 2,57,-1
 458 -111 l 1,58,-1
 458 -112 l 1,59,-1
 458 -72 l 1,60,-1
 638 -72 l 1,61,62
 638 -72 638 -72 638 -72 c 1,63,64
 663 -72 663 -72 680.5 -54 c 128,-1,65
 698 -36 698 -36 699 -11 c 2,66,-1
 699 283 l 2,67,68
 699 290 699 290 694 294.5 c 128,-1,69
 689 299 689 299 682 299 c 128,-1,70
 675 299 675 299 670.5 294.5 c 128,-1,71
 666 290 666 290 666 283 c 2,72,-1
 666 -12 l 2,73,74
 666 -24 666 -24 657.5 -32 c 128,-1,75
 649 -40 649 -40 638 -40 c 1,76,77
 638 -40 638 -40 638 -40 c 1,78,-1
 458 -40 l 1,79,-1
 458 741 l 2,80,81
 458 755 458 755 449 766 c 128,-1,82
 440 777 440 777 427 779 c 2,83,-1
 202 818 l 1,84,-1
 638 818 l 1,85,86
 638 818 638 818 638 818 c 1,87,88
 649 818 649 818 657.5 809.5 c 128,-1,89
 666 801 666 801 666 789 c 2,90,-1
 666 390 l 2,91,92
 666 383 666 383 670.5 378.5 c 128,-1,93
 675 374 675 374 682 374 c 1,94,-1
 682 374 l 1,31,32
EndSplineSet
EndChar

StartChar: glyph-36
Encoding: 59793 59793 62
AltUni2: 00e990.ffffffff.0
Width: 904
Flags: W
LayerCount: 2
Fore
SplineSet
682 374 m 5,0,1
 689 374 689 374 694 378.5 c 132,-1,2
 699 383 699 383 699 390 c 6,3,-1
 699 789 l 6,4,5
 699 814 699 814 681 832 c 132,-1,6
 663 850 663 850 638 850 c 6,7,-1
 61 850 l 5,8,9
 61 850 61 850 61 850 c 5,10,11
 36 850 36 850 18 832.5 c 132,-1,12
 0 815 0 815 0 789 c 6,13,-1
 1 -20 l 6,14,15
 1 -42 1 -42 15 -58.5 c 132,-1,16
 29 -75 29 -75 50 -80 c 6,17,-1
 413 -150 l 5,18,-1
 420 -150 l 5,19,20
 420 -150 420 -150 420 -150 c 5,21,22
 436 -150 436 -150 447.5 -139 c 132,-1,23
 459 -128 459 -128 459 -112 c 6,24,-1
 459 -111 l 5,25,-1
 459 -112 l 5,26,-1
 459 -72 l 5,27,-1
 638 -72 l 6,28,29
 664 -72 664 -72 681.5 -54 c 132,-1,30
 699 -36 699 -36 699 -11 c 6,31,-1
 699 283 l 6,32,33
 699 290 699 290 694.5 294.5 c 132,-1,34
 690 299 690 299 683 299 c 132,-1,35
 676 299 676 299 671 294.5 c 132,-1,36
 666 290 666 290 666 283 c 6,37,-1
 666 -12 l 6,38,39
 666 -24 666 -24 658 -32 c 132,-1,40
 650 -40 650 -40 638 -40 c 6,41,-1
 459 -40 l 5,42,-1
 459 741 l 6,43,44
 459 755 459 755 450 766 c 132,-1,45
 441 777 441 777 427 779 c 6,46,-1
 202 818 l 5,47,-1
 638 818 l 6,48,49
 650 818 650 818 658 809.5 c 132,-1,50
 666 801 666 801 666 789 c 6,51,-1
 666 390 l 6,52,53
 666 383 666 383 670.5 378.5 c 132,-1,54
 675 374 675 374 682 374 c 5,55,-1
 682 374 l 5,0,1
66 808 m 5,56,-1
 420 746 l 6,57,58
 425 744 425 744 425 740 c 5,59,60
 425 740 425 740 425 740 c 5,61,-1
 426 -112 l 5,62,63
 426 -112 426 -112 426 -112 c 5,64,65
 426 -114 426 -114 423 -116 c 5,66,-1
 423 -116 l 5,67,68
 421 -118 421 -118 420 -118 c 6,69,-1
 57 -48 l 6,70,71
 47 -46 47 -46 40.5 -38 c 132,-1,72
 34 -30 34 -30 34 -20 c 6,73,-1
 34 781 l 6,74,75
 34 792 34 792 42 800 c 132,-1,76
 50 808 50 808 61 808 c 5,77,-1
 61 808 l 5,78,-1
 66 808 l 5,56,-1
791 224 m 1,79,80
 788 224 788 224 784 226 c 1,81,-1
 784 225 l 1,82,83
 773 231 773 231 773 242 c 1,84,85
 773 242 773 242 773 242 c 1,86,-1
 773 310 l 1,87,-1
 512 310 l 2,88,89
 501 311 501 311 493.5 319 c 128,-1,90
 486 327 486 327 486 338 c 128,-1,91
 486 349 486 349 493 356.5 c 128,-1,92
 500 364 500 364 511 365 c 2,93,-1
 773 365 l 1,94,-1
 773 433 l 1,95,96
 773 433 773 433 773 433 c 1,97,98
 773 445 773 445 784 450 c 2,99,-1
 791 451 l 2,100,101
 798 451 798 451 803 446 c 2,102,-1
 899 350 l 2,103,104
 904 345 904 345 904 337.5 c 128,-1,105
 904 330 904 330 899 325 c 2,106,-1
 803 229 l 2,107,108
 798 224 798 224 791 224 c 1,109,-1
 791 224 l 1,79,80
EndSplineSet
EndChar

StartChar: glyph-34
Encoding: 59794 59794 63
Width: 909
Flags: W
LayerCount: 2
Fore
SplineSet
903 354 m 5,0,-1
 807 450 l 6,1,2
 801 456 801 456 791 456 c 4,3,4
 788 456 788 456 782 454 c 5,5,-1
 782 454 l 5,6,7
 776 452 776 452 772 446 c 132,-1,8
 768 440 768 440 767 433 c 6,9,-1
 767 371 l 5,10,-1
 509 371 l 6,11,12
 496 371 496 371 486 361.5 c 132,-1,13
 476 352 476 352 476 338.5 c 132,-1,14
 476 325 476 325 485.5 315.5 c 132,-1,15
 495 306 495 306 509 306 c 6,16,-1
 767 306 l 5,17,-1
 767 243 l 5,18,19
 767 243 767 243 767 243 c 5,20,21
 767 236 767 236 771 230.5 c 132,-1,22
 775 225 775 225 781 222 c 5,23,-1
 781 222 l 5,24,25
 784 221 784 221 790 221 c 6,26,-1
 793 220 l 6,27,28
 800 220 800 220 807 225 c 6,29,-1
 903 321 l 6,30,31
 910 328 910 328 910 337 c 132,-1,32
 910 346 910 346 903 353 c 5,33,-1
 903 353 l 5,34,-1
 903 354 l 5,0,-1
512 327 m 6,35,36
 511 327 511 327 509 327 c 4,37,38
 504 327 504 327 501 330 c 132,-1,39
 498 333 498 333 498 337.5 c 132,-1,40
 498 342 498 342 501.5 345 c 132,-1,41
 505 348 505 348 509 348 c 6,42,-1
 790 348 l 5,43,-1
 790 433 l 5,44,-1
 886 337 l 5,45,-1
 790 242 l 5,46,-1
 790 327 l 5,47,-1
 512 327 l 6,35,36
682 374 m 1,48,49
 689 374 689 374 694 378.5 c 128,-1,50
 699 383 699 383 699 390 c 2,51,-1
 699 789 l 2,52,53
 699 814 699 814 681 832 c 128,-1,54
 663 850 663 850 638 850 c 2,55,-1
 61 850 l 1,56,57
 61 850 61 850 61 850 c 1,58,59
 36 850 36 850 18 832.5 c 128,-1,60
 0 815 0 815 0 789 c 2,61,-1
 1 -20 l 2,62,63
 1 -42 1 -42 15 -58.5 c 128,-1,64
 29 -75 29 -75 50 -80 c 2,65,-1
 413 -150 l 1,66,-1
 420 -150 l 1,67,68
 420 -150 420 -150 420 -150 c 1,69,70
 436 -150 436 -150 447.5 -139 c 128,-1,71
 459 -128 459 -128 459 -112 c 2,72,-1
 459 -111 l 1,73,-1
 459 -112 l 1,74,-1
 459 -72 l 1,75,-1
 638 -72 l 2,76,77
 664 -72 664 -72 681.5 -54 c 128,-1,78
 699 -36 699 -36 699 -11 c 2,79,-1
 699 283 l 2,80,81
 699 290 699 290 694.5 294.5 c 128,-1,82
 690 299 690 299 683 299 c 128,-1,83
 676 299 676 299 671 294.5 c 128,-1,84
 666 290 666 290 666 283 c 2,85,-1
 666 -12 l 2,86,87
 666 -24 666 -24 658 -32 c 128,-1,88
 650 -40 650 -40 638 -40 c 2,89,-1
 459 -40 l 1,90,-1
 459 741 l 2,91,92
 459 755 459 755 450 766 c 128,-1,93
 441 777 441 777 427 779 c 2,94,-1
 202 818 l 1,95,-1
 638 818 l 2,96,97
 650 818 650 818 658 809.5 c 128,-1,98
 666 801 666 801 666 789 c 2,99,-1
 666 390 l 2,100,101
 666 383 666 383 670.5 378.5 c 128,-1,102
 675 374 675 374 682 374 c 1,103,-1
 682 374 l 1,48,49
66 808 m 1,104,-1
 420 746 l 2,105,106
 425 744 425 744 425 740 c 1,107,108
 425 740 425 740 425 740 c 1,109,-1
 426 -112 l 1,110,111
 426 -112 426 -112 426 -112 c 1,112,113
 426 -114 426 -114 423 -116 c 1,114,-1
 423 -116 l 1,115,116
 421 -118 421 -118 420 -118 c 2,117,-1
 57 -48 l 2,118,119
 47 -46 47 -46 40.5 -38 c 128,-1,120
 34 -30 34 -30 34 -20 c 2,121,-1
 34 781 l 2,122,123
 34 792 34 792 42 800 c 128,-1,124
 50 808 50 808 61 808 c 1,125,-1
 61 808 l 1,126,-1
 66 808 l 1,104,-1
EndSplineSet
EndChar

StartChar: malattia_hover
Encoding: 59796 59796 64
Width: 1000
Flags: W
LayerCount: 2
Fore
SplineSet
942 627 m 1,0,-1
 660 627 l 1,1,-1
 660 692 l 2,2,3
 660 706 660 706 650.5 715.5 c 128,-1,4
 641 725 641 725 627 725 c 2,5,-1
 373 725 l 2,6,7
 360 725 360 725 350 715.5 c 128,-1,8
 340 706 340 706 340 692 c 2,9,-1
 340 627 l 1,10,-1
 58 627 l 2,11,12
 34 627 34 627 17 610.5 c 128,-1,13
 0 594 0 594 0 570 c 2,14,-1
 0 24 l 1,15,16
 0 24 0 24 0 24 c 1,17,18
 0 0 0 0 17 -17 c 128,-1,19
 34 -34 34 -34 57 -34 c 2,20,-1
 943 -34 l 2,21,22
 967 -34 967 -34 983.5 -17 c 128,-1,23
 1000 0 1000 0 1000 24 c 1,24,25
 1000 24 1000 24 1000 24 c 1,26,-1
 1000 570 l 2,27,28
 1000 594 1000 594 983 610.5 c 128,-1,29
 966 627 966 627 942 627 c 1,30,-1
 942 627 l 1,0,-1
381 641 m 1,31,-1
 381 684 l 1,32,-1
 619 684 l 1,33,-1
 619 641 l 1,34,-1
 381 641 l 1,31,-1
351 261 m 1,35,36
 351 261 351 261 350 261 c 0,37,38
 342 261 342 261 336 266.5 c 128,-1,39
 330 272 330 272 330 280 c 2,40,-1
 330 309 l 2,41,42
 330 317 330 317 336 322.5 c 128,-1,43
 342 328 342 328 350 328 c 2,44,-1
 466 328 l 1,45,-1
 466 447 l 1,46,47
 466 447 466 447 466 447 c 1,48,49
 466 455 466 455 472 461 c 128,-1,50
 478 467 478 467 486 468 c 2,51,-1
 514 468 l 2,52,53
 522 467 522 467 528 461 c 128,-1,54
 534 455 534 455 534 447 c 1,55,56
 534 447 534 447 534 447 c 1,57,-1
 534 328 l 1,58,-1
 650 328 l 2,59,60
 658 328 658 328 664 322.5 c 128,-1,61
 670 317 670 317 670 309 c 2,62,-1
 670 279 l 2,63,64
 670 271 670 271 664 265.5 c 128,-1,65
 658 260 658 260 650 260 c 2,66,-1
 534 260 l 1,67,-1
 534 148 l 1,68,69
 534 148 534 148 534 148 c 1,70,71
 534 140 534 140 528 134 c 128,-1,72
 522 128 522 128 514 127 c 2,73,-1
 486 127 l 2,74,75
 478 128 478 128 472 134 c 128,-1,76
 466 140 466 140 466 148 c 1,77,78
 466 148 466 148 466 148 c 1,79,-1
 466 261 l 1,80,-1
 351 261 l 1,35,36
EndSplineSet
EndChar

StartChar: glyph-31
Encoding: 59797 59797 65
Width: 1000
Flags: W
LayerCount: 2
Fore
SplineSet
674 292 m 5,0,-1
 674 319 l 5,1,2
 674 319 674 319 674 319 c 5,3,4
 674 330 674 330 666 338 c 132,-1,5
 658 346 658 346 647 346 c 6,6,-1
 542 346 l 5,7,-1
 542 455 l 5,8,9
 542 455 542 455 542 455 c 5,10,11
 542 466 542 466 534 474.5 c 132,-1,12
 526 483 526 483 515 483 c 6,13,-1
 485 483 l 6,14,15
 475 483 475 483 466.5 475 c 132,-1,16
 458 467 458 467 458 456 c 6,17,-1
 458 346 l 5,18,-1
 354 346 l 6,19,20
 343 346 343 346 335 338 c 132,-1,21
 327 330 327 330 327 319 c 6,22,-1
 327 292 l 6,23,24
 327 281 327 281 335 273 c 132,-1,25
 343 265 343 265 354 265 c 6,26,-1
 458 265 l 5,27,-1
 458 162 l 6,28,29
 458 151 458 151 466.5 143 c 132,-1,30
 475 135 475 135 486 135 c 6,31,-1
 514 135 l 6,32,33
 525 135 525 135 533.5 143 c 132,-1,34
 542 151 542 151 542 162 c 5,35,36
 542 162 542 162 542 162 c 5,37,-1
 542 265 l 5,38,-1
 647 265 l 6,39,40
 658 265 658 265 666 273 c 132,-1,41
 674 281 674 281 674 292 c 5,42,43
 674 292 674 292 674 292 c 5,44,-1
 674 292 l 5,0,-1
935 641 m 1,45,-1
 653 641 l 1,46,-1
 653 697 l 2,47,48
 653 708 653 708 645 716.5 c 128,-1,49
 637 725 637 725 625 725 c 1,50,51
 625 725 625 725 625 725 c 1,52,-1
 375 725 l 2,53,54
 363 725 363 725 355 716.5 c 128,-1,55
 347 708 347 708 347 696 c 2,56,-1
 347 641 l 1,57,-1
 65 641 l 1,58,59
 65 641 65 641 65 641 c 1,60,61
 38 641 38 641 19 622 c 128,-1,62
 0 603 0 603 0 576 c 1,63,64
 0 576 0 576 0 576 c 1,65,-1
 0 39 l 2,66,67
 0 13 0 13 19 -6 c 128,-1,68
 38 -25 38 -25 65 -25 c 2,69,-1
 935 -25 l 2,70,71
 962 -25 962 -25 981 -6 c 128,-1,72
 1000 13 1000 13 1000 39 c 2,73,-1
 1000 576 l 1,74,75
 1000 576 1000 576 1000 576 c 1,76,77
 1000 603 1000 603 981 622 c 128,-1,78
 962 641 962 641 935 641 c 1,79,80
 935 641 935 641 935 641 c 1,81,-1
 935 641 l 1,45,-1
379 643 m 1,82,-1
 379 693 l 1,83,-1
 621 693 l 1,84,-1
 621 643 l 1,85,-1
 379 643 l 1,82,-1
935 609 m 2,86,87
 949 609 949 609 958.5 599.5 c 128,-1,88
 968 590 968 590 968 576 c 2,89,-1
 968 39 l 1,90,91
 968 39 968 39 968 39 c 1,92,93
 968 26 968 26 958.5 16.5 c 128,-1,94
 949 7 949 7 935 7 c 2,95,-1
 65 7 l 2,96,97
 51 7 51 7 41.5 16.5 c 128,-1,98
 32 26 32 26 32 39 c 1,99,100
 32 39 32 39 32 39 c 1,101,-1
 32 576 l 2,102,103
 32 590 32 590 42 599.5 c 128,-1,104
 52 609 52 609 65 609 c 1,105,-1
 65 609 l 1,106,-1
 935 609 l 2,86,87
EndSplineSet
EndChar

StartChar: marker
Encoding: 59799 59799 66
Width: 661
Flags: W
LayerCount: 2
Fore
SplineSet
660 540 m 1,0,1
 655 626 655 626 609.5 697 c 128,-1,2
 564 768 564 768 491 809 c 0,3,4
 417 851 417 851 330 851 c 0,5,6
 240 851 240 851 164 806 c 0,7,8
 89 762 89 762 45 687 c 0,9,10
 0 610 0 610 0 520 c 1,11,12
 0 520 0 520 0 520 c 1,13,-1
 0 518 l 2,14,15
 0 464 0 464 17 414 c 128,-1,16
 34 364 34 364 65 323 c 1,17,-1
 64 324 l 1,18,-1
 287 -123 l 2,19,20
 293 -135 293 -135 304.5 -142.5 c 128,-1,21
 316 -150 316 -150 330 -150 c 128,-1,22
 344 -150 344 -150 356 -142.5 c 128,-1,23
 368 -135 368 -135 374 -123 c 2,24,-1
 596 323 l 1,25,26
 627 364 627 364 644 414.5 c 128,-1,27
 661 465 661 465 661 520 c 0,28,29
 661 534 661 534 660 541 c 2,30,-1
 660 540 l 1,0,1
556 351 m 1,31,-1
 330 -101 l 1,32,-1
 107 348 l 1,33,-1
 105 351 l 2,34,35
 78 386 78 386 63.5 429.5 c 128,-1,36
 49 473 49 473 49 520 c 0,37,38
 49 596 49 596 87 662 c 0,39,40
 125 725 125 725 188 763 c 0,41,42
 254 801 254 801 330 801 c 1,43,44
 330 801 330 801 330 801 c 1,45,-1
 349 801 l 1,46,47
 422 797 422 797 482.5 758 c 128,-1,48
 543 719 543 719 578 656.5 c 128,-1,49
 613 594 613 594 613 520 c 0,50,51
 613 473 613 473 598 429 c 128,-1,52
 583 385 583 385 555 349 c 1,53,-1
 556 350 l 1,54,-1
 556 351 l 1,31,-1
330 660 m 1,55,56
 287 660 287 660 250.5 638.5 c 128,-1,57
 214 617 214 617 192.5 580.5 c 128,-1,58
 171 544 171 544 171 501 c 128,-1,59
 171 458 171 458 192.5 421.5 c 128,-1,60
 214 385 214 385 250.5 363.5 c 128,-1,61
 287 342 287 342 330 342 c 128,-1,62
 373 342 373 342 410 363.5 c 128,-1,63
 447 385 447 385 468.5 421.5 c 128,-1,64
 490 458 490 458 490 501 c 1,65,66
 490 501 490 501 490 501 c 1,67,-1
 490 501 l 1,68,69
 490 544 490 544 468.5 580.5 c 128,-1,70
 447 617 447 617 410 638.5 c 128,-1,71
 373 660 373 660 330 660 c 1,72,73
 330 660 330 660 330 660 c 1,74,-1
 330 660 l 1,55,56
441 501 m 1,75,76
 441 501 441 501 441 501 c 1,77,78
 441 471 441 471 426 446 c 128,-1,79
 411 421 411 421 385.5 406 c 128,-1,80
 360 391 360 391 330 391 c 128,-1,81
 300 391 300 391 274.5 405.5 c 128,-1,82
 249 420 249 420 234.5 445.5 c 128,-1,83
 220 471 220 471 220 501 c 128,-1,84
 220 531 220 531 235 556 c 128,-1,85
 250 581 250 581 275 596 c 128,-1,86
 300 611 300 611 330 611 c 1,87,-1
 330 611 l 1,88,89
 330 611 330 611 330 611 c 1,90,91
 360 611 360 611 385.5 596 c 128,-1,92
 411 581 411 581 426 556 c 128,-1,93
 441 531 441 531 441 501 c 1,94,-1
 441 501 l 1,75,76
EndSplineSet
EndChar

StartChar: menu_hover
Encoding: 59801 59801 67
AltUni2: 00e998.ffffffff.0
Width: 1006
Flags: W
LayerCount: 2
Fore
SplineSet
42 767 m 1,0,-1
 966 767 l 2,1,2
 983 767 983 767 995 779.5 c 128,-1,3
 1007 792 1007 792 1007 809 c 128,-1,4
 1007 826 1007 826 995 838 c 128,-1,5
 983 850 983 850 966 850 c 2,6,-1
 42 850 l 2,7,8
 25 850 25 850 12.5 838 c 128,-1,9
 0 826 0 826 0 809 c 128,-1,10
 0 792 0 792 12.5 779.5 c 128,-1,11
 25 767 25 767 42 767 c 1,12,-1
 42 767 l 1,0,-1
42 309 m 1,13,-1
 966 309 l 2,14,15
 983 309 983 309 995 321 c 128,-1,16
 1007 333 1007 333 1007 350 c 128,-1,17
 1007 367 1007 367 995 379.5 c 128,-1,18
 983 392 983 392 966 392 c 2,19,-1
 42 392 l 2,20,21
 25 392 25 392 12.5 379.5 c 128,-1,22
 0 367 0 367 0 350 c 128,-1,23
 0 333 0 333 12.5 321 c 128,-1,24
 25 309 25 309 42 309 c 1,25,-1
 42 309 l 1,13,-1
42 -150 m 1,26,-1
 966 -150 l 2,27,28
 983 -150 983 -150 995 -137.5 c 128,-1,29
 1007 -125 1007 -125 1007 -108 c 128,-1,30
 1007 -91 1007 -91 995 -79 c 128,-1,31
 983 -67 983 -67 966 -67 c 2,32,-1
 42 -67 l 2,33,34
 25 -67 25 -67 12.5 -79 c 128,-1,35
 0 -91 0 -91 0 -108 c 128,-1,36
 0 -125 0 -125 12.5 -137.5 c 128,-1,37
 25 -150 25 -150 42 -150 c 1,38,-1
 42 -150 l 1,26,-1
EndSplineSet
EndChar

StartChar: glyph-30
Encoding: 59802 59802 68
Width: 1000
Flags: W
LayerCount: 2
Fore
SplineSet
61 62 m 5,0,1
 36 62 36 62 18 44.5 c 132,-1,2
 0 27 0 27 0 1.5 c 132,-1,3
 0 -24 0 -24 18 -42 c 132,-1,4
 36 -60 36 -60 61 -60 c 132,-1,5
 86 -60 86 -60 104 -42 c 132,-1,6
 122 -24 122 -24 122 1 c 5,7,-1
 122 1 l 5,8,9
 122 1 122 1 122 1 c 5,10,11
 122 27 122 27 104.5 44.5 c 132,-1,12
 87 62 87 62 61 62 c 5,13,14
 61 62 61 62 61 62 c 5,15,-1
 61 62 l 5,0,1
917 687 m 1,16,17
 879 725 879 725 831 745 c 0,18,19
 781 767 781 767 727 767 c 2,20,-1
 721 767 l 2,21,22
 667 766 667 766 619.5 743.5 c 128,-1,23
 572 721 572 721 537 683 c 1,24,-1
 537 683 l 1,25,26
 522 668 522 668 511 649 c 1,27,-1
 510 648 l 1,28,-1
 500 630 l 1,29,-1
 490 648 l 2,30,31
 478 669 478 669 463 684 c 1,32,-1
 464 684 l 1,33,34
 429 722 429 722 382 744 c 0,35,36
 334 766 334 766 280 766 c 2,37,-1
 271 766 l 2,38,39
 217 766 217 766 168.5 745 c 128,-1,40
 120 724 120 724 83 687 c 1,41,-1
 83 687 l 1,42,43
 44 648 44 648 22 597 c 0,44,45
 0 544 0 544 0 486 c 2,46,-1
 0 217 l 2,47,48
 0 193 0 193 17 176 c 128,-1,49
 34 159 34 159 58 159 c 128,-1,50
 82 159 82 159 99 176 c 128,-1,51
 116 193 116 193 116 217 c 2,52,-1
 116 484 l 2,53,54
 116 572 116 572 164 617 c 0,55,56
 186 637 186 637 214.5 648 c 128,-1,57
 243 659 243 659 275 659 c 2,58,-1
 284 659 l 2,59,60
 315 659 315 659 343.5 648 c 128,-1,61
 372 637 372 637 394 617 c 1,62,-1
 394 617 l 1,63,64
 442 575 442 575 442 484 c 2,65,-1
 442 -1 l 2,66,67
 442 -25 442 -25 459 -42 c 128,-1,68
 476 -59 476 -59 500 -59 c 128,-1,69
 524 -59 524 -59 541 -42 c 128,-1,70
 558 -25 558 -25 558 -1 c 2,71,-1
 558 484 l 2,72,73
 558 574 558 574 606 617 c 0,74,75
 656 659 656 659 721 659 c 0,76,77
 753 659 753 659 782.5 648 c 128,-1,78
 812 637 812 637 835 617 c 1,79,-1
 835 617 l 1,80,81
 883 575 883 575 883 484 c 2,82,-1
 883 -1 l 2,83,84
 883 -25 883 -25 900 -42 c 128,-1,85
 917 -59 917 -59 941 -59 c 128,-1,86
 965 -59 965 -59 982 -42 c 128,-1,87
 999 -25 999 -25 999 -1 c 2,88,-1
 999 488 l 2,89,90
 999 546 999 546 977.5 597 c 128,-1,91
 956 648 956 648 917 687 c 1,92,-1
 917 687 l 1,16,17
EndSplineSet
EndChar

StartChar: modifica_hover
Encoding: 59804 59804 69
Width: 714
Flags: W
LayerCount: 2
Fore
SplineSet
617 574 m 1,0,-1
 439 685 l 1,1,-1
 531 833 l 2,2,3
 543 850 543 850 561 850 c 0,4,5
 572 850 572 850 580 845 c 2,6,-1
 698 771 l 2,7,8
 715 759 715 759 715 741 c 0,9,10
 715 730 715 730 710 722 c 1,11,-1
 710 722 l 1,12,-1
 617 574 l 1,0,-1
46 -150 m 2,13,14
 41 -150 41 -150 39 -145 c 2,15,-1
 2 -39 l 2,16,17
 0 -31 0 -31 0 -27 c 0,18,19
 0 -17 0 -17 6 -8 c 1,20,-1
 5 -8 l 1,21,-1
 417 650 l 2,22,23
 419 654 419 654 423 654 c 2,24,-1
 427 653 l 1,25,-1
 593 548 l 2,26,27
 597 546 597 546 597 542 c 2,28,-1
 596 539 l 1,29,-1
 184 -120 l 2,30,31
 174 -135 174 -135 158 -136 c 2,32,-1
 47 -150 l 1,33,-1
 46 -150 l 2,13,14
EndSplineSet
EndChar

StartChar: glyph-168
Encoding: 59805 59805 70
Width: 714
Flags: W
LayerCount: 2
Fore
SplineSet
46 -150 m 6,0,1
 41 -150 41 -150 39 -145 c 6,2,-1
 2 -39 l 6,3,4
 0 -31 0 -31 0 -27 c 4,5,6
 0 -17 0 -17 6 -8 c 5,7,-1
 5 -8 l 5,8,-1
 417 650 l 6,9,10
 419 654 419 654 423 654 c 6,11,-1
 427 653 l 5,12,-1
 593 548 l 6,13,14
 597 546 597 546 597 542 c 6,15,-1
 596 539 l 5,16,-1
 184 -120 l 6,17,18
 174 -135 174 -135 158 -136 c 6,19,-1
 47 -150 l 5,20,-1
 46 -150 l 6,0,1
617 574 m 1,21,-1
 439 685 l 1,22,-1
 531 833 l 2,23,24
 543 850 543 850 561 850 c 0,25,26
 572 850 572 850 580 845 c 2,27,-1
 698 771 l 2,28,29
 715 759 715 759 715 741 c 0,30,31
 715 730 715 730 710 722 c 1,32,-1
 710 722 l 1,33,-1
 617 574 l 1,21,-1
EndSplineSet
EndChar

StartChar: glyph-29
Encoding: 59806 59806 71
Width: 909
Flags: W
LayerCount: 2
Fore
SplineSet
903 354 m 5,0,-1
 807 450 l 6,1,2
 801 456 801 456 791 456 c 4,3,4
 788 456 788 456 782 454 c 5,5,-1
 782 454 l 5,6,7
 776 452 776 452 772 446 c 132,-1,8
 768 440 768 440 767 433 c 6,9,-1
 767 371 l 5,10,-1
 509 371 l 6,11,12
 496 371 496 371 486 361.5 c 132,-1,13
 476 352 476 352 476 338.5 c 132,-1,14
 476 325 476 325 485.5 315.5 c 132,-1,15
 495 306 495 306 509 306 c 6,16,-1
 767 306 l 5,17,-1
 767 243 l 5,18,19
 767 243 767 243 767 243 c 5,20,21
 767 236 767 236 771 230.5 c 132,-1,22
 775 225 775 225 781 222 c 5,23,-1
 781 222 l 5,24,25
 784 221 784 221 790 221 c 6,26,-1
 793 220 l 6,27,28
 800 220 800 220 807 225 c 6,29,-1
 903 321 l 6,30,31
 910 328 910 328 910 337 c 132,-1,32
 910 346 910 346 903 353 c 5,33,-1
 903 353 l 5,34,-1
 903 354 l 5,0,-1
512 327 m 6,35,36
 511 327 511 327 509 327 c 4,37,38
 504 327 504 327 501 330 c 132,-1,39
 498 333 498 333 498 337.5 c 132,-1,40
 498 342 498 342 501.5 345 c 132,-1,41
 505 348 505 348 509 348 c 6,42,-1
 790 348 l 5,43,-1
 790 433 l 5,44,-1
 886 337 l 5,45,-1
 790 242 l 5,46,-1
 790 327 l 5,47,-1
 512 327 l 6,35,36
EndSplineSet
EndChar

StartChar: glyph-169
Encoding: 59807 59807 72
Width: 1000
Flags: W
LayerCount: 2
Fore
SplineSet
736 554 m 5,0,-1
 572 656 l 6,1,2
 568 658 568 658 564 658 c 4,3,4
 557 658 557 658 552 651 c 6,5,-1
 149 6 l 6,6,7
 143 -4 143 -4 143 -17 c 4,8,9
 143 -23 143 -23 145 -31 c 6,10,-1
 182 -135 l 6,11,12
 185 -145 185 -145 196 -145 c 6,13,-1
 306 -131 l 6,14,15
 325 -130 325 -130 337 -111 c 6,16,-1
 740 533 l 6,17,18
 742 536 742 536 742 541 c 4,19,20
 742 550 742 550 736 553 c 5,21,-1
 736 554 l 5,0,-1
205 -115 m 5,22,-1
 172 -21 l 5,23,-1
 172 -17 l 6,24,25
 172 -12 172 -12 174 -10 c 6,26,-1
 569 623 l 5,27,-1
 708 536 l 5,28,-1
 312 -97 l 6,29,30
 309 -101 309 -101 303 -103 c 5,31,-1
 303 -103 l 5,32,-1
 205 -115 l 5,22,-1
858 745 m 2,33,34
 854 761 854 761 839 771 c 2,35,-1
 723 844 l 2,36,37
 713 850 713 850 700 850 c 0,38,39
 677 850 677 850 664 830 c 2,40,-1
 570 679 l 1,41,-1
 757 562 l 1,42,-1
 852 714 l 2,43,44
 859 725 859 725 859 736 c 2,45,-1
 858 745 l 2,33,34
610 688 m 1,46,-1
 689 815 l 2,47,48
 695 821 695 821 699 821 c 128,-1,49
 703 821 703 821 707 819 c 2,50,-1
 824 746 l 2,51,52
 830 742 830 742 830 735 c 0,53,54
 830 732 830 732 828 728 c 2,55,-1
 748 601 l 1,56,-1
 610 688 l 1,46,-1
EndSplineSet
EndChar

StartChar: glyph-134
Encoding: 59810 59810 73
Width: 1000
Flags: W
LayerCount: 2
Fore
SplineSet
936 113 m 1,0,1
 935 115 935 115 931 119 c 1,2,-1
 931 119 l 1,3,4
 888 157 888 157 857.5 205 c 128,-1,5
 827 253 827 253 811 308 c 2,6,-1
 810 311 l 2,7,8
 799 352 799 352 787 400 c 2,9,-1
 784 414 l 1,10,-1
 783 420 l 1,11,-1
 777 418 l 2,12,13
 754 408 754 408 728 408 c 1,14,15
 728 408 728 408 728 408 c 1,16,-1
 728 408 l 1,17,18
 693 408 693 408 663 426 c 128,-1,19
 633 444 633 444 615.5 474.5 c 128,-1,20
 598 505 598 505 598 539 c 128,-1,21
 598 573 598 573 613.5 602.5 c 128,-1,22
 629 632 629 632 656 649 c 1,23,-1
 657 649 l 1,24,-1
 663 654 l 1,25,-1
 657 658 l 2,26,27
 610 689 610 689 554 701 c 1,28,-1
 552 701 l 1,29,30
 567 712 567 712 575.5 729.5 c 128,-1,31
 584 747 584 747 584 766 c 0,32,33
 584 801 584 801 559.5 825.5 c 128,-1,34
 535 850 535 850 500 850 c 128,-1,35
 465 850 465 850 440.5 825.5 c 128,-1,36
 416 801 416 801 416 766 c 1,37,38
 416 766 416 766 416 766 c 1,39,-1
 416 766 l 1,40,41
 416 766 416 766 416 766 c 1,42,43
 416 747 416 747 424 730 c 128,-1,44
 432 713 432 713 447 702 c 1,45,-1
 447 702 l 1,46,47
 381 690 381 690 328 650 c 128,-1,48
 275 610 275 610 245 550.5 c 128,-1,49
 215 491 215 491 215 423 c 1,50,-1
 215 423 l 1,51,52
 215 420 215 420 186 317 c 0,53,54
 150 198 150 198 61 118 c 1,55,-1
 61 118 l 1,56,57
 54 112 54 112 52 102 c 0,58,59
 51 95 51 95 51 77 c 1,60,61
 51 77 51 77 51 77 c 1,62,63
 51 36 51 36 80 7 c 128,-1,64
 109 -22 109 -22 150 -22 c 2,65,-1
 374 -22 l 1,66,67
 379 -72 379 -72 415 -105.5 c 128,-1,68
 451 -139 451 -139 500 -139 c 0,69,70
 532 -139 532 -139 560 -123.5 c 128,-1,71
 588 -108 588 -108 606 -81.5 c 128,-1,72
 624 -55 624 -55 626 -23 c 2,73,-1
 626 -22 l 1,74,-1
 858 -22 l 2,75,76
 884 -22 884 -22 905.5 -9 c 128,-1,77
 927 4 927 4 938 25 c 1,78,-1
 938 25 l 1,79,80
 949 44 949 44 949 68 c 128,-1,81
 949 92 949 92 936 113 c 1,82,-1
 936 113 l 1,0,1
745 449 m 1,83,84
 738 443 738 443 728 443 c 128,-1,85
 718 443 718 443 710 449 c 1,86,-1
 710 449 l 1,87,88
 703 456 703 456 703 465 c 1,89,90
 703 465 703 465 703 465 c 1,91,-1
 703 465 l 1,92,93
 703 465 703 465 703 465 c 1,94,95
 703 475 703 475 711 481 c 1,96,-1
 711 481 l 1,97,98
 717 487 717 487 728 487 c 128,-1,99
 739 487 739 487 746 481 c 1,100,-1
 746 481 l 1,101,102
 753 474 753 474 753 465 c 128,-1,103
 753 456 753 456 746 449 c 1,104,-1
 746 449 l 1,105,-1
 745 449 l 1,83,84
754 636 m 1,106,-1
 747 506 l 1,107,-1
 711 506 l 1,108,-1
 707 637 l 1,109,-1
 754 636 l 1,106,-1
729 393 m 1,110,-1
 728 393 l 2,111,112
 688 393 688 393 654.5 413 c 128,-1,113
 621 433 621 433 601 466.5 c 128,-1,114
 581 500 581 500 581 540 c 0,115,116
 581 570 581 570 593 597 c 128,-1,117
 605 624 605 624 626 645 c 1,118,-1
 626 645 l 1,119,120
 646 664 646 664 672 675 c 128,-1,121
 698 686 698 686 727 686 c 2,122,-1
 730 686 l 2,123,124
 769 686 769 686 802.5 666 c 128,-1,125
 836 646 836 646 856 612.5 c 128,-1,126
 876 579 876 579 876 540 c 2,127,-1
 876 539 l 2,128,129
 876 499 876 499 856 466 c 128,-1,130
 836 433 836 433 802 413.5 c 128,-1,131
 768 394 768 394 729 394 c 1,132,-1
 729 394 l 1,133,-1
 729 393 l 1,110,-1
729 666 m 2,134,135
 696 665 696 665 668 648 c 128,-1,136
 640 631 640 631 623.5 602 c 128,-1,137
 607 573 607 573 607 540 c 128,-1,138
 607 507 607 507 623 478.5 c 128,-1,139
 639 450 639 450 667 432.5 c 128,-1,140
 695 415 695 415 728 414 c 1,141,-1
 728 414 l 1,142,143
 728 414 728 414 728 414 c 1,144,145
 781 414 781 414 817 450 c 1,146,-1
 817 450 l 1,147,148
 835 467 835 467 845 490 c 128,-1,149
 855 513 855 513 855 539 c 2,150,-1
 855 540 l 2,151,152
 855 574 855 574 838 602.5 c 128,-1,153
 821 631 821 631 792.5 648.5 c 128,-1,154
 764 666 764 666 730 666 c 1,155,-1
 730 666 l 1,156,-1
 729 666 l 2,134,135
EndSplineSet
EndChar

StartChar: glyph-155
Encoding: 59821 59821 74
AltUni2: 00e9aa.ffffffff.0
Width: 918
Flags: W
LayerCount: 2
Fore
SplineSet
902 125 m 5,0,-1
 902 125 l 5,1,2
 900 129 900 129 894 135 c 5,3,-1
 894 135 l 5,4,5
 854 171 854 171 825 216 c 132,-1,6
 796 261 796 261 781 312 c 5,7,-1
 781 314 l 5,8,-1
 754 420 l 5,9,10
 754 484 754 484 727.5 541.5 c 132,-1,11
 701 599 701 599 654.5 641 c 132,-1,12
 608 683 608 683 549 702 c 5,13,-1
 547 702 l 5,14,15
 559 723 559 723 559 750 c 6,16,-1
 559 752 l 6,17,18
 559 793 559 793 529.5 822.5 c 132,-1,19
 500 852 500 852 459 852 c 132,-1,20
 418 852 418 852 388.5 822.5 c 132,-1,21
 359 793 359 793 359 752 c 4,22,23
 359 726 359 726 372 702 c 5,24,-1
 372 703 l 5,25,26
 311 685 311 685 263 643.5 c 132,-1,27
 215 602 215 602 188 544.5 c 132,-1,28
 161 487 161 487 161 422 c 5,29,-1
 161 422 l 5,30,31
 161 417 161 417 134 321 c 4,32,33
 100 210 100 210 16 134 c 5,34,-1
 15 133 l 6,35,36
 -1 113 -1 113 -1 91 c 4,37,38
 -1 87 -1 87 1 79 c 5,39,-1
 1 79 l 5,40,41
 1 48 1 48 16.5 21.5 c 132,-1,42
 32 -5 32 -5 58.5 -20.5 c 132,-1,43
 85 -36 85 -36 116 -36 c 6,44,-1
 811 -36 l 6,45,46
 840 -36 840 -36 865 -20.5 c 132,-1,47
 890 -5 890 -5 905 20 c 5,48,-1
 905 21 l 5,49,50
 918 44 918 44 918 72 c 132,-1,51
 918 100 918 100 902 126 c 5,52,-1
 902 125 l 5,0,-1
811 10 m 5,53,-1
 115 10 l 5,54,55
 115 10 115 10 115 10 c 5,56,57
 87 10 87 10 66.5 30 c 132,-1,58
 46 50 46 50 45 79 c 6,59,-1
 45 90 l 6,60,61
 45 97 45 97 46 101 c 6,62,-1
 45 100 l 5,63,64
 140 186 140 186 176 305 c 6,65,-1
 177 308 l 5,66,67
 205 410 205 410 205 420 c 4,68,69
 205 479 205 479 231 530.5 c 132,-1,70
 257 582 257 582 302 617.5 c 132,-1,71
 347 653 347 653 403 665 c 5,72,-1
 405 665 l 5,73,-1
 415 660 l 5,74,-1
 416 660 l 6,75,76
 418 658 418 658 424 657 c 6,77,-1
 432 654 l 6,78,79
 438 652 438 652 442 652 c 6,80,-1
 452 652 l 6,81,82
 453 651 453 651 457.5 651 c 132,-1,83
 462 651 462 651 464 652 c 6,84,-1
 473 652 l 6,85,86
 478 652 478 652 484 654 c 6,87,-1
 489 656 l 6,88,89
 497 658 497 658 511 666 c 5,90,-1
 510 665 l 5,91,92
 567 653 567 653 612 617.5 c 132,-1,93
 657 582 657 582 683 530.5 c 132,-1,94
 709 479 709 479 709 420 c 5,95,-1
 709 420 l 5,96,97
 709 410 709 410 737 303 c 4,98,99
 771 182 771 182 863 100 c 5,100,-1
 864 100 l 5,101,102
 872 86 872 86 872 69.5 c 132,-1,103
 872 53 872 53 865 42 c 5,104,-1
 865 42 l 5,105,106
 857 27 857 27 842.5 18.5 c 132,-1,107
 828 10 828 10 811 10 c 5,108,109
 811 10 811 10 811 10 c 5,110,-1
 811 10 l 5,53,-1
494 708 m 5,111,-1
 492 708 l 5,112,113
 487 703 487 703 476 699 c 5,114,-1
 476 699 l 5,115,116
 469 696 469 696 459 696 c 4,117,118
 440 696 440 696 425 708 c 6,119,-1
 424 709 l 6,120,121
 404 726 404 726 404 751 c 4,122,123
 404 774 404 774 420.5 790 c 132,-1,124
 437 806 437 806 459 806 c 132,-1,125
 481 806 481 806 497 790 c 132,-1,126
 513 774 513 774 513 751 c 4,127,128
 513 725 513 725 494 709 c 5,129,-1
 494 709 l 5,130,-1
 494 708 l 5,111,-1
317 10 m 1,131,-1
 317 -13 l 2,132,133
 317 -51 317 -51 336 -84 c 128,-1,134
 355 -117 355 -117 387.5 -136 c 128,-1,135
 420 -155 420 -155 458 -155 c 128,-1,136
 496 -155 496 -155 529 -136 c 128,-1,137
 562 -117 562 -117 581 -84 c 128,-1,138
 600 -51 600 -51 600 -13 c 2,139,-1
 600 10 l 1,140,-1
 317 10 l 1,131,-1
552 -35 m 1,141,142
 543 -66 543 -66 517.5 -85.5 c 128,-1,143
 492 -105 492 -105 459 -105 c 128,-1,144
 426 -105 426 -105 400.5 -85.5 c 128,-1,145
 375 -66 375 -66 367 -36 c 1,146,-1
 367 -35 l 1,147,-1
 552 -35 l 1,141,142
EndSplineSet
EndChar

StartChar: glyph-41
Encoding: 59819 59819 75
Width: 918
Flags: W
LayerCount: 2
Fore
SplineSet
894 105 m 6,0,1
 893 108 893 108 889 112 c 5,2,-1
 889 112 l 5,3,4
 846 149 846 149 815 197.5 c 132,-1,5
 784 246 784 246 767 302 c 5,6,-1
 767 305 l 5,7,8
 738 411 738 411 738 418 c 4,9,10
 738 486 738 486 707 547 c 4,11,12
 678 605 678 605 625.5 645.5 c 132,-1,13
 573 686 573 686 508 699 c 5,14,-1
 506 699 l 5,15,16
 521 711 521 711 529.5 728.5 c 132,-1,17
 538 746 538 746 538 765 c 4,18,19
 538 800 538 800 513 825 c 132,-1,20
 488 850 488 850 453 850 c 132,-1,21
 418 850 418 850 393 825 c 132,-1,22
 368 800 368 800 368 765 c 5,23,-1
 368 765 l 5,24,25
 368 765 368 765 368 765 c 5,26,27
 368 746 368 746 376.5 729 c 132,-1,28
 385 712 385 712 399 700 c 5,29,-1
 400 700 l 5,30,31
 334 687 334 687 280.5 646.5 c 132,-1,32
 227 606 227 606 196.5 546.5 c 132,-1,33
 166 487 166 487 166 418 c 5,34,-1
 166 418 l 5,35,36
 166 411 166 411 137 311 c 4,37,38
 102 193 102 193 11 110 c 5,39,-1
 10 110 l 5,40,41
 3 104 3 104 1 94 c 4,42,43
 0 87 0 87 0 68 c 4,44,45
 0 27 0 27 29.5 -2 c 132,-1,46
 59 -31 59 -31 100 -32 c 6,47,-1
 327 -32 l 5,48,49
 331 -82 331 -82 367.5 -115.5 c 132,-1,50
 404 -149 404 -149 454 -149 c 132,-1,51
 504 -149 504 -149 540.5 -115.5 c 132,-1,52
 577 -82 577 -82 581 -32 c 5,53,-1
 816 -32 l 6,54,55
 842 -32 842 -32 863 -19 c 132,-1,56
 884 -6 884 -6 896 16 c 5,57,-1
 897 17 l 5,58,59
 908 36 908 36 908 60 c 132,-1,60
 908 84 908 84 894 106 c 5,61,-1
 894 105 l 6,0,1
902 125 m 1,62,-1
 902 125 l 1,63,64
 900 129 900 129 894 135 c 1,65,-1
 894 135 l 1,66,67
 854 171 854 171 825 216 c 128,-1,68
 796 261 796 261 781 312 c 1,69,-1
 781 314 l 1,70,71
 772 349 772 349 762 388 c 2,72,-1
 759 400 l 1,73,-1
 757 405 l 1,74,-1
 752 404 l 2,75,76
 739 399 739 399 719 397 c 2,77,-1
 713 397 l 1,78,-1
 714 391 l 1,79,-1
 737 303 l 2,80,81
 769 184 769 184 863 100 c 1,82,-1
 864 100 l 1,83,84
 872 86 872 86 872 69.5 c 128,-1,85
 872 53 872 53 865 42 c 1,86,-1
 865 42 l 1,87,88
 857 28 857 28 842.5 19 c 128,-1,89
 828 10 828 10 811 9 c 2,90,-1
 115 9 l 2,91,92
 87 9 87 9 66 30 c 128,-1,93
 45 51 45 51 45 79 c 2,94,-1
 45 90 l 2,95,96
 45 97 45 97 46 101 c 2,97,-1
 45 100 l 1,98,99
 140 186 140 186 176 305 c 2,100,-1
 177 308 l 1,101,102
 205 410 205 410 205 420 c 0,103,104
 205 479 205 479 231 530.5 c 128,-1,105
 257 582 257 582 302 617.5 c 128,-1,106
 347 653 347 653 403 665 c 1,107,-1
 405 665 l 1,108,109
 412 660 412 660 426 655 c 2,110,-1
 432 654 l 1,111,-1
 442 651 l 1,112,-1
 458 650 l 2,113,114
 465 650 465 650 468 651 c 2,115,-1
 472 651 l 1,116,-1
 484 653 l 1,117,-1
 483 653 l 1,118,-1
 488 655 l 2,119,120
 495 657 495 657 507 663 c 1,121,-1
 506 663 l 1,122,-1
 510 665 l 1,123,124
 563 654 563 654 609 620 c 1,125,-1
 608 621 l 1,126,-1
 612 618 l 1,127,-1
 615 621 l 2,128,129
 629 635 629 635 641 642 c 1,130,-1
 642 642 l 1,131,-1
 648 646 l 1,132,-1
 642 650 l 1,133,134
 599 685 599 685 549 701 c 1,135,-1
 547 702 l 1,136,137
 559 724 559 724 559 749 c 1,138,-1
 559 749 l 1,139,140
 559 790 559 790 529.5 819.5 c 128,-1,141
 500 849 500 849 459 849 c 128,-1,142
 418 849 418 849 388.5 819.5 c 128,-1,143
 359 790 359 790 359 749 c 1,144,-1
 359 749 l 1,145,146
 359 723 359 723 371 702 c 1,147,-1
 371 702 l 1,148,149
 310 684 310 684 262.5 642.5 c 128,-1,150
 215 601 215 601 188 544 c 128,-1,151
 161 487 161 487 161 422 c 1,152,-1
 161 422 l 1,153,154
 161 417 161 417 134 321 c 0,155,156
 100 210 100 210 16 134 c 1,157,-1
 15 133 l 2,158,159
 -1 113 -1 113 -1 91 c 0,160,161
 -1 87 -1 87 1 79 c 1,162,-1
 1 79 l 1,163,164
 1 48 1 48 16.5 21.5 c 128,-1,165
 32 -5 32 -5 58.5 -20.5 c 128,-1,166
 85 -36 85 -36 116 -36 c 2,167,-1
 811 -36 l 2,168,169
 840 -36 840 -36 865 -20.5 c 128,-1,170
 890 -5 890 -5 905 20 c 1,171,-1
 905 21 l 1,172,173
 918 44 918 44 918 72 c 128,-1,174
 918 100 918 100 902 126 c 1,175,-1
 902 125 l 1,62,-1
494 709 m 1,176,-1
 492 707 l 2,177,178
 478 696 478 696 458.5 696 c 128,-1,179
 439 696 439 696 425 707 c 2,180,-1
 422 710 l 2,181,182
 404 726 404 726 404 749 c 128,-1,183
 404 772 404 772 420 788 c 128,-1,184
 436 804 436 804 459 804 c 128,-1,185
 482 804 482 804 498 788 c 128,-1,186
 514 772 514 772 514 750 c 1,187,188
 514 750 514 750 514 750 c 1,189,-1
 514 750 l 1,190,191
 514 750 514 750 514 750 c 1,192,193
 514 725 514 725 494 708 c 1,194,-1
 494 708 l 1,195,-1
 494 709 l 1,176,-1
EndSplineSet
EndChar

StartChar: password_hover
Encoding: 59823 59823 76
Width: 1000
Flags: W
LayerCount: 2
Fore
SplineSet
725 625 m 1,0,1
 725 686 725 686 694.5 737.5 c 128,-1,2
 664 789 664 789 612.5 819.5 c 128,-1,3
 561 850 561 850 500 850 c 128,-1,4
 439 850 439 850 387.5 819.5 c 128,-1,5
 336 789 336 789 306 737.5 c 128,-1,6
 276 686 276 686 276 625 c 0,7,8
 276 553 276 553 317.5 495.5 c 128,-1,9
 359 438 359 438 424 414 c 1,10,-1
 426 413 l 1,11,-1
 413 413 l 1,12,-1
 413 -78 l 1,13,-1
 495 -139 l 1,14,-1
 498 -142 l 1,15,-1
 585 -81 l 1,16,-1
 587 -79 l 1,17,-1
 587 -24 l 1,18,-1
 539 23 l 1,19,-1
 585 69 l 1,20,-1
 587 70 l 1,21,-1
 587 83 l 1,22,-1
 515 155 l 1,23,-1
 587 225 l 1,24,-1
 587 413 l 1,25,-1
 575 413 l 1,26,27
 642 437 642 437 683.5 495 c 128,-1,28
 725 553 725 553 725 625 c 1,29,30
 725 625 725 625 725 625 c 1,31,-1
 725 625 l 1,0,1
499 579 m 1,32,33
 480 579 480 579 467 592.5 c 128,-1,34
 454 606 454 606 454 625 c 128,-1,35
 454 644 454 644 467 657 c 128,-1,36
 480 670 480 670 499 670 c 128,-1,37
 518 670 518 670 531.5 657 c 128,-1,38
 545 644 545 644 545 625 c 1,39,-1
 545 625 l 1,40,41
 545 606 545 606 531.5 592.5 c 128,-1,42
 518 579 518 579 499 579 c 1,43,-1
 499 579 l 1,32,33
EndSplineSet
EndChar

StartChar: glyph-43
Encoding: 59824 59824 77
Width: 465
Flags: W
LayerCount: 2
Fore
SplineSet
232 678 m 5,0,1
 206 678 206 678 187.5 659.5 c 132,-1,2
 169 641 169 641 169 615 c 132,-1,3
 169 589 169 589 187.5 571 c 132,-1,4
 206 553 206 553 232 553 c 132,-1,5
 258 553 258 553 276 571.5 c 132,-1,6
 294 590 294 590 294 615 c 5,7,-1
 294 615 l 5,8,9
 294 641 294 641 276 659.5 c 132,-1,10
 258 678 258 678 232 678 c 5,11,-1
 232 678 l 5,0,1
232 579 m 5,12,13
 216 579 216 579 205 589.5 c 132,-1,14
 194 600 194 600 194 616 c 132,-1,15
 194 632 194 632 205 643 c 132,-1,16
 216 654 216 654 232 654 c 132,-1,17
 248 654 248 654 258.5 643 c 132,-1,18
 269 632 269 632 269 616 c 5,19,-1
 269 616 l 5,20,21
 269 601 269 601 258 590 c 132,-1,22
 247 579 247 579 232 579 c 5,23,24
 232 579 232 579 232 579 c 5,25,-1
 232 579 l 5,12,13
466 617 m 1,26,27
 466 680 466 680 434 733.5 c 128,-1,28
 402 787 402 787 348 818.5 c 128,-1,29
 294 850 294 850 231 850 c 0,30,31
 183 850 183 850 140 832 c 128,-1,32
 97 814 97 814 64 781 c 1,33,-1
 64 781 l 1,34,35
 33 749 33 749 16.5 708 c 128,-1,36
 0 667 0 667 0 621 c 0,37,38
 0 612 0 612 2 594 c 2,39,-1
 2 595 l 1,40,41
 8 533 8 533 43.5 483 c 128,-1,42
 79 433 79 433 134 406 c 1,43,-1
 136 406 l 1,44,-1
 136 -79 l 1,45,-1
 231 -149 l 1,46,-1
 324 -84 l 1,47,-1
 331 -78 l 1,48,-1
 331 -15 l 1,49,-1
 289 27 l 1,50,-1
 331 68 l 1,51,-1
 331 89 l 1,52,-1
 265 154 l 1,53,-1
 331 219 l 1,54,-1
 331 406 l 1,55,56
 392 435 392 435 429 491.5 c 128,-1,57
 466 548 466 548 466 617 c 1,58,-1
 466 617 l 1,26,27
284 405 m 2,59,60
 286 394 286 394 296 389 c 1,61,-1
 296 234 l 1,62,-1
 232 171 l 2,63,64
 225 164 225 164 225 156 c 2,65,-1
 225 155 l 1,66,67
 225 155 225 155 225 155 c 1,68,69
 225 147 225 147 232 140 c 2,70,-1
 293 79 l 1,71,-1
 256 42 l 2,72,73
 249 35 249 35 249 27 c 2,74,-1
 249 26 l 1,75,-1
 249 27 l 1,76,-1
 249 26 l 2,77,78
 249 18 249 18 256 11 c 2,79,-1
 295 -29 l 1,80,-1
 295 -62 l 1,81,-1
 231 -108 l 1,82,-1
 170 -62 l 1,83,-1
 170 389 l 1,84,85
 180 393 180 393 182 405 c 2,86,-1
 183 410 l 2,87,88
 183 417 183 417 178.5 422.5 c 128,-1,89
 174 428 174 428 168 430 c 1,90,-1
 168 430 l 1,91,92
 114 450 114 450 78 495 c 128,-1,93
 42 540 42 540 36 597 c 2,94,-1
 35 617 l 2,95,96
 35 671 35 671 61.5 716.5 c 128,-1,97
 88 762 88 762 134 788.5 c 128,-1,98
 180 815 180 815 234 815 c 128,-1,99
 288 815 288 815 333.5 788.5 c 128,-1,100
 379 762 379 762 405.5 716.5 c 128,-1,101
 432 671 432 671 432 617 c 0,102,103
 432 553 432 553 395.5 502.5 c 128,-1,104
 359 452 359 452 301 431 c 1,105,-1
 299 430 l 2,106,107
 292 428 292 428 288 422 c 128,-1,108
 284 416 284 416 284 409 c 2,109,-1
 284 405 l 2,59,60
EndSplineSet
EndChar

StartChar: permesso_hover
Encoding: 59826 59826 78
Width: 1000
Flags: W
LayerCount: 2
Fore
SplineSet
935 641 m 1,0,-1
 653 641 l 1,1,-1
 653 697 l 2,2,3
 653 708 653 708 645 716.5 c 128,-1,4
 637 725 637 725 625 725 c 1,5,6
 625 725 625 725 625 725 c 1,7,-1
 375 725 l 2,8,9
 363 725 363 725 355 716.5 c 128,-1,10
 347 708 347 708 347 696 c 2,11,-1
 347 641 l 1,12,-1
 65 641 l 1,13,14
 65 641 65 641 65 641 c 1,15,16
 38 641 38 641 19 622 c 128,-1,17
 0 603 0 603 0 576 c 1,18,19
 0 576 0 576 0 576 c 1,20,-1
 0 39 l 2,21,22
 0 13 0 13 19 -6 c 128,-1,23
 38 -25 38 -25 65 -25 c 2,24,-1
 935 -25 l 2,25,26
 962 -25 962 -25 981 -6 c 128,-1,27
 1000 13 1000 13 1000 39 c 2,28,-1
 1000 576 l 1,29,30
 1000 576 1000 576 1000 576 c 1,31,32
 1000 603 1000 603 981 622 c 128,-1,33
 962 641 962 641 935 641 c 1,34,35
 935 641 935 641 935 641 c 1,36,-1
 935 641 l 1,0,-1
379 643 m 1,37,-1
 379 693 l 1,38,-1
 621 693 l 1,39,-1
 621 643 l 1,40,-1
 379 643 l 1,37,-1
32 193 m 1,41,-1
 406 193 l 1,42,-1
 406 153 l 1,43,44
 406 153 406 153 406 153 c 1,45,46
 406 148 406 148 409.5 144.5 c 128,-1,47
 413 141 413 141 418 141 c 2,48,-1
 582 141 l 2,49,50
 587 141 587 141 590.5 144.5 c 128,-1,51
 594 148 594 148 594 153 c 1,52,53
 594 153 594 153 594 153 c 1,54,-1
 594 193 l 1,55,-1
 968 193 l 1,56,-1
 968 39 l 1,57,58
 968 39 968 39 968 39 c 1,59,60
 968 26 968 26 958.5 16.5 c 128,-1,61
 949 7 949 7 935 7 c 2,62,-1
 65 7 l 2,63,64
 51 7 51 7 41.5 16.5 c 128,-1,65
 32 26 32 26 32 39 c 1,66,67
 32 39 32 39 32 39 c 1,68,-1
 32 39 l 1,69,-1
 32 193 l 1,41,-1
EndSplineSet
EndChar

